<svg width="73" height="73" viewBox="0 0 73 73" fill="none" xmlns="http://www.w3.org/2000/svg">
<circle cx="36.5" cy="36.5" r="36.5" fill="white"/>
<path d="M36.5 18C29.0564 18 23 24.1751 23 31.7648V44.4705C23 46.2222 24.3975 47.6472 26.1153 47.6472C27.8334 47.6472 29.2309 46.2222 29.2309 44.4705V33.8824C29.2309 32.1309 27.8334 30.706 26.1153 30.706C25.7657 30.706 25.4349 30.7782 25.1205 30.887C25.5636 24.8744 30.4927 20.1176 36.5 20.1176C42.5041 20.1176 47.4318 24.87 47.8789 30.8784C47.5665 30.7694 47.2338 30.706 46.8847 30.706C45.1666 30.706 43.7691 32.1309 43.7691 33.8824V44.4705C43.7691 46.2222 45.1666 47.6472 46.8847 47.6472C47.2505 47.6472 47.5966 47.5708 47.9231 47.4521V48.706C47.9231 49.2902 47.4566 49.7648 46.8847 49.7648H39.4241C38.9939 48.5349 37.852 47.6472 36.5 47.6472C34.7822 47.6472 33.3847 49.0721 33.3847 50.8236C33.3847 52.5751 34.7822 54 36.5 54C37.852 54 38.9939 53.112 39.4241 51.8824H46.8847C48.6025 51.8824 50 50.4575 50 48.706C50 42.3372 50 38.1404 50 31.7648C50 24.1751 43.9436 18 36.5 18V18Z" fill="#FF9D00"/>
<path d="M53 35V47C54.1613 46.5729 55 45.4384 55 44.095V37.905C55 36.5618 54.1613 35.4274 53 35Z" fill="#FF9D00"/>
<path d="M18 37.905V44.095C18 45.4384 18.8387 46.5729 20 47V35C18.8387 35.4274 18 36.5618 18 37.905Z" fill="#FF9D00"/>
</svg>
