<svg width="73" height="73" viewBox="0 0 73 73" fill="none" xmlns="http://www.w3.org/2000/svg">
<circle cx="36.5" cy="36.5" r="36.5" fill="white"/>
<path d="M34 36H40V38H34V36Z" fill="#FF9D00"/>
<path d="M47.5838 37.8886H41.9805V38.8145C41.9805 39.3262 41.5348 39.7405 40.9844 39.7405H33.0156C32.4652 39.7405 32.0195 39.3262 32.0195 38.8145V37.8886H26.4162C25.1283 37.8886 23.9893 37.1254 23.5815 35.9897L20 26V46.2221C20 47.7538 21.3406 49 22.9883 49H51.0117C52.6594 49 54 47.7538 54 46.2221V26.0007L50.4182 35.9897C50.0107 37.1254 48.8717 37.8886 47.5838 37.8886Z" fill="#FF9D00"/>
<path d="M40.9096 21H33.0901C31.4733 21 30.1578 22.2617 30.1578 23.8125V24.75H22L25.6865 35.3591C25.8202 35.7427 26.1933 36 26.6143 36H32.1127V35.0625C32.1127 34.5444 32.55 34.125 33.0901 34.125H40.9096C41.4498 34.125 41.8871 34.5444 41.8871 35.0625V36H47.3854C47.8064 36 48.1796 35.7427 48.3132 35.3591L52 24.75H43.8419V23.8125C43.8419 22.2617 42.5265 21 40.9096 21ZM32.1127 24.75V23.8125C32.1127 23.2952 32.5507 22.875 33.0901 22.875H40.9096C41.449 22.875 41.8871 23.2952 41.8871 23.8125V24.75H32.1127Z" fill="#FF9D00"/>
</svg>
