<svg width="73" height="73" viewBox="0 0 73 73" fill="none" xmlns="http://www.w3.org/2000/svg">
<circle cx="36.5" cy="36.5" r="36.5" fill="white"/>
<path d="M53 41.9639C53 38.1111 50.7897 34.6726 47.4793 33C47.3765 40.3873 41.3873 46.3765 34 46.4793C35.6726 49.7897 39.1111 52 42.9639 52C44.7704 52 46.5271 51.5189 48.0706 50.6048L52.9562 51.9562L51.6048 47.0706C52.5189 45.5271 53 43.7704 53 41.9639Z" fill="#FF9D00"/>
<path d="M45 33C45 26.9345 39.8412 22 33.5 22C27.1588 22 22 26.9345 22 33C22 34.9768 22.5501 36.9015 23.5947 38.5912L22.0423 43.9593L27.6546 42.4747C29.4212 43.4738 31.4334 44 33.5 44C39.8412 44 45 39.0655 45 33ZM31.7353 30.4399H29.9706C29.9706 28.5783 31.5538 27.0639 33.5 27.0639C35.4462 27.0639 37.0294 28.5783 37.0294 30.4399C37.0294 31.3848 36.6112 32.2929 35.8817 32.9312L34.3824 34.2438V35.5601H32.6176V33.5005L34.6903 31.6859C35.0607 31.3617 35.2647 30.9193 35.2647 30.4399C35.2647 29.5091 34.4731 28.7519 33.5 28.7519C32.5269 28.7519 31.7353 29.5091 31.7353 30.4399ZM32.6176 37.2481H34.3824V38.9361H32.6176V37.2481Z" fill="#FF9D00"/>
</svg>
