<svg width="47" height="48" viewBox="0 0 47 48" fill="none" xmlns="http://www.w3.org/2000/svg">
<path d="M36.5823 2.24263L1.93405 36.8909C-0.409099 39.234 -0.409099 43.033 1.93405 45.3761C4.27719 47.7193 8.07618 47.7193 10.4193 45.3761L45.0676 10.7279C47.4107 8.38476 47.4107 4.58577 45.0676 2.24263C42.7244 -0.100519 38.9254 -0.100519 36.5823 2.24263Z" fill="#725CEB"/>
<path d="M45.0667 36.8909L10.4184 2.24264C8.07528 -0.100505 4.27629 -0.100505 1.93314 2.24264C-0.410005 4.58579 -0.410005 8.38478 1.93314 10.7279L36.5814 45.3762C38.9245 47.7193 42.7235 47.7193 45.0667 45.3762C47.4098 43.033 47.4098 39.234 45.0667 36.8909Z" fill="#725CEB"/>
</svg>
