<svg width="73" height="73" viewBox="0 0 73 73" fill="none" xmlns="http://www.w3.org/2000/svg">
<circle cx="36.5" cy="36.5" r="36.5" fill="#725CEB"/>
<path d="M46.348 41.656C46.348 42.976 46 44.2 45.304 45.328C44.632 46.432 43.624 47.344 42.28 48.064C40.96 48.76 39.388 49.144 37.564 49.216V52.132H35.26V49.18C32.716 48.964 30.664 48.208 29.104 46.912C27.544 45.592 26.716 43.804 26.62 41.548H33.172C33.316 42.988 34.012 43.912 35.26 44.32V38.632C33.388 38.152 31.888 37.684 30.76 37.228C29.656 36.772 28.684 36.04 27.844 35.032C27.004 34.024 26.584 32.644 26.584 30.892C26.584 28.708 27.388 26.956 28.996 25.636C30.628 24.316 32.716 23.572 35.26 23.404V20.488H37.564V23.404C40.084 23.596 42.076 24.328 43.54 25.6C45.004 26.872 45.82 28.636 45.988 30.892H39.4C39.256 29.596 38.644 28.756 37.564 28.372V33.952C39.556 34.504 41.092 34.996 42.172 35.428C43.252 35.86 44.212 36.58 45.052 37.588C45.916 38.572 46.348 39.928 46.348 41.656ZM33.1 30.604C33.1 31.204 33.28 31.708 33.64 32.116C34.024 32.524 34.564 32.884 35.26 33.196V28.192C34.588 28.312 34.06 28.576 33.676 28.984C33.292 29.368 33.1 29.908 33.1 30.604ZM37.564 44.428C38.284 44.308 38.848 44.02 39.256 43.564C39.688 43.108 39.904 42.544 39.904 41.872C39.904 41.248 39.7 40.744 39.292 40.36C38.908 39.952 38.332 39.604 37.564 39.316V44.428Z" fill="white"/>
</svg>
