<svg width="34" height="34" viewBox="0 0 34 34" fill="none" xmlns="http://www.w3.org/2000/svg">
<path d="M17 34C7.61116 34 -3.35059e-07 26.3888 -7.48375e-07 17C-1.16169e-06 7.61116 7.61116 -3.30347e-07 17 -7.3785e-07C26.3888 -1.14535e-06 34 7.61116 34 17C34 26.3888 26.3888 34 17 34Z" fill="white"/>
<path d="M24 12.4205C23.4853 12.6618 22.9314 12.8245 22.3503 12.8974C22.9437 12.5227 23.3987 11.9292 23.6132 11.2212C23.0582 11.5686 22.4438 11.8207 21.7893 11.9568C21.2655 11.3681 20.519 11 19.6928 11C18.1068 11 16.8208 12.3563 16.8208 14.0295C16.8208 14.2666 16.8461 14.4977 16.8953 14.7198C14.5081 14.5933 12.3915 13.3875 10.9748 11.5545C10.7275 12.0017 10.586 12.5221 10.586 13.0778C10.586 14.1287 11.093 15.0562 11.8637 15.5993C11.3931 15.5834 10.95 15.447 10.5627 15.2201C10.5624 15.2327 10.5624 15.2456 10.5624 15.2585C10.5624 16.726 11.5525 17.9502 12.8666 18.229C12.6256 18.2979 12.3718 18.3351 12.1098 18.3351C11.9245 18.3351 11.7446 18.3162 11.5693 18.2805C11.935 19.484 12.9956 20.3601 14.2523 20.3844C13.2693 21.197 12.0311 21.6814 10.6852 21.6814C10.4536 21.6814 10.2248 21.667 10 21.6389C11.2715 22.4988 12.7811 23 14.4029 23C19.6863 23 22.5751 18.3839 22.5751 14.3805C22.5751 14.2492 22.5725 14.1182 22.5671 13.9882C23.1281 13.5619 23.6152 13.0281 24 12.4205Z" fill="#725CEB"/>
</svg>
