<svg width="471" height="309" viewBox="0 0 471 309" fill="none" xmlns="http://www.w3.org/2000/svg">
<path d="M457.899 236.5C468.099 202.7 477.899 131.5 458.199 99.2C438.799 67.3 424.199 60 352.499 52.6C280.799 45.1 256.299 26.5999 214.799 15.8999C198.999 11.7999 145.699 -7.80005 86.0995 23.1C26.4995 54 -3.80055 146.8 1.29945 190.5C6.39945 234.2 11.3994 284.3 94.1994 302.4C176.999 320.5 358.599 295.9 406.499 275.9C443.499 260.5 453.499 251.1 457.899 236.5Z" fill="#D8DAEF"/>
<path d="M469.9 100.7C469.9 100.7 462.5 96.3999 410.5 80.2999C358.5 64.1999 296.5 73.9999 247 74.6999C197.5 75.3999 135.6 77.1999 121.4 83.3999C107.2 89.5999 108.4 114.4 108.4 126.1C108.4 137.9 110.9 158.3 110.9 158.3C110.9 158.3 110.9 173.2 104.7 176.3C98.4999 179.4 106.6 215.9 106.6 215.9C106.6 215.9 295.4 289.3 320.8 297.3C346.2 305.3 436.5 265.4 455.1 245C473.7 224.5 469.9 100.7 469.9 100.7Z" fill="#F2A139"/>
<path d="M458.1 122.5C449.7 92.5 399.7 87.4 357.2 88.1C314.7 88.8 239.5 96.4 207.1 106.4C182.5 114 142.4 140.7 142.4 140.7C142.4 140.7 120.1 152.4 128.4 158.6C144.5 170.6 195.8 178.5 242.4 187.9C268.2 193.1 286.1 202 300.3 205.4C337.8 214.4 328.6 217.2 357.1 214.4C385.6 211.6 427.7 198.3 427.7 198.3C427.7 198.3 460.7 131.9 458.1 122.5Z" fill="#DD7F19"/>
<path d="M326.8 251.4C326.8 251.4 323.3 261.2 321.6 270.3C319.9 279.5 316.7 293.9 315.4 295.6C314.1 297.3 268.3 281.2 236 268.7C205.1 256.8 129.9 225.6 117.7 216.9C105.5 208.2 109 184.2 109.4 179.9C109.8 175.5 127.4 177.4 127.4 177.4C127.4 177.4 191.3 204.7 245.7 224.3C300.2 244 326.8 251.4 326.8 251.4Z" fill="#DD7F19"/>
<path d="M271 75.3999C271 75.3999 150.3 85.5999 139.3 89.4999C128.3 93.3999 125.8 107 125.4 116C125 125 125.1 163.2 125.1 163.2L103.7 156.3C103.7 156.3 102.7 99.2999 112.3 88.6999C119.5 80.5999 132.2 79.5999 161.7 78.0999C193.9 76.3999 271 75.3999 271 75.3999Z" fill="#DD7F19"/>
<path d="M268.8 39.2C270.2 38.8 271.3 40.4 270.2 42.1C269 43.8 268.2 43.9 268.2 43.9C268.2 43.9 269 47.4 265.5 51.3C262 55.2 257.5 57.6 255 59.8C252.5 62 251.6 61.6 250.6 64.6C249.6 67.6 250 70.2 247.1 74.7C244.3 79.2 243.7 80.5 237 80.9C230.3 81.3 227.2 78.3 224.7 79.7C222.2 81.1 221.5 67.4 221.5 67.4C221.5 67.4 233.5 59.1 238.6 54.5C243.6 49.8 254.5 42.2 256.7 41.6C258.9 41 259.4 40 262.1 39.9C263.9 39.7 266.9 39.7 268.8 39.2Z" fill="#F4B8B8"/>
<path d="M237.799 116.1C237.799 116.1 227.499 99.1998 211.299 80.3998C195.099 61.5998 178.399 46.5998 174.899 41.3998C171.399 36.1998 168.599 31.7998 168.599 31.7998L162.699 49.3998C162.699 49.3998 172.299 59.9998 177.699 68.3998C183.099 76.8998 192.499 94.0998 199.799 106.4C207.599 119.5 216.699 125 216.699 125L237.799 116.1Z" fill="#E8AAAA"/>
<path d="M180.399 58.9C180.399 58.9 174.799 66.5 170.299 65.3C165.799 64.1 164.299 56.4 161.399 52.3C158.499 48.2 151.299 44 148.799 41.6C146.299 39.1 142.799 30.3 142.799 30.3C142.799 30.3 136.199 27.1 135.499 23.5C135.099 21.3 135.499 20.1 138.899 19.9C140.799 19.8 144.099 17.5 147.199 17C150.299 16.6 154.399 17 159.899 20.9C165.499 24.8 168.199 27.9 170.199 33.1C172.299 38.3 178.699 50.6 178.699 50.6L180.399 58.9Z" fill="#E8AAAA"/>
<path d="M237.799 116.1C237.799 116.1 227.799 100.6 221.299 92.9999C214.799 85.3999 211.299 80.3999 211.299 80.3999L192.199 92.9999C192.199 92.9999 199.799 106.6 204.199 113.4C208.599 120.2 210.499 125.4 210.499 125.4L237.799 116.1Z" fill="#171744"/>
<path d="M227.3 79.4C227.3 79.4 215 88.8 209.8 96.3C204.6 103.9 195.3 116.4 188.4 124.4C181.5 132.4 175.4 137.2 175.4 137.2L129.6 151.3C129.6 151.3 131.5 141.8 143.4 127.7C155.3 113.6 178.3 96.3 189.2 89.1C198.3 83.1 211.1 74.2 214.6 71.4C218.1 68.6 225.5 64.5 225.5 64.5L227.2 76.1L227.3 79.4Z" fill="#F4B8B8"/>
<path d="M262.099 39.7998C262.099 39.7998 249.599 48.8998 244.999 52.6998C240.399 56.5998 232.099 64.7998 229.199 66.9998C226.299 69.1998 215.199 74.6998 208.699 78.5998C202.199 82.4998 186.999 96.8998 186.999 96.8998L182.199 93.7998C182.199 93.7998 210.699 72.7998 218.199 68.1998C225.699 63.5998 229.199 61.5998 232.699 58.4998C234.899 56.5998 252.299 43.0998 256.699 41.4998C260.999 39.8998 262.099 39.7998 262.099 39.7998Z" fill="#FFCFCF"/>
<path d="M321.499 79.7999C321.499 79.7999 319.599 82.7999 310.499 80.5999C301.299 78.3999 294.699 70.8999 289.499 70.3999C284.299 69.9999 280.999 76.0999 278.099 84.3999C275.299 92.6999 267.199 115.4 261.099 121.3C254.999 127.2 248.199 131.8 248.199 131.8C248.199 131.8 231.199 128.5 220.899 136.4C210.599 144.3 204.999 155.6 205.399 163.9C205.799 172.2 207.199 175.4 207.199 175.4C207.199 175.4 233.499 175 245.699 177.2C257.899 179.4 272.099 184.4 275.799 184.4C279.499 184.4 320.099 175.2 320.099 175.2C320.099 175.2 336.299 171.3 337.999 167.6C339.699 163.9 350.199 104.5 350.199 104.5L327.799 88.9999L321.499 79.7999Z" fill="#F4B8B8"/>
<path d="M315.2 123.2C315.2 123.2 319.6 130.9 318.5 138.8C317.4 146.7 312.1 153.3 312.1 153.3L323 156.9C323 156.9 327.9 148.2 324.7 137.6C321.5 127 315.2 123.2 315.2 123.2Z" fill="#D87979"/>
<path d="M324.1 146.9C324.1 146.9 314.6 147 306.3 141.8C298.5 137 296.2 131.1 297.1 127C298 122.9 303.4 110.1 303.9 96.2998C304.4 82.4998 303.2 76.6998 303.2 76.6998L299.8 75.2998C299.8 75.2998 302.1 88.7998 300.9 96.8998C299.8 105 297.7 114 294.6 120.8C291.4 127.6 285.3 128.8 283.2 128.7C275.5 128.1 269 123.5 269 123.5L263.6 118C263.6 118 257.2 125 255.4 126.8C253.6 128.6 248.8 131 248.8 131C248.8 131 231.3 131.7 222.8 142.5C214.2 153.3 217.2 168.9 217.2 171.1C217.2 173.4 218.6 175.2 218.6 175.2C218.6 175.2 246.8 177.5 254.7 179.3C262.6 181.1 278.8 182.5 284 180.7C289.2 178.9 319.2 174.4 324.6 172.8C330 171.2 331.4 166 331.4 166L324.1 146.9Z" fill="#6E60E3"/>
<path d="M328.4 106.5C328.4 106.5 325.8 106.5 324.6 105.6C323.4 104.7 321.1 101.8 321.1 101.8C321.1 101.8 320.6 111.4 322.8 112.3C325.1 113.2 328.8 108.8 328.8 108.8L328.4 106.5Z" fill="#E28282"/>
<path d="M296 108.2C296.4 112.3 294.2 119.2 289.9 124.7C285.6 130.1 279.6 132.9 279.6 132.9C279.6 132.9 284.3 107.2 288.3 103.5C292.3 99.7 295.7 106 296 108.2Z" fill="#ED9A9A"/>
<path d="M284.799 170.4C284.799 170.4 282.799 153.6 285.699 130.2C287.899 112.4 295.099 90.5 295.299 85C295.499 79.5 294.199 72 287.799 69.5C279.199 66.1 271.999 73 269.599 77.8C267.199 82.6 264.099 99.6 263.099 116.4C261.999 133.2 261.099 155.5 261.999 166.8C262.899 178.1 264.399 184.3 269.399 186.7C274.399 189.1 283.999 181 283.999 178.6C283.899 176.3 284.799 170.4 284.799 170.4Z" fill="#F4B8B8"/>
<path d="M194.3 98C190.2 93.6 186.6 93.6 183.7 92.5C171.8 101 148.1 119.2 137.9 131.2C126 145.3 126.3 151.4 126.3 151.4L175.5 137.3C175.5 137.3 181.6 132.5 188.5 124.5C191.7 120.7 196.5 115.1 200.1 110.3C199.7 107.4 198.5 102.5 194.3 98Z" fill="#1F1F59"/>
<path d="M324.4 69.3999C324.4 69.3999 323.1 73.2999 318.2 78.5999C313.3 83.8999 310.6 84.2999 310.6 84.2999C310.6 84.2999 317.3 102.6 323.4 106.9C329.5 111.2 336.8 106.6 336.8 106.6C336.8 106.6 344.9 95.5999 346.5 93.3999C348.1 91.2999 353.4 84.4999 353.4 84.4999C353.4 84.4999 341.9 80.8999 336.1 77.5999C330.3 74.2999 324.4 69.3999 324.4 69.3999Z" fill="#ED9A9A"/>
<path d="M263.799 119.6C263.099 119.4 257.599 113.4 246.299 114.1C234.999 114.8 232.799 117.1 226.999 116.4C221.299 115.7 215.699 113.1 204.499 116.9C193.299 120.6 187.199 126.6 182.399 138.6C177.699 150.6 179.699 164.5 179.899 167.5C180.099 170.5 181.099 172.7 181.099 172.7C181.099 172.7 194.599 174.8 200.099 175.3C204.099 175.6 209.599 175.8 209.599 175.8C209.599 175.8 209.299 160.2 214.199 150.2C220.899 136.2 227.499 134.2 236.899 132.5C244.899 131.1 248.999 131.2 248.999 131.2L254.699 127.5L263.799 119.6Z" fill="#2F2868"/>
<path d="M192.499 127.5C192.499 127.5 192.299 126.6 174.799 130.3C157.299 134 137.899 140.8 135.299 141.9C127.699 145.3 124.599 151.6 127.899 154.3C131.199 157.1 137.899 161.5 151.199 165.9C164.399 170.4 183.399 172.8 183.399 172.8L195.899 134.1L192.499 127.5Z" fill="#2F2868"/>
<path d="M324 71.5C324 71.5 326.5 88.7 330.8 93.7C335.1 98.7 342.2 96.9 342.2 96.9L346.2 89.5C346.2 89.5 337 87.7 334.3 84C331.6 80.3 324 71.5 324 71.5Z" fill="#D87979"/>
<path d="M372.9 30.8C372.9 30.8 372 38.5 371.3 42.6C370.6 46.7 368.4 51 367.9 53C367.4 55 366.3 58.4 366.3 61.2C366.3 64.1 366.3 66.5 361.8 73.1C357.3 79.7 351 84.5 348.7 86.4C347.3 87.6 345.9 90 342 89.5C338.1 89 329.2 83.6 326 75.9C322.8 68.2 321.3 61.9 321.5 56.7C321.7 51.5 322.4 45.4 323.8 41.1C325.2 36.8 331.9 20.3 346.6 20.1C361.3 19.9 367.7 23.9 369.5 24.8C371.3 25.8 372.9 30.8 372.9 30.8Z" fill="#F4B8B8"/>
<path d="M355.799 28.6999C355.799 28.6999 351.199 24.5999 343.499 24.0999C338.099 23.6999 332.399 26.6999 328.599 31.3999C324.799 36.0999 322.299 48.4999 321.799 53.9999C321.099 61.8999 323.999 71.3999 323.999 71.3999L320.999 75.5999C320.999 75.5999 308.699 67.2999 307.099 45.9999C305.899 30.1999 314.299 10.8999 324.299 5.29986C334.299 -0.400136 341.299 5.09988 341.299 5.09988L354.399 25.1999L355.799 28.6999Z" fill="#493245"/>
<path d="M345 52.3998C345 52.3998 342.4 53.8998 339.2 53.0998C336.1 52.2998 333.4 49.3998 332.9 49.0998C332.4 48.7998 332 47.7998 332 47.7998C332 47.7998 340 47.7998 341.9 49.0998C343.8 50.3998 345.2 51.5998 345.2 51.5998L345 52.3998Z" fill="#EFF0F8"/>
<path d="M348.099 43C348.099 43 347.299 45.4 345.499 44.7C343.699 44 338.599 41.4 334.599 40.9C330.599 40.4 329.299 40.2999 329.299 40.2999C329.299 40.2999 332.699 38 338.899 39C344.999 40 348.099 43 348.099 43Z" fill="#493245"/>
<path d="M341.3 5.09994C341.3 5.09994 350.2 -3.80008 362.4 4.29992C374.6 12.3999 378.5 17.5999 381.6 37.3999C384.7 57.0999 389.7 77.6999 390.5 84.0999C391.3 90.4999 389.1 98.2999 384.7 106.6C380.3 114.9 373.6 132.4 368.9 145.2C364.2 158 359.7 178 359.7 178C359.7 178 351.6 185.5 348.3 185.8C345 186.1 329.1 175.2 324.4 165.8C319.7 156.4 319.8 126.2 324.4 115C330.5 99.8999 349 87.5 354 82.2C359 76.9 365.6 69.0999 366.7 56.9999C367.9 43.5999 371.1 34.0999 368.6 30.8999C364.2 25.2999 355.8 28.7999 355.8 28.7999L341.3 5.09994Z" fill="#493245"/>
<path d="M343 51.1998C343 52.4998 341.9 53.5998 340.5 53.5998C339.1 53.5998 338 52.4998 338 51.1998C338 49.8998 339.1 48.7998 340.5 48.7998C341.9 48.8998 343 49.8998 343 51.1998Z" fill="#545F7A"/>
<path d="M342.199 51.9C342.199 52.7 341.599 53.3 340.699 53.3C339.799 53.3 339.199 52.7 339.199 51.9C339.199 51.1 339.799 50.5 340.699 50.5C341.599 50.5 342.199 51.1 342.199 51.9Z" fill="#151921"/>
<path d="M339.6 50.8999C339.6 51.3999 339.2 51.7999 338.6 51.7999C338.1 51.7999 337.6 51.3999 337.6 50.8999C337.6 50.3999 338 49.9999 338.6 49.9999C339.2 49.8999 339.6 50.3999 339.6 50.8999Z" fill="#EFF0F8"/>
<path d="M318.4 42.2999C317 42.6999 316.5 45.0999 316.2 46.8999C315.9 48.8999 316.2 50.1999 316.5 52.0999C316.7 54.0999 318 57.3999 319.6 58.5999C321.3 59.8999 321.5 58.3999 321.9 58.0999C322.1 57.8999 322.7 57.0999 322.8 56.7999C323.8 54.4999 324.4 50.2999 323.4 47.7999C321.8 43.7999 320.1 41.7999 318.4 42.2999Z" fill="#F4B8B8"/>
<path d="M345.8 21.2C345.8 21.2 336 22.2 332.5 24.7C329 27.2 325 33.2 325 33.2L326.9 26.4C326.9 26.4 322.5 23 320.3 20.5C318.1 18 317.1 14.8 317.1 14.8C317.1 14.8 319.4 9.50003 325.6 6.70003C330 4.70003 335.2 6.00002 335.2 6.00002C335.2 6.00002 339.5 9.20001 342.6 14.8C344.7 18.7 345.8 21.2 345.8 21.2Z" fill="#664662"/>
<path d="M348.4 6.49991C348.4 6.49991 356.2 11.9999 359.5 16.2999C362.8 20.5999 361 24.0999 361 24.0999C361 24.0999 369.8 22.8999 371.9 30.1999C373.1 34.4999 374.1 43.4999 374.1 43.4999C374.1 43.4999 376.7 32.0999 374.2 27.0999C371.7 21.9999 365.8 14.0999 361 9.8999C355.7 5.1999 351.9 3.8999 351.9 3.8999L348.4 6.49991Z" fill="#664662"/>
<path d="M344 6.2998C344 6.2998 351.9 14.9998 354.6 19.6998C357.3 24.3998 357.3 26.6998 357.3 26.6998L356 28.5998L354.3 27.2998C354.3 27.2998 351.9 19.1998 349 14.4998C346 9.79982 344 6.2998 344 6.2998Z" fill="#543C53"/>
<path d="M357.1 88.1C357.1 88.1 344.1 91 336 103.3C328 115.6 326.5 127.4 326.5 127.4C326.5 127.4 336.5 113.4 350.1 114C360.8 114.5 372.8 122.9 372.8 122.9C372.8 122.9 379.4 113 382.7 104.1C386 95.2 389.3 89.1 386 77.5C382.7 65.9 381.6 57 381.6 57C381.6 57 381.6 80.6 379.4 86C377.2 91.5 357.1 88.1 357.1 88.1Z" fill="#563E56"/>
<path d="M346.1 53.3998C346.1 53.3998 345.9 50.0998 341.7 48.2998C337.5 46.4998 332.9 46.1998 331.5 45.9998L330.1 45.7998C330.1 45.7998 331.6 48.4998 333 48.9998C334.4 49.3998 339.1 49.4998 342.3 51.1998C344.4 52.2998 346.1 53.3998 346.1 53.3998Z" fill="#352333"/>
<path d="M352.599 65.9999C352.599 67.2999 353.499 67.8999 352.399 68.4999C351.299 69.0999 349.699 68.3999 348.599 69.1999C347.199 70.1999 348.399 72.4999 347.699 74.0999C347.099 75.3999 345.499 75.9999 345.099 77.2999C344.999 77.6999 344.999 77.9999 344.999 78.3999C344.999 79.6999 344.399 80.2999 343.599 81.3999C343.299 81.6999 342.699 82.5999 342.699 82.5999C342.699 82.5999 343.699 85.4999 343.499 86.1999C343.099 87.9999 341.999 88.8999 340.799 89.4999C344.099 90.3999 345.599 89.9999 348.199 87.7999C351.199 85.1999 358.799 76.7999 359.999 75.4999C362.199 73.1999 364.599 69.8999 365.499 66.7999C365.999 64.9999 366.099 61.4999 366.299 59.6999C366.899 54.0999 367.699 51.8999 368.299 46.2999C364.399 46.0999 358.899 44.5999 356.299 48.3999C352.899 53.3999 352.599 60.2999 352.599 65.9999Z" fill="#E89A9A"/>
<path d="M349.2 67.1C348.4 66.9 347.9 66.4 347.5 65.9C346.8 64.9 346.5 64.9 345.8 65C344.4 65.2 343.7 65.9001 342.8 65.7001C342.7 65.7001 342.6 65.6001 342.5 65.7001C342.3 65.8001 342.4 66.0001 342.5 66.2001C343 67.1001 344.1 67.5001 345 67.2001C345.1 67.1001 345.3 67.1 345.4 67.1C345.5 67.1 345.6 67.2 345.7 67.3C346.2 67.8 346.6 68.2001 347.1 68.7001C347.4 69.0001 347.7 69.3 348.1 69.5C348.6 69.7 349 69.6 349.5 69.5C350.8 69.2 352 68.9 353.2 68.6C353.4 68.5 352.4 65.7 352.3 65.5C352.4 66.7 350.6 67.4 349.2 67.1Z" fill="#C17070"/>
<path d="M366.9 54.7998C366.9 54.7998 365.7 56.9998 362.6 56.9998C358 57.0998 354.9 54.7998 354.9 54.7998C354.9 54.7998 359.2 52.4998 362 52.6998C364.7 52.8998 366.8 53.6998 366.8 53.6998L366.9 54.7998Z" fill="#EFF0F8"/>
<path d="M368.8 47.7998C369.1 47.8998 364.8 46.7998 361.6 46.7998C359.3 46.7998 357.7 47.3998 357.2 46.8998C356.9 46.5998 356.9 45.1999 356.9 45.1999C356.9 45.1999 358.4 44.0999 361 44.0999C365.4 44.0999 368.3 45.3998 368.8 45.7998C369.2 46.2998 368.8 47.7998 368.8 47.7998Z" fill="#493245"/>
<path d="M364.1 55.1C364.1 56.3 363.1 57.3 361.8 57.3C360.5 57.3 359.5 56.3 359.5 55.1C359.5 53.9 360.5 52.9 361.8 52.9C363 52.8 364.1 53.8 364.1 55.1Z" fill="#545F7A"/>
<path d="M363.2 55.4999C363.2 56.1999 362.6 56.7999 361.8 56.7999C361 56.7999 360.4 56.1999 360.4 55.4999C360.4 54.7999 361 54.2 361.8 54.2C362.6 54.2 363.2 54.7999 363.2 55.4999Z" fill="#151921"/>
<path d="M360.799 54.8999C360.799 55.3999 360.399 55.7999 359.799 55.7999C359.299 55.7999 358.799 55.3999 358.799 54.8999C358.799 54.3999 359.199 53.9999 359.799 53.9999C360.399 53.8999 360.799 54.3999 360.799 54.8999Z" fill="#EFF0F8"/>
<path d="M333.3 170.3C333.3 170.3 324.7 171.7 305.8 168.9C290.9 166.7 281.6 165.4 277.3 167.5C273 169.6 267.1 177.3 266.4 179.2C265.6 181.2 265.2 183.7 269.4 186.7C273.6 189.7 292 189.4 303.7 188.2C315.4 187 332 183.1 332 183.1L333.3 170.3Z" fill="#F4B8B8"/>
<path d="M320.5 51.8999C320.5 52.3999 321 52.6999 321.1 53.0999C321.2 53.7999 320.5 54.2999 320.5 54.9999C320.5 55.1999 320.6 55.3999 320.5 55.5999C320.4 55.6999 320.3 55.7999 320.1 55.7999C319.3 55.8999 318.7 55.0999 318.4 54.3999C317.6 52.3999 317.5 50.0999 317.6 47.9999C317.6 47.4999 317.7 46.8999 318.1 46.4999C318.7 45.8999 319.8 46.1999 320.4 46.8999C320.9 47.5999 321 48.4999 321.1 49.2999C321.1 49.7999 321.4 50.5999 321.2 51.0999C321 51.3999 320.4 51.2999 320.5 51.8999Z" fill="#E89A9A"/>
<path d="M340.2 27C335.1 29.5 333.1 38.7 331.2 44.4C329.3 50.1 328.5 68.5 323.7 75.7C320.4 80.7 316.8 82.1 311.4 80.9C316.5 74.8 319.8 67.5 322 59.5C323 55.9 325.6 44.3 326.8 40.8C327.8 37.8 329.2 34.9 330.8 32.2C332.3 29.6 334.2 27.2 336.6 25.7C338.9 24.3 341.6 23.8 344.2 23.7C346.2 23.6 348.9 23.8 350.7 24.6C352.6 25.4 355.2 26.5 355.8 28.6C355.8 28.6 350 22.3 340.2 27Z" fill="#493245"/>
<path d="M249.099 131.2C249.099 131.2 242.199 137.5 240.399 146.1C238.599 154.8 240.699 171.6 240.699 171.6L242.799 177.9C242.799 177.9 234.399 176.6 227.499 176.3C220.699 176 218.499 175.3 218.499 175.3C218.499 175.3 212.599 160.8 220.199 147.1C227.699 133.5 249.099 131.2 249.099 131.2Z" fill="#5852DB"/>
<path d="M278.199 75.1C274.299 77.9 272.799 84.4001 270.999 91.2001C265.599 112.4 263.199 133.3 262.099 155.2C259.999 149 263.899 109.4 264.199 104.9C264.699 98.0001 266.199 89.1 267.999 82.4C268.499 80.5 270.099 77.2 270.999 75.4C272.599 72.3 276.999 69.4 280.399 68.6C286.699 67.2 299.999 75.4 299.999 75.4V77.4C299.899 77.4 285.599 69.8 278.199 75.1Z" fill="#FFD7D7"/>
<path d="M260.999 121.3C260.999 121.3 251.299 116 244.499 117.7C237.599 119.4 234.799 121.4 225.999 121.7C217.199 121.9 205.999 118.6 196.799 126.2C190.599 131.2 180.699 157.2 180.699 157.2C180.699 157.2 180.099 131.1 194.499 120.8C208.899 110.5 222.199 116.5 228.799 115.5C235.399 114.5 237.599 111.9 248.299 112.8C256.299 113.5 262.799 118.7 262.799 118.7L262.599 120" fill="#3C3C8E"/>
<g opacity="0.72">
<g opacity="0.72">
<path opacity="0.72" d="M234.3 145.3C234.3 145.3 236 157.4 237.8 163C239.7 168.6 244.3 177.7 244.3 177.7C244.2 177.9 228.8 176.5 223.9 176C220.7 175.6 218.1 173.5 218.1 173.5C218.1 173.5 220.2 155.4 224.8 148.9C229.4 142.4 232.9 143.6 232.9 143.6L234.3 145.3Z" fill="#6E60E3"/>
</g>
</g>
<path d="M311.399 165.9C301.899 165.5 295.299 163 291.699 159.9C284.999 154.2 284.799 146.2 284.799 146.2C284.799 146.2 284.699 157.8 284.499 160C284.299 162.2 285.099 166.4 285.099 166.4C285.099 166.4 304.299 169.2 310.999 169.9C317.799 170.6 327.599 170.7 327.599 170.7L324.199 165.2C324.099 165.2 319.299 166.2 311.399 165.9Z" fill="#4E40D3"/>
<path d="M321.299 48.9999C321.399 49.6999 321.199 50.4999 320.699 50.9999C320.599 51.0999 320.399 51.2999 320.299 51.4999C320.099 51.7999 320.299 52.1999 320.499 52.5999C320.699 52.9999 320.799 53.4999 320.899 53.9999C320.399 54.2999 319.799 54.1999 319.399 53.7999C318.999 53.3999 318.799 52.8999 318.699 52.2999C318.499 50.8999 319.199 49.2999 320.499 48.6999C320.599 48.6999 320.599 48.5999 320.699 48.5999C320.699 48.4999 320.699 48.4999 320.699 48.3999C320.599 47.7999 320.199 47.2999 319.599 47.0999C318.999 46.8999 318.399 46.7999 317.799 46.7999C318.399 46.3999 319.299 46.0999 319.899 46.4999C320.799 46.8999 321.199 47.8999 321.299 48.9999Z" fill="#C17070"/>
<path d="M373.699 67C373.899 69.9 374.799 74.8 373.999 77.6C372.499 82.7 367.199 83 362.399 85.2C357.499 87.3 354.099 88 349.599 90.7C341.599 95.4 333.799 102.5 329.299 108.1C331.999 102.4 338.099 95.3 342.899 91.2C347.999 86.8 357.399 79.7 360.299 76.2C363.399 72.5 365.399 67.9 365.799 63.1C366.199 58.3 366.599 53.2 367.299 48.5C367.799 44.9 368.899 41.1 370.799 38C370.999 48 372.899 57.1 373.699 67Z" fill="#3A2537"/>
<path d="M331.5 25.5998C329.9 26.7998 328.6 28.3998 327.3 29.8998C325.5 32.1998 322.1 38.5998 320.9 41.2998C321.5 32.8998 326 26.2998 329.6 22.6998C333.2 19.0998 338.5 16.9998 343.5 17.6998C343.7 17.6998 343.9 17.7998 344.1 17.8998C345.1 18.4998 346 21.3998 346 21.3998C346 21.3998 337.6 21.2998 331.5 25.5998Z" fill="#7C577A"/>
<path d="M324.199 141.5C324.199 121.9 331.399 107.6 338.199 100.2C344.899 92.8999 354.399 87.5999 364.199 86.0999C358.099 88.4999 352.199 94.2998 347.499 98.7998C341.899 104.1 339.499 106.7 335.199 113C325.399 127.4 326.199 137.7 324.199 141.5Z" fill="#664662"/>
<path d="M316.999 99.7C316.099 96.1 312.699 88.8999 312.099 87.5999C309.099 81.1999 306.099 79.4 303.299 77.2C303.499 77.4 303.899 80.7999 303.899 80.7999C303.899 80.7999 309.399 86.6 316.999 99.7Z" fill="#FCC5C5"/>
<path d="M304 132.7C304.8 135.2 306.7 137.3 309 138.5C309.9 139 311 139.1 312 138.9C313 138.7 314.4 137.9 315 137.2C317.3 133.9 317.4 130.2 316.9 127.8C316.3 125 313.6 119.1 311.1 117.8C310.4 117.5 309.7 117.3 309 117.6C302.6 120.1 303.2 130.1 304 132.7Z" fill="#FCC5C5"/>
<path d="M265.899 44.3998C265.699 45.0998 264.199 49.6998 263.699 50.2998C256.299 59.0998 245.199 58.1998 238.999 67.8998C241.599 67.6998 244.499 68.2998 245.299 70.1998C246.699 75.7998 243.699 77.4998 238.699 80.3998C241.699 80.1998 244.399 78.5998 246.299 76.2998C248.199 73.9998 249.299 71.0998 249.999 68.1998C250.499 65.8998 250.899 63.3998 252.299 61.4998C253.099 60.4998 254.199 59.6998 255.299 58.9998C260.699 55.2998 266.299 52.5998 267.999 46.2998C268.199 45.5998 268.599 43.9998 268.999 43.3998C269.499 42.6998 270.799 41.3998 270.699 40.2998C270.599 39.1998 269.099 38.6998 268.199 38.9998C266.099 39.4998 266.299 42.6998 265.899 44.3998Z" fill="#ED9A9A"/>
<path d="M264 44.6C265.3 45 266.5 45.8 267.2 46.9C267.7 45.1 267.7 43.3 267.4 41.5C267.3 41 267.1 40.5 266.6 40.5C266.3 40.5 266.1 40.8 265.9 41L263.9 43.5C264 42.9 263.3 42.5 262.8 42.5C262.2 42.5 261.7 42.9 261.2 43.2C259.6 44 257.6 44 256.4 45.3C256.9 44.7 259.3 44.6 260.1 44.5C261.5 44.3 262.8 44.3 264 44.6Z" fill="#ED9A9A"/>
<path d="M175.8 56.4999C174.9 57.8999 173.2 58.8999 171.6 58.4999C169.5 57.8999 168.9 55.2999 168 53.3999C166.6 50.4999 163.8 48.3999 162.6 45.3999C161 41.2999 162.9 36.2999 160.9 32.3999C160.6 31.7999 159.9 31.0999 159.3 31.3999C159 31.5999 158.8 31.8999 158.6 32.2999C157.8 34.0999 156.6 35.6999 155.2 36.9999C154.6 37.4999 153.9 37.9999 153.2 37.9999C152.5 37.9999 151.8 37.4999 151.3 36.9999C149.2 34.9999 147.7 32.3999 147 29.6999C143.2 27.7999 140.1 24.6999 138.1 20.8999C136.9 25.3999 140.2 29.8999 144.1 32.4999C145 33.0999 146 33.6999 146.5 34.5999C147 35.3999 147.1 36.3999 147.3 37.3999C148.4 42.6999 153.5 46.0999 158.3 48.8999C163.8 52.0999 164.8 60.5999 168.3 63.5999C170.7 65.5999 174.6 65.3999 177 63.4999C179.5 61.5999 180.6 58.1999 180.3 55.0999C180.1 51.9999 178.6 49.0999 176.7 46.5999C177.9 49.3999 177.5 53.6999 175.8 56.4999Z" fill="#E58F8F"/>
<path d="M195 84.2998C195 84.2998 185 70.1998 182.3 66.8998C179.6 63.4998 178.1 61.7998 178.1 61.7998L174.6 63.7998C174.6 63.7998 183.6 78.2998 186 82.7998C188.4 87.2998 188.8 88.0998 188.8 88.0998L195 84.2998Z" fill="#DD8585"/>
<path d="M225.999 73.7999C219.799 80.9999 213.299 88.7999 209.199 97.3999C214.299 91.1999 227.099 79.2999 227.399 79.2999C227.899 79.2999 228.399 79.5999 228.899 79.8999C231.199 81.4999 237.599 83.7999 244.199 81.1999C246.999 80.0999 248.399 76.7999 248.899 73.7999C249.299 70.7999 248.899 67.7999 248.299 64.8999C248.399 68.7999 246.299 76.3999 242.199 77.9999C236.099 80.4999 230.599 77.0999 225.999 73.7999Z" fill="#ED9A9A"/>
<path d="M366.6 54.9998C365.3 54.7998 363.4 54.3998 360.6 54.3998C357.4 54.3998 354.4 56.0998 354.4 56.0998C354.4 56.0998 355.8 52.5998 360.2 52.1998C364.1 51.7998 365.7 52.5998 367.1 52.9998C368.3 53.2998 369.9 53.8998 369.9 53.8998C369.9 53.8998 367.9 55.0998 366.6 54.9998Z" fill="#352333"/>
<path d="M344.9 48.9998C344.9 48.9998 343.5 47.1998 340.6 46.1998C337.7 45.2998 334.9 45.1998 334.9 45.1998C334.9 45.1998 339.2 44.0998 342.1 45.2998C345 46.4998 346.5 50.4998 346.5 50.4998L344.9 48.9998Z" fill="#D87979"/>
<path d="M365.999 51.5C365.999 51.5 363.099 50.5 360.599 50.8C358.099 51.1 356.299 52.3 356.299 52.3C356.299 52.3 358.799 49.8001 361.699 49.7001C364.599 49.6001 366.599 51.2001 366.599 51.2001L365.999 51.5Z" fill="#C17070"/>
<path d="M352.099 74.9998C352.099 74.9998 351.799 77.2998 351.099 77.7998C350.399 78.2998 347.299 79.0998 345.299 78.7998C343.399 78.4998 339.399 75.7998 339.399 75.7998L337.099 72.2998L336.299 69.5999L341.299 71.4998L349.099 73.7998L351.199 74.4998L352.099 74.9998Z" fill="#4C1B31"/>
<path d="M352.9 74.7C352.9 74.7 352.2 75.4999 351.4 75.8999C350.5 76.3999 348.1 77.0999 345 76.0999C341.9 75.1999 338.3 72.4 337.7 71.2C337.1 70 336.9 69.2 336.9 69.2L348 72.4999L352.9 74.7Z" fill="#EFF0F8"/>
<path d="M355 74.6999C355 74.6999 352.2 73.5998 350.7 72.8998C349.2 72.0998 346 70.8998 342.4 70.3998C338.8 69.8998 337.2 68.8998 336.1 68.3998C335.4 68.0998 334.4 67.5999 334.4 67.5999C334.4 67.5999 335.3 70.2998 340.8 72.9998C346.3 75.6998 350.7 75.3999 352.4 75.5999C354.1 75.5999 355 74.6999 355 74.6999Z" fill="#82304E"/>
<path d="M352.2 75.4C352.2 75.4 350.1 77.8 348.5 78.3C347.9 78.5 345.9 78.8 343.1 77.7C340.2 76.5 338.8 74.3 338.1 73.3C337.5 72.3 336.6 70.4 336.6 70.4L335.5 69C335.5 69 335.5 76 340.1 80C344.7 84 349.4 81.4 350.1 80.6C351.2 79.5 352.8 75.6 352.8 75.6L352.2 75.4Z" fill="#C13E7A"/>
<path d="M395.7 118.1C395.7 118.1 392.2 113.2 390.4 102.9C389.8 99.6 388.1 87.5 388 85.2C388 84.4 386.6 81.7 385.6 80.5C384.8 79.6 384.5 78.6 384.3 78.5C383 77.5 382.6 77.2 381.7 77.3C380.7 77.4 379.7 78.2 379.7 78.2C379.7 78.2 377.4 76.9 376.3 77.2C375.5 77.4 373.8 78.8 373.8 78.8C373.8 78.8 371.2 78.2 370.1 78.7C369.5 79 368.7 80.4 368 80.6C366.9 80.9 366.2 80.5 365.7 80.9C363.2 82.8 362.5 86.2 361.9 90.8C361.3 95.4 360 100.4 360 100.4C360 100.4 362.9 100.6 364 98.0999C365.1 95.5999 366.5 90.9 366.5 90.9C366.5 90.9 368.2 98.8 370.5 104.5C372.8 110.2 376.4 112.3 378.2 115.8C380 119.3 380.5 122.6 380.5 122.6L395.7 118.1Z" fill="#F4B8B8"/>
<path d="M387.6 83.5999C387.6 83.5999 379.5 84.0999 373.7 86.4999C367.8 88.8999 366.2 91.2999 366.2 91.2999C366.2 91.2999 364.7 96.8999 364.2 97.9999C363.7 99.0999 363.1 99.5999 361.9 100.2C360.8 100.8 359.9 100.1 359.9 100.1C359.9 100.1 361.5 92.6999 361.7 89.9999C361.9 87.2999 362.3 83.6999 363.5 82.1999C365.1 80.2999 366.2 80.1999 368.1 80.2999C369.2 80.3999 368.4 79.0999 370.4 78.3999C372.4 77.6999 373.7 78.5999 373.7 78.5999C373.7 78.5999 374 77.5999 376.2 77.1999C378.5 76.6999 379 77.4999 379 77.4999C379 77.4999 380.6 75.5999 382.4 76.5999C383.2 76.9999 385 78.8999 385.7 80.2999C386.6 81.7999 387.6 83.5999 387.6 83.5999Z" fill="#ED9A9A"/>
<path d="M366.499 91.1999C366.499 91.1999 364.399 85.1999 364.099 85.0999C363.799 84.9999 362.299 95.0998 361.999 96.7998C361.699 98.4998 361.199 99.9999 361.199 99.9999C361.199 99.9999 363.999 100.5 364.899 96.5998C365.799 92.6998 366.499 91.2998 366.499 91.2998" fill="#D87979"/>
<path d="M371.999 87.1999C371.999 87.1999 370.099 83.5999 368.899 82.0999C367.999 80.8999 367.699 80.4999 367.699 80.4999C367.699 80.4999 369.699 79.3999 371.199 81.4999C372.699 83.5999 371.999 87.1999 371.999 87.1999Z" fill="#D87979"/>
<path d="M377.5 85.3C377.5 85.3 375.9 81.2 374.9 80.2C373.8 79.2 373.5 78.9 373.5 78.9C373.5 78.9 375.5 77.8 377 79.8C378.4 81.8 377.5 85.3 377.5 85.3Z" fill="#D87979"/>
<path d="M383.6 83.6999C383.6 83.6999 382 81.3999 380.7 79.6999C379.8 78.4999 378.9 77.3999 378.9 77.3999C378.9 77.3999 380.6 76.6999 382.3 78.5999C384 80.3999 383.6 83.6999 383.6 83.6999Z" fill="#D87979"/>
<path d="M324.099 50.8C323.499 59.3 321.799 60 319.199 59.9C315.799 59.8 314.299 55.6 314.299 50.6C314.299 45.6 316.499 41.2 321.899 41.7C323.499 41.7 324.499 45.7 324.099 50.8Z" fill="#1E141D"/>
<path d="M369.3 52.5C369.3 52.5 371.8 54 371.5 58.6C371.3 63.2 369.8 64.7 368.4 65.3C367 65.9 366.1 65.9 366.1 65.9C366.1 65.9 367.1 58.7 367.3 56.4C367.5 54 369.3 52.5 369.3 52.5Z" fill="#1E141D"/>
<path d="M370.699 19.3C366.799 14.3 354.699 10.4 348.499 10.3C338.599 10.2 330.599 14.7 327.799 17.2C319.499 24.6 315.299 40.4 319.599 47.2" stroke="#1E141D" stroke-width="1.8" stroke-miterlimit="10" stroke-linecap="round" stroke-linejoin="round"/>
<path d="M318.499 53.7998C318.299 54.5998 318.099 55.3998 317.599 55.8998C317.099 56.4998 316.099 56.5999 315.499 56.0999C315.299 55.8999 315.099 55.5998 314.999 55.3998C313.499 52.0998 313.599 48.1999 315.199 44.9999C315.499 44.3999 315.899 43.7999 316.499 43.4999C319.599 42.3999 318.799 52.3998 318.499 53.7998Z" fill="#2D2638"/>
<path d="M325.999 207L284.599 193.2C284.599 193.2 281.699 188.8 288.699 187.3C295.699 185.8 390.399 172.9 390.399 172.9L409.099 180.8L416.999 189L418.099 193.3L336.099 206.1L325.999 207Z" fill="#A8BACC"/>
<path d="M344.2 186.8L308 193.4L340.1 202.7L354.4 192.2L344.2 186.8Z" fill="#4B607F"/>
<path d="M449.4 122.3C449.4 122.3 451.8 116 443.9 115C436.1 114 355.5 118.7 355.5 118.7C355.5 118.7 347.4 117.9 343.4 130C339.9 140.7 322.7 202.5 322.7 202.5C322.7 202.5 321.3 207.9 331.9 206.9C340.5 206.1 401.6 196.9 422.4 193.8C426.9 193.1 430.6 189.8 431.9 185.4L445.4 137.6L449.4 122.3Z" fill="#B6C5D8"/>
<path d="M400.199 160.3C398.999 165.2 395.299 168.5 391.899 167.7C388.499 166.9 386.699 162.3 387.899 157.4C389.099 152.5 392.799 149.2 396.199 150C399.599 150.7 401.399 155.4 400.199 160.3Z" fill="#EFF0F8"/>
<path d="M470.099 101.7C470.099 101.7 456.199 139.6 446.199 162.2C436.199 184.7 433.499 179.5 390.299 188C354.899 195 331.999 196.7 321.999 208.5C311.999 220.4 300.299 292.4 300.299 292.4C300.299 292.4 306.499 296.9 320.899 298.7C335.299 300.6 344.999 297.4 344.999 297.4C344.999 297.4 350.699 234.9 366.399 226.2C381.999 217.4 430.099 212.7 448.299 197.7C466.399 182.7 469.899 149.3 470.499 110.2C470.499 107.1 470.099 101.7 470.099 101.7Z" fill="#FFBB43"/>
<path d="M435.398 178.3L458.098 186.2C458.098 186.2 464.798 176.6 468.198 163.7C472.798 146.2 469.998 101.6 469.998 101.6C469.998 101.6 457.398 132.8 451.498 145.9C445.798 159 435.398 178.3 435.398 178.3Z" fill="#EA881C"/>
<g opacity="0.8">
<g opacity="0.8">
<path opacity="0.8" d="M243.6 248C243.6 264.3 192.2 277.5 128.8 277.5C65.4 277.5 14 264.3 14 248C14 231.7 65.4 218.5 128.8 218.5C192.2 218.5 243.6 231.7 243.6 248Z" fill="#89C9F4"/>
</g>
</g>
<path d="M170.801 280.9C170.801 280.9 160.301 293 158.401 299.9C156.401 306.8 157.301 308.3 157.301 308.3C157.301 308.3 143.701 308.6 134.801 308.1C124.701 307.4 117.001 306.1 117.001 306.1C117.001 306.1 117.901 304.1 115.001 297.3C112.101 290.4 99.8008 281.4 99.8008 281.4H145.001L170.801 280.9Z" fill="#8B6DA8"/>
<path d="M243.699 247.1C243.699 247.4 243.799 247.7 243.799 248C243.799 264.3 192.399 277.5 128.999 277.5C68.4992 277.5 18.9992 265.5 14.4992 250.2C14.1992 251.8 14.1992 253.6 14.1992 255.3C14.8992 271.6 66.3992 285 129.799 285C193.199 285 244.599 271.8 244.599 255.5C244.599 253 244.599 250 243.699 247.1Z" fill="#85A6D6"/>
<g opacity="0.61">
<g opacity="0.61">
<path opacity="0.61" d="M176.799 274.2L81.7992 221.8L70.6992 222.8L135.599 277.6C135.599 277.6 143.699 278 158.499 276.6C173.199 275.1 176.799 274.2 176.799 274.2Z" fill="#C7EBFF"/>
</g>
</g>
<path d="M104.601 219.7L99.8008 220L186.901 273C186.901 273 200.101 271.9 205.301 270.4C206.401 270.1 207.301 269.8 208.301 269.5C191.701 261.7 118.301 226.8 104.601 219.7Z" fill="#C7EBFF"/>
<path d="M166.9 237.8L184 250.2C184 250.2 188.4 254.1 184.8 255.4C181.9 256.4 105.1 255.4 90.7996 255.1C89.3996 255.1 88.1996 255.3 88.0996 254.1C88.0996 253.5 88.0996 251.7 88.1996 251.1C88.4996 249.4 94.9996 240.5 94.9996 240.5C94.9996 240.5 97.2996 236.4 98.7996 235.7C99.7996 235.3 102.8 235.2 104.7 235.2C111.6 235.3 157.4 235.3 157.4 235.3C157.4 235.3 161.5 235.2 163.9 236.1C165.1 236.6 166.9 237.8 166.9 237.8Z" fill="#2B315B"/>
<path d="M170.701 250.7L155.801 237L103.201 236.9L97.8008 250L170.701 250.7Z" fill="#F2A139"/>
<path d="M89.6992 255.8H184.799C185.599 255.8 186.299 255.1 186.299 254.3C186.299 253.5 185.599 252.8 184.799 252.8H89.6992C88.8992 252.8 88.1992 253.5 88.1992 254.3C88.1992 255.1 88.7992 255.8 89.6992 255.8Z" fill="#171C35"/>
<path d="M172.3 242.6C172.3 243.4 170.3 244 167.9 244C165.5 244 163.5 243.4 163.5 242.6C163.5 241.8 165.5 241.2 167.9 241.2C170.3 241.2 172.3 241.8 172.3 242.6Z" fill="#465487"/>
<path d="M125.099 238.4L125.999 247.7C126.099 248.3 125.599 248.7 124.999 248.7L110.599 248.5C109.999 248.5 109.499 247.9 109.699 247.2L112.799 238.1C112.899 237.7 113.299 237.5 113.699 237.5H124.099C124.699 237.6 125.099 237.9 125.099 238.4Z" fill="#EFF0F4"/>
<path d="M116.7 237.5H113.6C113.2 237.5 112.8 237.8 112.7 238.1L109.6 247.2C109.4 247.8 109.8 248.4 110.5 248.5H114.3L116.7 237.5Z" fill="#68BA08"/>
<path d="M163.3 247.1L159.1 247.2L160.7 249.3L165.3 249L163.3 247.1Z" fill="#EFF0F4"/>
<path d="M160.599 244.4H156.699L158.199 246.2L162.599 245.9L160.599 244.4Z" fill="#6998ED"/>
<path d="M157.9 241.3L153.9 241.4L155.4 243.1L159.8 242.9L157.9 241.3Z" fill="#68AA8B"/>
<path d="M155.5 238.3H151.6L153.1 240.1L157.5 239.8L155.5 238.3Z" fill="#AD6149"/>
<path d="M183 243.7L200.9 243.4" stroke="#EFF0F4" stroke-width="2" stroke-miterlimit="10" stroke-linecap="round" stroke-linejoin="round"/>
<path d="M70.4004 241.7L88.3004 241.4" stroke="#EFF0F4" stroke-width="2" stroke-miterlimit="10" stroke-linecap="round" stroke-linejoin="round"/>
<path d="M170.699 229.7L181.899 217.6" stroke="#EFF0F4" stroke-width="2" stroke-miterlimit="10" stroke-linecap="round" stroke-linejoin="round"/>
<path d="M96.6996 232.5L87.5996 218.7" stroke="#EFF0F4" stroke-width="2" stroke-miterlimit="10" stroke-linecap="round" stroke-linejoin="round"/>
<path d="M150 224.1L151.8 207.7" stroke="#EFF0F4" stroke-width="2" stroke-miterlimit="10" stroke-linecap="round" stroke-linejoin="round"/>
<path d="M114.501 223.8L109.801 208" stroke="#EFF0F4" stroke-width="2" stroke-miterlimit="10" stroke-linecap="round" stroke-linejoin="round"/>
<path d="M136.1 189.6H22.8996C13.5996 189.6 6.09961 182.1 6.09961 172.8V102.4C6.09961 93.1001 13.5996 85.6001 22.8996 85.6001H136.1C145.4 85.6001 152.9 93.1001 152.9 102.4V172.8C152.9 182.1 145.4 189.6 136.1 189.6Z" fill="#EFF0F4"/>
<path d="M135.699 85.5H23.2992C13.7992 85.5 6.19922 92.8 6.19922 101.9V118.4H152.899V101.9C152.799 92.8 145.199 85.5 135.699 85.5Z" fill="#68BA08"/>
<path d="M130.1 181L135.1 241.7L99.4004 183.9L130.1 181Z" fill="#EFF0F4"/>
<path d="M49.7996 113.8H24.2996C22.1996 113.8 20.5996 112.1 20.5996 110.1V94.5999C20.5996 92.4999 22.2996 90.8999 24.2996 90.8999H49.7996C51.8996 90.8999 53.4996 92.5999 53.4996 94.5999V110.1C53.4996 112.1 51.7996 113.8 49.7996 113.8Z" fill="#EFF0F4"/>
<path d="M54.7988 93.7L39.2988 102.8C37.9988 103.5 36.4988 103.6 35.1988 102.8L19.7988 94.2" stroke="#68BA08" stroke-width="3.138" stroke-miterlimit="10"/>
<path d="M136.899 106.7H64.4992C62.3992 106.7 60.6992 105 60.6992 102.9V101.4C60.6992 99.3001 62.3992 97.6001 64.4992 97.6001H136.899C138.999 97.6001 140.699 99.3001 140.699 101.4V102.9C140.699 105 138.999 106.7 136.899 106.7Z" fill="#B0DD6F"/>
<path d="M50.7996 176.5L71.3996 134.1L48.4996 122.6L28.0996 164.7L50.7996 176.5Z" fill="#B5D375"/>
<path d="M50.1992 172.9L68.9992 135L49.2992 125.3L30.6992 162.9L50.1992 172.9Z" fill="#7D8E54"/>
<path d="M50 167.9L64.8 138.1L49.9 130.8L35 160.6L50 167.9Z" fill="#B5D375"/>
<path d="M60.6988 137.8C60.7988 137.2 61.0988 136.6 60.8988 136C60.6988 135.4 60.0988 135 59.4988 134.7C58.6988 134.3 57.8988 133.9 56.9988 133.5C56.3988 133.3 55.7988 133 55.1988 133.1C54.0988 133.2 53.1988 134.2 52.2988 134.9C50.9988 135.9 49.2988 136.4 47.5988 136.2C47.2988 136.2 46.8988 136 46.7988 135.7C46.7988 135.5 46.7988 135.4 46.8988 135.3C48.1988 132.5 49.1988 129.7 50.0988 126.8C53.3988 129.6 57.0988 131.6 61.2988 132.6C63.3988 133.1 65.1988 134.9 66.8988 136.2C65.6988 140.3 64.8988 142.2 62.4988 145.8C62.1988 145 62.7988 144.3 62.5988 143.7C62.4988 143.2 61.4988 142.5 61.1988 142.1C60.6988 140.8 60.3988 139.2 60.6988 137.8Z" fill="#7D8E54"/>
<path d="M40.0992 159.6C39.9992 160.2 39.6992 160.8 39.8992 161.4C40.0992 162 40.3992 163.3 40.8992 163.6C41.6992 164 42.4992 164.2 43.2992 164.6C43.8992 164.9 44.7992 165.1 45.3992 165.1C46.4992 165 47.3992 163.4 48.2992 162.7C49.5992 161.7 51.2992 161.3 52.9992 161.4C53.2992 161.4 53.6992 161.6 53.7992 161.9C53.7992 162.1 53.7992 162.2 53.6992 162.3C52.3992 165 51.2992 167.9 50.3992 170.8C47.1992 167.9 42.8992 166.7 38.6992 165.7C36.5992 165.2 34.3992 164.6 32.6992 163.2C33.8992 159.1 35.7992 155.1 38.1992 151.6C38.4992 152.4 37.8992 153.1 38.0992 153.7C38.1992 154.2 39.1992 154.9 39.4992 155.4C40.1992 156.6 40.4992 158.2 40.0992 159.6Z" fill="#7D8E54"/>
<path d="M45.2004 145.7C43.8004 148.2 45.8004 151.9 49.5004 154C53.2004 156.1 57.5004 155.8 58.9004 153.4C60.3004 150.9 58.3004 147.2 54.6004 145.1C50.8004 143 46.6004 143.3 45.2004 145.7Z" fill="#7D8E54"/>
<path d="M50.3995 150.5C50.2995 150.3 50.1995 150.1 50.0995 149.9C49.9995 149.8 49.7995 149.8 49.5995 149.7C49.0995 149.6 48.5995 149.4 48.1995 149.1C47.7995 148.8 47.4995 148.3 47.5995 147.8C47.6995 147.3 48.0995 146.9 48.4995 146.7C48.9995 146.5 49.4995 146.5 49.9995 146.5C50.6995 146.5 51.3995 146.7 51.9995 147.1C52.5995 147.5 52.9995 148.2 52.8995 148.9C53.3995 149.4 54.2995 149.1 55.0995 149.4C55.7995 149.6 56.3995 150.2 56.9995 150.6C57.2995 150.8 58.4995 151.1 58.5995 151.5C58.7995 152 57.5995 151.9 57.1995 152C56.0995 152.1 54.8995 152.2 53.6995 152.3C52.8995 152.3 52.6995 151.9 51.9995 151.6C51.3995 151.1 50.6995 151 50.3995 150.5Z" fill="#96A568"/>
<path d="M49.9991 151.5C49.6991 151.6 49.3991 151.7 49.1991 151.9C49.0991 152 49.0991 152.1 48.9991 152.2C48.6991 152.5 48.2991 152.2 47.9991 152C47.3991 151.5 46.7991 150.9 46.9991 150.2C46.9991 150.1 47.0991 150 47.0991 149.9C47.0991 149.8 46.9991 149.7 46.8991 149.6C46.2991 148.7 46.6991 147.3 47.6991 146.8C48.1991 146.6 48.6991 146.5 49.1991 146.3C49.5991 146.1 49.8991 145.8 50.2991 145.6C50.6991 145.4 51.1991 145.3 51.5991 145.5C51.7991 145.6 51.8991 145.9 51.9991 146.2C52.0991 146.5 52.0991 146.8 52.0991 147.1C52.0991 147.2 52.0991 147.3 51.9991 147.3C51.8991 147.4 51.7991 147.3 51.6991 147.2C50.9991 146.9 50.2991 146.9 49.4991 146.9C49.0991 146.9 48.5991 147 48.1991 147.1C47.7991 147.3 47.3991 147.6 47.3991 148C47.2991 148.7 47.7991 149.3 48.3991 149.7C48.8991 150.1 49.4991 150.3 50.0991 150.7C50.3991 150.9 50.5991 151.2 49.9991 151.5Z" fill="#A3B772"/>
<path d="M56.3005 141.4C55.7005 142.3 54.5004 142.4 53.6004 141.8C52.7004 141.2 52.6004 139.9 53.2004 139.1C53.8004 138.2 55.0005 138.1 55.9005 138.7C56.7005 139.3 56.9005 140.5 56.3005 141.4Z" fill="#8ECC69"/>
<path d="M47.0993 158.9C46.4993 159.8 45.2993 159.9 44.3993 159.3C43.4993 158.7 43.3993 157.4 43.9993 156.6C44.5993 155.7 45.7993 155.6 46.6993 156.2C47.5993 156.8 47.7993 158 47.0993 158.9Z" fill="#96A568"/>
<path d="M47.3996 179.7L60.6996 134.4L36.2996 126.9L23.0996 171.7L47.3996 179.7Z" fill="#B5D375"/>
<path d="M46.1988 176.2L58.4988 135.7L37.4988 129.4L25.2988 169.5L46.1988 176.2Z" fill="#7D8E54"/>
<path d="M45.1992 171.3L54.8992 139.4L38.9992 134.7L29.1992 166.6L45.1992 171.3Z" fill="#B5D375"/>
<path d="M50.8004 139.8C50.8004 139.2 51.0004 138.5 50.7004 138C50.4004 137.4 49.7004 137.2 49.1004 136.9C48.2004 136.6 47.4004 136.4 46.5004 136.1C45.9004 136 45.3004 135.8 44.7004 136C43.6004 136.3 42.9004 137.4 42.1004 138.2C41.0004 139.4 39.4004 140.2 37.7004 140.3C37.4004 140.3 37.0004 140.3 36.9004 139.9C36.9004 139.8 36.9004 139.6 36.9004 139.4C37.7004 136.5 38.3004 133.5 38.7004 130.5C42.4004 132.8 46.4004 134.1 50.7004 134.4C52.9004 134.5 54.9004 136 56.8004 137C56.3004 141.3 55.8004 143.3 54.1004 147.2C53.7004 146.5 54.1004 145.7 53.9004 145.1C53.7004 144.7 52.6004 144.1 52.2004 143.7C51.2004 142.8 50.7004 141.3 50.8004 139.8Z" fill="#7D8E54"/>
<path d="M33.9988 164.7C33.9988 165.3 33.7988 166 34.0988 166.5C34.3988 167.1 34.8988 168.3 35.4988 168.5C36.3988 168.8 37.0988 168.8 37.9988 169.1C38.5988 169.3 39.5988 169.4 40.1988 169.2C41.2988 168.9 41.8988 167.2 42.6988 166.3C43.7988 165.1 45.4988 164.4 47.0988 164.3C47.3988 164.3 47.7988 164.4 47.8988 164.7C47.8988 164.8 47.8988 165 47.8988 165.2C47.0988 168.1 46.3988 171.1 45.9988 174.1C42.3988 171.8 37.8988 171.3 33.5988 171C31.3988 170.8 29.1988 170.7 27.2988 169.6C27.7988 165.3 28.9988 161.1 30.8988 157.3C31.2988 158 30.7988 158.8 31.0988 159.4C31.2988 159.9 32.3988 160.4 32.7988 160.8C33.5988 161.7 34.1988 163.2 33.9988 164.7Z" fill="#7D8E54"/>
<path d="M36.8003 150.2C35.8003 152.9 38.4003 156.2 42.5003 157.7C46.6003 159.2 50.7003 158.2 51.7003 155.5C52.7003 152.8 50.1003 149.5 46.0003 148C41.9003 146.6 37.8003 147.5 36.8003 150.2Z" fill="#7D8E54"/>
<path d="M42.7 154C42.6 153.8 42.5 153.6 42.3 153.5C42.2 153.4 42 153.4 41.8 153.4C41.3 153.4 40.8 153.3 40.3 153C39.9 152.7 39.5 152.3 39.5 151.8C39.5 151.3 39.8 150.9 40.2 150.6C40.6 150.3 41.1 150.2 41.6 150.2C42.3 150.1 43 150.1 43.6 150.4C44.2 150.7 44.8 151.3 44.8 152C45.4 152.4 46.3 152 47 152.1C47.7 152.2 48.4 152.7 49.1 152.9C49.4 153 50.7 153.2 50.8 153.5C51.1 153.9 49.9 154.1 49.5 154.2C48.4 154.5 47.3 154.8 46.1 155C45.3 155.2 45 154.7 44.3 154.5C43.8 154.4 43.1 154.5 42.7 154Z" fill="#96A568"/>
<path d="M42.4004 155.1C42.2004 155.3 41.9004 155.4 41.7004 155.7C41.6004 155.8 41.6004 155.9 41.5004 156C41.3004 156.3 40.8004 156.2 40.5004 156C39.9004 155.6 39.2004 155.1 39.2004 154.3C39.2004 154.2 39.2004 154.1 39.2004 154C39.2004 153.9 39.1004 153.8 39.0004 153.7C38.3004 152.9 38.4004 151.5 39.3004 150.8C39.7004 150.5 40.3004 150.4 40.7004 150.1C41.1004 149.8 41.3004 149.5 41.7004 149.2C42.0004 148.9 42.5004 148.7 42.9004 148.9C43.1004 149 43.3004 149.2 43.4004 149.5C43.5004 149.8 43.6004 150 43.6004 150.3C43.6004 150.4 43.6004 150.5 43.5004 150.6C43.4004 150.7 43.3004 150.6 43.2004 150.6C42.5004 150.4 41.7004 150.5 41.0004 150.7C40.6004 150.8 40.1004 150.9 39.8004 151.1C39.4004 151.3 39.1004 151.7 39.1004 152.1C39.1004 152.8 39.7004 153.3 40.3004 153.6C40.9004 153.9 41.5004 154.1 42.1004 154.3C42.7004 154.4 43.0004 154.7 42.4004 155.1Z" fill="#A3B772"/>
<path d="M46.9987 144.1C46.4987 145 45.2987 145.4 44.3987 144.9C43.4987 144.4 43.0987 143.2 43.5987 142.3C44.0987 141.4 45.2987 141 46.1987 141.5C47.0987 142 47.4987 143.1 46.9987 144.1Z" fill="#8ECC69"/>
<path d="M40.8991 162.9C40.3991 163.8 39.1991 164.2 38.2991 163.7C37.3991 163.2 36.9991 162 37.4991 161.1C37.9991 160.2 39.1991 159.8 40.0991 160.3C40.9991 160.8 41.3991 161.9 40.8991 162.9Z" fill="#96A568"/>
<path d="M48.6 173.6L34.9 127L9.5 134.1L23 180.2L48.6 173.6Z" fill="#B5D375"/>
<path d="M45.7 171.2L33.8 129.3L12 135.6L23.8 177.1L45.7 171.2Z" fill="#7D8E54"/>
<path d="M41.9992 167.6L32.6992 134.6L16.1992 139.3L25.4992 172.4L41.9992 167.6Z" fill="#B5D375"/>
<path d="M29.2992 137.2C28.9992 136.7 28.6992 136 28.1992 135.7C27.5992 135.4 26.8992 135.5 26.2992 135.7C25.3992 135.9 24.4992 136.2 23.5992 136.5C22.9992 136.7 22.3992 136.9 21.8992 137.4C21.0992 138.3 21.0992 139.6 20.8992 140.8C20.5992 142.5 19.5992 144 18.1992 145C17.8992 145.2 17.4992 145.4 17.2992 145.2C17.1992 145.1 17.0992 144.9 17.0992 144.8C16.1992 141.8 14.9992 138.9 13.6992 136.1C18.1992 136 22.3992 134.9 26.2992 132.7C28.2992 131.6 30.7992 131.7 33.0992 131.6C35.0992 135.6 35.7992 137.6 36.3992 141.9C35.5992 141.5 35.5992 140.6 35.0992 140.3C34.6992 140 33.3992 140.2 32.8992 140C31.3992 139.5 30.0992 138.5 29.2992 137.2Z" fill="#7D8E54"/>
<path d="M28.6992 168.1C28.9992 168.7 29.1992 169.3 29.7992 169.6C30.3992 169.9 31.4992 170.7 32.0992 170.6C32.9992 170.4 33.6992 170 34.5992 169.7C35.1992 169.5 36.0992 169 36.5992 168.6C37.3992 167.8 36.8992 165.9 37.1992 164.7C37.4992 163 38.4992 161.5 39.8992 160.5C40.1992 160.3 40.5992 160.1 40.7992 160.4C40.8992 160.5 40.9992 160.7 40.9992 160.8C41.8992 163.8 42.9992 166.7 44.2992 169.6C39.7992 169.6 35.6992 171.7 31.7992 173.8C29.7992 174.9 27.6992 176 25.4992 176.1C23.5992 172.1 22.2992 167.8 21.6992 163.4C22.4992 163.8 22.4992 164.7 22.9992 165.1C23.3992 165.4 24.6992 165.2 25.1992 165.4C26.5992 165.7 27.8992 166.7 28.6992 168.1Z" fill="#7D8E54"/>
<path d="M22.9991 154C23.6991 156.8 27.6991 158.4 32.0991 157.4C36.4991 156.4 39.4992 153.3 38.8992 150.4C38.1992 147.6 34.1992 146 29.7992 147C25.3992 148 22.2991 151.1 22.9991 154Z" fill="#7D8E54"/>
<path d="M30.1995 154C29.9995 153.9 29.7995 153.8 29.4995 153.8C29.2995 153.8 29.1995 153.9 28.9995 154C28.4995 154.3 27.9995 154.5 27.4995 154.5C26.9995 154.5 26.3995 154.3 26.0995 153.9C25.7995 153.5 25.8995 152.9 26.0995 152.5C26.2995 152 26.6995 151.7 27.0995 151.4C27.6995 151 28.2995 150.6 28.9995 150.5C29.6995 150.4 30.4995 150.6 30.8995 151.2C31.6995 151.2 32.1995 150.4 32.8995 150.1C33.5995 149.8 34.3995 149.8 35.1995 149.7C35.4995 149.6 36.6995 149.1 36.9995 149.2C37.4995 149.4 36.4995 150.2 36.2995 150.5C35.4995 151.4 34.6995 152.3 33.7995 153.1C33.1995 153.7 32.6995 153.5 31.9995 153.7C31.3995 153.7 30.8995 154.2 30.1995 154Z" fill="#96A568"/>
<path d="M30.5993 155.1C30.4993 155.4 30.2993 155.7 30.2993 156C30.2993 156.1 30.2993 156.2 30.2993 156.3C30.2993 156.7 29.7993 156.8 29.3993 156.8C28.5993 156.9 27.6993 156.8 27.3993 156.1C27.3993 156 27.2993 155.9 27.1993 155.8C27.0993 155.7 26.9993 155.7 26.7993 155.6C25.6993 155.3 25.0993 154 25.4993 153C25.6993 152.5 26.0993 152.1 26.2993 151.6C26.4993 151.2 26.4993 150.7 26.5993 150.3C26.6993 149.9 27.0993 149.4 27.4993 149.4C27.7993 149.4 27.9993 149.5 28.2993 149.6C28.5993 149.8 28.7993 150 28.8993 150.2C28.9993 150.3 28.9993 150.4 28.9993 150.5C28.9993 150.6 28.7993 150.7 28.6993 150.7C27.9993 150.9 27.3993 151.5 26.8993 152C26.5993 152.3 26.2993 152.6 26.0993 153.1C25.8993 153.5 25.8993 154 26.0993 154.4C26.4993 155 27.2993 155.1 27.9993 155C28.6993 154.9 29.2993 154.7 29.8993 154.6C30.4993 154.3 30.7993 154.4 30.5993 155.1Z" fill="#A3B772"/>
<path d="M28.3991 143C28.4991 144.1 27.6991 145.1 26.5991 145.2C25.4991 145.3 24.4991 144.5 24.3991 143.4C24.2991 142.3 25.0991 141.3 26.1991 141.2C27.3991 141.1 28.2991 141.9 28.3991 143Z" fill="#8ECC69"/>
<path d="M33.6002 162.7C33.7002 163.8 32.9002 164.8 31.8002 164.9C30.7002 165 29.7002 164.2 29.6002 163.1C29.5002 162 30.3002 161 31.4002 160.9C32.5002 160.8 33.5002 161.6 33.6002 162.7Z" fill="#96A568"/>
<path d="M142.4 170.8H101.8C99.9004 170.8 98.4004 169.3 98.4004 167.4V138.1C98.4004 136.2 99.9004 134.7 101.8 134.7H142.4C144.3 134.7 145.8 136.2 145.8 138.1V167.4C145.8 169.3 144.3 170.8 142.4 170.8Z" fill="#7C3B2C"/>
<path d="M131.1 156.5H143.8C144.9 156.5 145.8 155.6 145.8 154.5V149.2C145.8 148.1 144.9 147.2 143.8 147.2H131.1C130 147.2 129.1 148.1 129.1 149.2V154.5C129.1 155.6 130 156.5 131.1 156.5Z" fill="#541C14"/>
<path d="M132 154H144.7C145.8 154 146.7 153.1 146.7 152V146.7C146.7 145.6 145.8 144.7 144.7 144.7H132C130.9 144.7 130 145.6 130 146.7V152C130.1 153.1 131 154 132 154Z" fill="#8C4134"/>
<path d="M137.5 150.2C137.5 151.8 136.2 153.1 134.5 153.1C132.8 153.1 131.6 151.8 131.6 150.2C131.6 148.6 132.9 147.3 134.5 147.3C136.1 147.3 137.5 148.6 137.5 150.2Z" fill="#541C14"/>
<path d="M145.699 164.6H102.799C102.799 164.6 101.299 164.8 101.399 167.1C101.499 169.4 105.799 169.4 105.799 169.4L145.499 168.7C145.499 168.7 145.799 168.4 145.799 167.7C145.799 167 145.699 164.6 145.699 164.6Z" fill="#541C14"/>
<path d="M101 164.8C99.8996 164.8 99.0996 163.9 99.0996 162.9V138.4C99.0996 137.3 99.9996 136.5 101 136.5C102.1 136.5 102.9 137.4 102.9 138.4V162.9C102.9 163.9 102.1 164.8 101 164.8Z" fill="#9E493B"/>
<path d="M138.199 149.2C138.199 150.8 136.899 152.1 135.199 152.1C133.499 152.1 132.299 150.8 132.299 149.2C132.299 147.6 133.599 146.3 135.199 146.3C136.799 146.3 138.199 147.6 138.199 149.2Z" fill="#B9BFD6"/>
<path d="M136.1 166.9L105.8 169.4L105.6 166.6L136.1 166.9Z" fill="#7D8E54"/>
<path d="M89.1992 147.5H66.6992V159.3H89.1992V147.5Z" fill="#68BA08"/>
<path d="M83.9992 141.7L85.7992 153.6L83.1992 166.6L95.0992 153.3L83.9992 141.7Z" fill="#68BA08"/>
</svg>
