<svg width="51" height="51" viewBox="0 0 51 51" fill="none" xmlns="http://www.w3.org/2000/svg">
<circle cx="25.5" cy="25.5" r="25.5" fill="white"/>
<g clip-path="url(#clip0)">
<path d="M37.9509 28.8175L37.9361 28.7919C36.8198 26.8587 34.3708 26.172 32.3609 27.2286L29.2556 28.841C29.2686 28.9751 29.2809 29.1226 29.2809 29.1922C29.2809 30.3264 28.6462 31.4257 27.6639 31.9929C27.2202 32.2491 26.7365 32.3769 26.2444 32.3769C25.7157 32.3769 25.1774 32.2295 24.668 31.9353C24.659 31.9302 24.6502 31.9248 24.6415 31.9193L21.9747 30.225C21.6337 30.0084 21.5328 29.5563 21.7495 29.2153C21.9662 28.8743 22.4182 28.7735 22.7592 28.9901L25.4121 30.6756C26.0807 31.0561 26.6076 30.9135 26.9324 30.7259C27.3385 30.4915 27.6417 30.0743 27.7614 29.6169L27.7604 29.6174C27.8812 28.9657 27.6532 28.2574 26.8894 27.8164L23.8709 26.0737C23.5773 25.8602 23.2168 25.7339 22.8282 25.7339H18.8042V32.6451H19.271L25.0641 35.9966C25.427 36.2065 25.8034 36.3117 26.1665 36.3117C26.5074 36.3117 26.8369 36.219 27.1327 36.033L37.8288 29.3102C37.9954 29.2055 38.0494 28.9878 37.9509 28.8175Z" fill="#FF9D00"/>
<path d="M16.6097 23.4822H13.7315C13.3275 23.4822 13 23.8097 13 24.2137V34.3995C13 34.8035 13.3275 35.131 13.7315 35.131H16.6097C17.0137 35.131 17.3412 34.8035 17.3412 34.3995V24.2137C17.3412 23.8097 17.0137 23.4822 16.6097 23.4822Z" fill="#FF9D00"/>
<path d="M29.1721 24.853C30.1441 24.853 31.6437 23.7509 32.6987 22.6587C33.5556 21.7716 34.9932 19.9979 34.9932 18.0863C34.9932 16.2127 33.469 14.6885 31.5954 14.6885C30.6617 14.6885 29.7988 15.0602 29.1721 15.7003C28.5454 15.0602 27.6825 14.6885 26.7488 14.6885C24.8753 14.6885 23.3511 16.2127 23.3511 18.0863C23.3511 19.8467 24.7842 21.6371 25.6385 22.5477C26.6361 23.6112 28.1602 24.853 29.1721 24.853Z" fill="#FF9D00"/>
</g>
<defs>
<clipPath id="clip0">
<rect x="13" y="13" width="25" height="25" fill="white"/>
</clipPath>
</defs>
</svg>
