<svg width="51" height="51" viewBox="0 0 51 51" fill="none" xmlns="http://www.w3.org/2000/svg">
<circle cx="25.5" cy="25.5" r="25.5" fill="white"/>
<path d="M33.79 30.88C33.79 31.98 33.5 33 32.92 33.94C32.36 34.86 31.52 35.62 30.4 36.22C29.3 36.8 27.99 37.12 26.47 37.18V39.61H24.55V37.15C22.43 36.97 20.72 36.34 19.42 35.26C18.12 34.16 17.43 32.67 17.35 30.79H22.81C22.93 31.99 23.51 32.76 24.55 33.1V28.36C22.99 27.96 21.74 27.57 20.8 27.19C19.88 26.81 19.07 26.2 18.37 25.36C17.67 24.52 17.32 23.37 17.32 21.91C17.32 20.09 17.99 18.63 19.33 17.53C20.69 16.43 22.43 15.81 24.55 15.67V13.24H26.47V15.67C28.57 15.83 30.23 16.44 31.45 17.5C32.67 18.56 33.35 20.03 33.49 21.91H28C27.88 20.83 27.37 20.13 26.47 19.81V24.46C28.13 24.92 29.41 25.33 30.31 25.69C31.21 26.05 32.01 26.65 32.71 27.49C33.43 28.31 33.79 29.44 33.79 30.88ZM22.75 21.67C22.75 22.17 22.9 22.59 23.2 22.93C23.52 23.27 23.97 23.57 24.55 23.83V19.66C23.99 19.76 23.55 19.98 23.23 20.32C22.91 20.64 22.75 21.09 22.75 21.67ZM26.47 33.19C27.07 33.09 27.54 32.85 27.88 32.47C28.24 32.09 28.42 31.62 28.42 31.06C28.42 30.54 28.25 30.12 27.91 29.8C27.59 29.46 27.11 29.17 26.47 28.93V33.19Z" fill="#725CEB"/>
</svg>
