<svg width="22" height="20" viewBox="0 0 22 20" fill="none" xmlns="http://www.w3.org/2000/svg">
<path d="M20.0776 0H1.70483C1.01305 0 0.452148 0.516539 0.452148 1.15389V14.7179C0.452148 15.3552 1.01305 15.8717 1.70483 15.8717H3.45862V18.8462C3.45862 19.2764 3.71849 19.6709 4.13282 19.8696C4.31477 19.9569 4.51337 20 4.71124 20C4.96368 20 5.21513 19.9297 5.42969 19.7914L7.96832 18.1545L9.221 17.3468L10.4737 16.5391L11.5088 15.8716H20.0776C20.7694 15.8716 21.3303 15.3551 21.3303 14.7178V7.69225V6.53842V5.38458V1.15389C21.3303 0.516539 20.7694 0 20.0776 0ZM15.0668 11.5385H14.3027H6.71559C6.02376 11.5385 5.46291 11.0218 5.46291 10.3847C5.46291 9.74737 6.02376 9.23083 6.71559 9.23083H15.0668C15.5686 9.23083 16.0003 9.5032 16.2002 9.89561C16.2759 10.0443 16.3195 10.2096 16.3195 10.3847C16.3196 11.0218 15.7587 11.5385 15.0668 11.5385ZM15.0668 6.92301H6.71559C6.02376 6.92301 5.46291 6.40637 5.46291 5.76918C5.46291 5.13193 6.02376 4.61534 6.71559 4.61534H15.0668C15.7587 4.61534 16.3195 5.13198 16.3195 5.76918C16.3196 6.40642 15.7587 6.92301 15.0668 6.92301Z" fill="#725CEB"/>
</svg>
