<svg width="25" height="25" viewBox="0 0 25 25" fill="none" xmlns="http://www.w3.org/2000/svg">
<g clip-path="url(#clip0)">
<path d="M24.9509 15.8175L24.9361 15.7919C23.8198 13.8587 21.3708 13.172 19.3609 14.2286L16.2556 15.841C16.2686 15.9751 16.2809 16.1226 16.2809 16.1922C16.2809 17.3264 15.6462 18.4257 14.6639 18.9929C14.2202 19.2491 13.7365 19.3769 13.2444 19.3769C12.7157 19.3769 12.1774 19.2295 11.668 18.9353C11.659 18.9302 11.6502 18.9248 11.6415 18.9193L8.97466 17.225C8.63369 17.0084 8.53284 16.5563 8.74951 16.2153C8.96618 15.8743 9.41824 15.7735 9.75921 15.9901L12.4121 17.6756C13.0807 18.0561 13.6076 17.9135 13.9324 17.7259C14.3385 17.4915 14.6417 17.0743 14.7614 16.6169L14.7604 16.6174C14.8812 15.9657 14.6532 15.2574 13.8894 14.8164L10.8709 13.0737C10.5773 12.8602 10.2168 12.7339 9.82816 12.7339H5.8042V19.6451H6.27103L12.0641 22.9966C12.427 23.2065 12.8034 23.3117 13.1665 23.3117C13.5074 23.3117 13.8369 23.219 14.1327 23.033L24.8288 16.3102C24.9954 16.2055 25.0494 15.9878 24.9509 15.8175Z" fill="#FF9D00"/>
<path d="M3.6097 10.4822H0.731488C0.327511 10.4822 0 10.8097 0 11.2137V21.3995C0 21.8035 0.327511 22.131 0.731488 22.131H3.6097C4.01367 22.131 4.34118 21.8035 4.34118 21.3995V11.2137C4.34118 10.8097 4.01372 10.4822 3.6097 10.4822Z" fill="#FF9D00"/>
<path d="M16.1721 11.853C17.1441 11.853 18.6437 10.7509 19.6987 9.65867C20.5556 8.77157 21.9932 6.99786 21.9932 5.08629C21.9932 3.2127 20.469 1.68848 18.5954 1.68848C17.6617 1.68848 16.7988 2.06022 16.1721 2.70032C15.5454 2.06022 14.6825 1.68848 13.7488 1.68848C11.8753 1.68848 10.3511 3.2127 10.3511 5.08629C10.3511 6.84673 11.7842 8.63712 12.6385 9.54773C13.6361 10.6112 15.1602 11.853 16.1721 11.853Z" fill="#FF9D00"/>
</g>
<defs>
<clipPath id="clip0">
<rect width="25" height="25" fill="white"/>
</clipPath>
</defs>
</svg>
