<svg width="51" height="51" viewBox="0 0 51 51" fill="none" xmlns="http://www.w3.org/2000/svg">
<circle cx="25.5" cy="25.5" r="25.5" fill="white"/>
<g clip-path="url(#clip0)">
<path d="M36.0961 19.4021C34.8537 18.0546 33.149 17.3125 31.2956 17.3125C29.9102 17.3125 28.6415 17.7505 27.5245 18.6142C26.9609 19.0502 26.4503 19.5836 26 20.2061C25.5499 19.5837 25.0391 19.0502 24.4753 18.6142C23.3585 17.7505 22.0898 17.3125 20.7044 17.3125C18.851 17.3125 17.1461 18.0546 15.9037 19.4021C14.6762 20.7338 14 22.5532 14 24.5252C14 26.5549 14.7564 28.4129 16.3804 30.3725C17.8331 32.1254 19.9211 33.9048 22.339 35.9653C23.1646 36.6689 24.1005 37.4666 25.0722 38.3162C25.3289 38.541 25.6583 38.6648 26 38.6648C26.3415 38.6648 26.6711 38.541 26.9274 38.3165C27.8992 37.4667 28.8356 36.6688 29.6616 35.9647C32.0791 33.9046 34.1671 32.1254 35.6198 30.3723C37.2438 28.4129 38 26.5549 38 24.525C38 22.5532 37.3238 20.7338 36.0961 19.4021Z" fill="#FF3C53"/>
</g>
<defs>
<clipPath id="clip0">
<rect x="14" y="16" width="24" height="24" fill="white"/>
</clipPath>
</defs>
</svg>
