<svg width="17" height="27" viewBox="0 0 17 27" fill="none" xmlns="http://www.w3.org/2000/svg">
<path d="M16.79 17.88C16.79 18.98 16.5 20 15.92 20.94C15.36 21.86 14.52 22.62 13.4 23.22C12.3 23.8 10.99 24.12 9.47 24.18V26.61H7.55V24.15C5.43 23.97 3.72 23.34 2.42 22.26C1.12 21.16 0.43 19.67 0.35 17.79H5.81C5.93 18.99 6.51 19.76 7.55 20.1V15.36C5.99 14.96 4.74 14.57 3.8 14.19C2.88 13.81 2.07 13.2 1.37 12.36C0.67 11.52 0.32 10.37 0.32 8.91C0.32 7.09 0.99 5.63 2.33 4.53C3.69 3.43 5.43 2.81 7.55 2.67V0.239998H9.47V2.67C11.57 2.83 13.23 3.44 14.45 4.5C15.67 5.56 16.35 7.03 16.49 8.91H11C10.88 7.83 10.37 7.13 9.47 6.81V11.46C11.13 11.92 12.41 12.33 13.31 12.69C14.21 13.05 15.01 13.65 15.71 14.49C16.43 15.31 16.79 16.44 16.79 17.88ZM5.75 8.67C5.75 9.17 5.9 9.59 6.2 9.93C6.52 10.27 6.97 10.57 7.55 10.83V6.66C6.99 6.76 6.55 6.98 6.23 7.32C5.91 7.64 5.75 8.09 5.75 8.67ZM9.47 20.19C10.07 20.09 10.54 19.85 10.88 19.47C11.24 19.09 11.42 18.62 11.42 18.06C11.42 17.54 11.25 17.12 10.91 16.8C10.59 16.46 10.11 16.17 9.47 15.93V20.19Z" fill="#725CEB"/>
</svg>
