<svg width="73" height="73" viewBox="0 0 73 73" fill="none" xmlns="http://www.w3.org/2000/svg">
<circle cx="36.5" cy="36.5" r="36.5" fill="#FF9D00"/>
<path d="M42.7834 19H30.2837C28.1586 19 26.353 20.7327 26.353 22.8572V52.1472C26.353 54.2717 28.1204 56 30.2455 56L42.7657 55.9865C44.8905 55.9865 46.6288 54.2579 46.6288 52.1331L46.647 22.8551C46.6467 20.723 44.9169 19 42.7834 19ZM34.7278 21.3126H38.3543C38.6728 21.3126 38.9323 21.5712 38.9323 21.8906C38.9323 22.2101 38.6728 22.4687 38.3543 22.4687H34.7278C34.4083 22.4687 34.1497 22.2101 34.1497 21.8906C34.1497 21.5712 34.4083 21.3126 34.7278 21.3126ZM32.5486 21.4965C32.7629 21.2826 33.1529 21.2796 33.3668 21.4965C33.4741 21.6035 33.5376 21.7537 33.5376 21.9071C33.5376 22.0575 33.4741 22.2074 33.3668 22.3147C33.2601 22.422 33.1094 22.4851 32.9592 22.4851C32.8061 22.4851 32.6588 22.422 32.5486 22.3147C32.442 22.2077 32.3811 22.0575 32.3811 21.9071C32.3808 21.7537 32.442 21.6035 32.5486 21.4965ZM36.4244 54.8542C35.4704 54.8542 34.6946 54.0777 34.6946 53.1241C34.6946 52.1701 35.4704 51.394 36.4244 51.394C37.3783 51.394 38.1541 52.1701 38.1541 53.1241C38.1541 54.0777 37.378 54.8542 36.4244 54.8542ZM44.8526 50.2182H28.3764V24.4924H44.8526V50.2182Z" fill="white"/>
</svg>
