<svg width="402" height="150" viewBox="0 0 402 150" fill="none" xmlns="http://www.w3.org/2000/svg">
<path d="M109 59.52V46.272L139.336 2.87998H157.672V45.312H165.544V59.52H157.672V72H141.256V59.52H109ZM142.408 20.928L126.28 45.312H142.408V20.928Z" fill="#725CEB"/>
<path d="M173.585 36C173.585 24.992 175.697 16.32 179.921 9.98398C184.209 3.64798 191.089 0.47998 200.561 0.47998C210.033 0.47998 216.881 3.64798 221.105 9.98398C225.393 16.32 227.537 24.992 227.537 36C227.537 47.136 225.393 55.872 221.105 62.208C216.881 68.544 210.033 71.712 200.561 71.712C191.089 71.712 184.209 68.544 179.921 62.208C175.697 55.872 173.585 47.136 173.585 36ZM211.409 36C211.409 29.536 210.705 24.576 209.297 21.12C207.889 17.6 204.977 15.84 200.561 15.84C196.145 15.84 193.233 17.6 191.825 21.12C190.417 24.576 189.713 29.536 189.713 36C189.713 40.352 189.969 43.968 190.481 46.848C190.993 49.664 192.017 51.968 193.553 53.76C195.153 55.488 197.489 56.352 200.561 56.352C203.633 56.352 205.937 55.488 207.473 53.76C209.073 51.968 210.129 49.664 210.641 46.848C211.153 43.968 211.409 40.352 211.409 36Z" fill="#725CEB"/>
<path d="M236.594 59.52V46.272L266.93 2.87998H285.266V45.312H293.138V59.52H285.266V72H268.85V59.52H236.594ZM270.002 20.928L253.874 45.312H270.002V20.928Z" fill="#725CEB"/>
<path d="M12.06 119.472C9.972 119.472 8.376 120.252 7.272 121.812C6.168 123.372 5.616 125.508 5.616 128.22C5.616 130.956 6.12 133.08 7.128 134.592C8.16 136.08 9.804 136.824 12.06 136.824C13.116 136.824 14.16 136.704 15.192 136.464C16.248 136.224 17.388 135.888 18.612 135.456V140.028C17.484 140.484 16.368 140.82 15.264 141.036C14.16 141.252 12.924 141.36 11.556 141.36C8.916 141.36 6.732 140.82 5.004 139.74C3.3 138.636 2.04 137.1 1.224 135.132C0.408 133.14 0 130.824 0 128.184C0 125.592 0.468 123.3 1.404 121.308C2.34 119.316 3.696 117.756 5.472 116.628C7.272 115.5 9.468 114.936 12.06 114.936C13.332 114.936 14.604 115.104 15.876 115.44C17.172 115.752 18.408 116.184 19.584 116.736L17.82 121.164C16.86 120.708 15.888 120.312 14.904 119.976C13.944 119.64 12.996 119.472 12.06 119.472Z" fill="#373737"/>
<path d="M39.9139 125.376H33.4699V141H28.1059V125.376H21.6619V121.344H39.9139V125.376Z" fill="#373737"/>
<path d="M54.4843 120.984C56.6923 120.984 58.4803 121.848 59.8483 123.576C61.2163 125.28 61.9003 127.8 61.9003 131.136C61.9003 134.472 61.1923 137.016 59.7763 138.768C58.3603 140.496 56.5483 141.36 54.3403 141.36C52.9243 141.36 51.7963 141.108 50.9563 140.604C50.1163 140.076 49.4323 139.488 48.9043 138.84H48.6163C48.8083 139.848 48.9043 140.808 48.9043 141.72V149.64H43.5403V121.344H47.8963L48.6523 123.9H48.9043C49.4323 123.108 50.1403 122.424 51.0283 121.848C51.9163 121.272 53.0683 120.984 54.4843 120.984ZM52.7563 125.268C51.3643 125.268 50.3803 125.7 49.8043 126.564C49.2523 127.428 48.9523 128.748 48.9043 130.524V131.1C48.9043 132.996 49.1803 134.46 49.7323 135.492C50.3083 136.5 51.3403 137.004 52.8283 137.004C54.0523 137.004 54.9523 136.5 55.5283 135.492C56.1283 134.46 56.4283 132.984 56.4283 131.064C56.4283 127.2 55.2043 125.268 52.7563 125.268Z" fill="#373737"/>
<path d="M74.3856 120.948C77.0256 120.948 79.0416 121.524 80.4336 122.676C81.8496 123.804 82.5576 125.544 82.5576 127.896V141H78.8136L77.7696 138.336H77.6256C76.7856 139.392 75.8976 140.16 74.9616 140.64C74.0256 141.12 72.7416 141.36 71.1096 141.36C69.3576 141.36 67.9056 140.856 66.7536 139.848C65.6016 138.816 65.0256 137.244 65.0256 135.132C65.0256 133.044 65.7576 131.508 67.2216 130.524C68.6856 129.516 70.8816 128.964 73.8096 128.868L77.2296 128.76V127.896C77.2296 126.864 76.9536 126.108 76.4016 125.628C75.8736 125.148 75.1296 124.908 74.1696 124.908C73.2096 124.908 72.2736 125.052 71.3616 125.34C70.4496 125.604 69.5376 125.94 68.6256 126.348L66.8616 122.712C67.9176 122.16 69.0816 121.728 70.3536 121.416C71.6496 121.104 72.9936 120.948 74.3856 120.948ZM77.2296 131.892L75.1416 131.964C73.4136 132.012 72.2136 132.324 71.5416 132.9C70.8696 133.476 70.5336 134.232 70.5336 135.168C70.5336 135.984 70.7736 136.572 71.2536 136.932C71.7336 137.268 72.3576 137.436 73.1256 137.436C74.2776 137.436 75.2496 137.1 76.0416 136.428C76.8336 135.732 77.2296 134.76 77.2296 133.512V131.892Z" fill="#373737"/>
<path d="M93.4121 121.344V128.904H100.9V121.344H106.264V141H100.9V132.9H93.4121V141H88.0481V121.344H93.4121Z" fill="#373737"/>
<path d="M117.068 121.344V129.12C117.068 129.528 117.044 130.032 116.996 130.632C116.972 131.232 116.936 131.844 116.888 132.468C116.864 133.092 116.828 133.644 116.78 134.124C116.732 134.604 116.696 134.94 116.672 135.132L125.744 121.344H132.188V141H127.004V133.152C127.004 132.504 127.028 131.796 127.076 131.028C127.124 130.236 127.172 129.504 127.22 128.832C127.292 128.136 127.34 127.608 127.364 127.248L118.328 141H111.884V121.344H117.068Z" fill="#373737"/>
<path d="M159.25 148.056H154.426V141H137.794V121.344H143.158V136.968H151.006V121.344H156.37V137.076H159.25V148.056Z" fill="#373737"/>
<path d="M170.643 120.948C173.283 120.948 175.299 121.524 176.691 122.676C178.107 123.804 178.815 125.544 178.815 127.896V141H175.071L174.027 138.336H173.883C173.043 139.392 172.155 140.16 171.219 140.64C170.283 141.12 168.999 141.36 167.367 141.36C165.615 141.36 164.163 140.856 163.011 139.848C161.859 138.816 161.283 137.244 161.283 135.132C161.283 133.044 162.015 131.508 163.479 130.524C164.943 129.516 167.139 128.964 170.067 128.868L173.487 128.76V127.896C173.487 126.864 173.211 126.108 172.659 125.628C172.131 125.148 171.387 124.908 170.427 124.908C169.467 124.908 168.531 125.052 167.619 125.34C166.707 125.604 165.795 125.94 164.883 126.348L163.119 122.712C164.175 122.16 165.339 121.728 166.611 121.416C167.907 121.104 169.251 120.948 170.643 120.948ZM173.487 131.892L171.399 131.964C169.671 132.012 168.471 132.324 167.799 132.9C167.127 133.476 166.791 134.232 166.791 135.168C166.791 135.984 167.031 136.572 167.511 136.932C167.991 137.268 168.615 137.436 169.383 137.436C170.535 137.436 171.507 137.1 172.299 136.428C173.091 135.732 173.487 134.76 173.487 133.512V131.892Z" fill="#373737"/>
<path d="M197.299 121.344V128.904H204.787V121.344H210.151V141H204.787V132.9H197.299V141H191.935V121.344H197.299Z" fill="#373737"/>
<path d="M223.871 120.984C226.583 120.984 228.731 121.764 230.315 123.324C231.899 124.86 232.691 127.056 232.691 129.912V132.504H220.019C220.067 134.016 220.511 135.204 221.351 136.068C222.215 136.932 223.403 137.364 224.915 137.364C226.187 137.364 227.339 137.244 228.371 137.004C229.403 136.74 230.471 136.344 231.575 135.816V139.956C230.615 140.436 229.595 140.784 228.515 141C227.459 141.24 226.175 141.36 224.663 141.36C222.695 141.36 220.955 141 219.443 140.28C217.931 139.536 216.743 138.42 215.879 136.932C215.015 135.444 214.583 133.572 214.583 131.316C214.583 129.012 214.967 127.104 215.735 125.592C216.527 124.056 217.619 122.904 219.011 122.136C220.403 121.368 222.023 120.984 223.871 120.984ZM223.907 124.8C222.875 124.8 222.011 125.136 221.315 125.808C220.643 126.48 220.247 127.524 220.127 128.94H227.651C227.627 127.74 227.315 126.756 226.715 125.988C226.115 125.196 225.179 124.8 223.907 124.8Z" fill="#373737"/>
<path d="M250.033 121.344V128.904H257.521V121.344H262.885V141H257.521V132.9H250.033V141H244.669V121.344H250.033Z" fill="#373737"/>
<path d="M276.569 120.948C279.209 120.948 281.225 121.524 282.617 122.676C284.033 123.804 284.741 125.544 284.741 127.896V141H280.997L279.953 138.336H279.809C278.969 139.392 278.081 140.16 277.145 140.64C276.209 141.12 274.925 141.36 273.293 141.36C271.541 141.36 270.089 140.856 268.937 139.848C267.785 138.816 267.209 137.244 267.209 135.132C267.209 133.044 267.941 131.508 269.405 130.524C270.869 129.516 273.065 128.964 275.993 128.868L279.413 128.76V127.896C279.413 126.864 279.137 126.108 278.585 125.628C278.057 125.148 277.313 124.908 276.353 124.908C275.393 124.908 274.457 125.052 273.545 125.34C272.633 125.604 271.721 125.94 270.809 126.348L269.045 122.712C270.101 122.16 271.265 121.728 272.537 121.416C273.833 121.104 275.177 120.948 276.569 120.948ZM279.413 131.892L277.325 131.964C275.597 132.012 274.397 132.324 273.725 132.9C273.053 133.476 272.717 134.232 272.717 135.168C272.717 135.984 272.957 136.572 273.437 136.932C273.917 137.268 274.541 137.436 275.309 137.436C276.461 137.436 277.433 137.1 278.225 136.428C279.017 135.732 279.413 134.76 279.413 133.512V131.892Z" fill="#373737"/>
<path d="M295.416 121.344V129.12C295.416 129.528 295.392 130.032 295.344 130.632C295.32 131.232 295.284 131.844 295.236 132.468C295.212 133.092 295.176 133.644 295.128 134.124C295.08 134.604 295.044 134.94 295.02 135.132L304.092 121.344H310.536V141H305.352V133.152C305.352 132.504 305.376 131.796 305.424 131.028C305.472 130.236 305.52 129.504 305.568 128.832C305.64 128.136 305.688 127.608 305.712 127.248L296.676 141H290.232V121.344H295.416ZM309.06 112.884C308.94 114.132 308.592 115.236 308.016 116.196C307.44 117.132 306.54 117.864 305.316 118.392C304.092 118.92 302.448 119.184 300.384 119.184C298.272 119.184 296.616 118.932 295.416 118.428C294.24 117.9 293.4 117.168 292.896 116.232C292.392 115.296 292.092 114.18 291.996 112.884H296.784C296.904 114.204 297.24 115.08 297.792 115.512C298.344 115.944 299.244 116.16 300.492 116.16C301.524 116.16 302.364 115.932 303.012 115.476C303.684 114.996 304.08 114.132 304.2 112.884H309.06Z" fill="#373737"/>
<path d="M333.818 121.344V137.076H336.698V148.056H331.874V141H318.662V148.056H313.838V137.076H315.494C316.358 135.756 317.09 134.256 317.69 132.576C318.29 130.872 318.77 129.06 319.13 127.14C319.49 125.22 319.754 123.288 319.922 121.344H333.818ZM328.454 125.376H324.422C324.134 127.56 323.738 129.636 323.234 131.604C322.73 133.548 322.022 135.372 321.11 137.076H328.454V125.376Z" fill="#373737"/>
<path d="M348.148 120.984C350.86 120.984 353.008 121.764 354.592 123.324C356.176 124.86 356.968 127.056 356.968 129.912V132.504H344.296C344.344 134.016 344.788 135.204 345.628 136.068C346.492 136.932 347.68 137.364 349.192 137.364C350.464 137.364 351.616 137.244 352.648 137.004C353.68 136.74 354.748 136.344 355.852 135.816V139.956C354.892 140.436 353.872 140.784 352.792 141C351.736 141.24 350.452 141.36 348.94 141.36C346.972 141.36 345.232 141 343.72 140.28C342.208 139.536 341.02 138.42 340.156 136.932C339.292 135.444 338.86 133.572 338.86 131.316C338.86 129.012 339.244 127.104 340.012 125.592C340.804 124.056 341.896 122.904 343.288 122.136C344.68 121.368 346.3 120.984 348.148 120.984ZM348.184 124.8C347.152 124.8 346.288 125.136 345.592 125.808C344.92 126.48 344.524 127.524 344.404 128.94H351.928C351.904 127.74 351.592 126.756 350.992 125.988C350.392 125.196 349.456 124.8 348.184 124.8Z" fill="#373737"/>
<path d="M366.682 121.344V128.904H374.17V121.344H379.534V141H374.17V132.9H366.682V141H361.318V121.344H366.682Z" fill="#373737"/>
<path d="M393.218 120.948C395.858 120.948 397.874 121.524 399.266 122.676C400.682 123.804 401.39 125.544 401.39 127.896V141H397.646L396.602 138.336H396.458C395.618 139.392 394.73 140.16 393.794 140.64C392.858 141.12 391.574 141.36 389.942 141.36C388.19 141.36 386.738 140.856 385.586 139.848C384.434 138.816 383.858 137.244 383.858 135.132C383.858 133.044 384.59 131.508 386.054 130.524C387.518 129.516 389.714 128.964 392.642 128.868L396.062 128.76V127.896C396.062 126.864 395.786 126.108 395.234 125.628C394.706 125.148 393.962 124.908 393.002 124.908C392.042 124.908 391.106 125.052 390.194 125.34C389.282 125.604 388.37 125.94 387.458 126.348L385.694 122.712C386.75 122.16 387.914 121.728 389.186 121.416C390.482 121.104 391.826 120.948 393.218 120.948ZM396.062 131.892L393.974 131.964C392.246 132.012 391.046 132.324 390.374 132.9C389.702 133.476 389.366 134.232 389.366 135.168C389.366 135.984 389.606 136.572 390.086 136.932C390.566 137.268 391.19 137.436 391.958 137.436C393.11 137.436 394.082 137.1 394.874 136.428C395.666 135.732 396.062 134.76 396.062 133.512V131.892Z" fill="#373737"/>
</svg>
