<svg width="34" height="34" viewBox="0 0 34 34" fill="none" xmlns="http://www.w3.org/2000/svg">
<path d="M17 34C7.61116 34 -3.35059e-07 26.3888 -7.48375e-07 17C-1.16169e-06 7.61116 7.61116 -3.30347e-07 17 -7.3785e-07C26.3888 -1.14535e-06 34 7.61116 34 17C34 26.3888 26.3888 34 17 34Z" fill="white"/>
<path d="M20 14.8857H17.9566V13.6402C17.9566 13.1725 18.2902 13.0634 18.5251 13.0634C18.7595 13.0634 19.9671 13.0634 19.9671 13.0634V11.0072L17.9812 11C15.7766 11 15.2749 12.5336 15.2749 13.515V14.8857H14V17.0045H15.2749C15.2749 19.7237 15.2749 23 15.2749 23H17.9566C17.9566 23 17.9566 19.6914 17.9566 17.0045H19.7661L20 14.8857Z" fill="#725CEB"/>
</svg>
