<svg width="34" height="34" viewBox="0 0 34 34" fill="none" xmlns="http://www.w3.org/2000/svg">
<path d="M17 34C7.61116 34 -3.35059e-07 26.3888 -7.48375e-07 17C-1.16169e-06 7.61116 7.61116 -3.30347e-07 17 -7.3785e-07C26.3888 -1.14535e-06 34 7.61116 34 17C34 26.3888 26.3888 34 17 34Z" fill="white"/>
<path d="M21.2944 10H12.7056C11.2137 10 10 11.2135 10 12.7054V15.5633V21.2946C10 22.7865 11.2137 24 12.7056 24H21.2947C22.7866 24 24 22.7865 24 21.2946V15.563V12.7051C23.9997 11.2132 22.7863 10 21.2944 10ZM22.0704 11.6134L22.3799 11.6122V11.9203V13.9852L20.0148 13.9929L20.0067 11.6201L22.0704 11.6134ZM15.0018 15.563C15.4502 14.9426 16.1777 14.5356 17 14.5356C17.8223 14.5356 18.5498 14.9426 18.9977 15.563C19.2894 15.968 19.4642 16.4633 19.4642 16.9999C19.4642 18.3585 18.3578 19.4638 16.9997 19.4638C15.6408 19.4638 14.5355 18.3585 14.5355 16.9999C14.5358 16.4633 14.7101 15.968 15.0018 15.563ZM22.6358 21.2943C22.6358 22.0345 22.034 22.6357 21.2944 22.6357H12.7056C11.9657 22.6357 11.364 22.0345 11.364 21.2943V15.563H13.4537C13.2732 16.0069 13.1719 16.4918 13.1719 16.9999C13.1719 19.1102 14.8888 20.8284 17 20.8284C19.1109 20.8284 20.8279 19.1102 20.8279 16.9999C20.8279 16.4918 20.7259 16.0069 20.5455 15.563H22.6358V21.2943Z" fill="#725CEB"/>
</svg>
