<svg width="456" height="292" viewBox="0 0 456 292" fill="none" xmlns="http://www.w3.org/2000/svg">
<path d="M369.901 91.4999C367.801 91.7999 365.702 92.4 363.702 91.7C360.402 90.5 359.101 86.2999 357.501 82.8999C353.001 73.2999 343.101 67.0999 333.401 67.8999C329.101 68.1999 323.902 69.3999 321.202 65.7999C319.802 63.8999 319.602 61.2999 319.102 58.9999C316.802 48.1999 301.901 41.3999 292.001 43.1999C288.501 43.7999 282.302 54.2999 279.202 52.4999C277.102 51.2999 274.301 39.5999 273.001 37.4999C264.701 23.4999 258.601 22.2999 251.001 25.8999C247.901 27.3999 245.401 31.1999 235.301 31.9999C232.901 32.1999 228.702 27.6999 226.702 26.1999C219.602 20.4999 208.901 20.1999 201.001 24.5999C197.401 26.5999 196.702 34.2999 196.702 34.2999C196.702 34.2999 188.201 25.3999 172.901 24.4999C163.201 23.8999 155.501 28.3999 155.501 28.3999C155.501 28.3999 141.601 27.9999 138.301 26.6999C131.401 23.9999 122.901 27.4999 119.301 34.4999C118.401 36.2999 114.602 40.0999 114.602 40.0999C114.602 40.0999 110.401 42.1999 107.201 41.3999C99.7015 39.3999 93.9015 38.1999 87.7015 43.2999C81.5015 48.4999 82.7015 52.3999 82.7015 52.3999C82.7015 52.3999 69.5015 54.9999 67.2015 55.9999C57.6015 59.9999 56.2015 68.2 54.3015 71.7C50.4015 79 45.6015 79.3999 39.1015 83.8999C32.6015 88.3999 29.9015 96.3 29.9015 104.7C29.9015 110.3 21.8015 110.1 18.5015 114.3C16.7015 116.6 13.0015 125.7 11.0015 127.9C5.6015 133.6 9.7015 156.9 8.6015 160.4C7.0015 165.7 5.6015 173.8 6.5015 179.3C9.1015 195.2 -1.4985 209.6 1.1015 225.5C2.4015 233.3 7.0015 238.7 7.0015 238.7C7.0015 238.7 53.0015 264.6 70.2015 263.9C181.601 259 290.101 224 394.501 180.7C403.601 176.9 405.301 173.7 409.901 164.1C416.801 149.5 411.502 131.8 399.202 122.5C387.002 113.3 388.401 88.8999 369.901 91.4999Z" fill="#C7DBEF"/>
<path d="M414.801 158C414.801 158 288.501 198.7 155.101 220.1C64.0008 234.7 0.300781 238.3 0.300781 238.3C0.300781 238.3 72.7008 268.9 92.9008 273.9C151.801 288.5 238.801 298.2 328.401 259.6C394.801 231 434.701 158.2 434.701 158.2L414.801 158Z" fill="#AAC9E8"/>
<path d="M422.501 157.9C422.501 157.9 277.701 211.3 164.801 233C74.2008 250.4 28.8008 249.2 28.8008 249.2C28.8008 249.2 83.0008 273 103.201 278C162.101 292.6 249.101 302.3 338.701 263.7C405.101 235.1 448.401 159.6 448.401 159.6L422.501 157.9Z" fill="#FC636B"/>
<path d="M344.4 28.8C342.9 28.9 341.4 29.0001 340 29.1001C340.8 32.3001 340.4 35.8 338.9 38.8C339.6 39 343.1 40.4 343.1 40.4C343.1 40.4 344.4 37.3 344.7 34.5C344.9 31.4 344.1 28.8 344.4 28.8Z" fill="#FDFDFD"/>
<path d="M249.301 2.5C247.801 2.6 246.301 2.7 244.901 2.8C245.701 6 245.301 9.5 243.801 12.5C244.501 12.7 248.001 14.1 248.001 14.1C248.001 14.1 249.301 11 249.601 8.2C249.901 5.2 249.101 2.6 249.301 2.5Z" fill="#F2A139"/>
<path d="M350.5 0.800049C349 0.900049 347.5 1.00005 346.1 1.10005C346.9 4.30005 346.5 7.80005 345 10.8C345.7 11 349.2 12.4 349.2 12.4C349.2 12.4 350.5 9.30005 350.8 6.50005C351.1 3.50005 350.2 0.800049 350.5 0.800049Z" fill="#F2A139"/>
<path d="M78.3 129.8C78.3 138 71.6 144.7 63.4 144.7C55.2 144.7 48.5 138 48.5 129.8C48.5 121.6 55.2 114.9 63.4 114.9C71.6 114.9 78.3 121.6 78.3 129.8Z" fill="white"/>
<path d="M184.701 36.7002C184.701 41.4002 180.901 45.2002 176.201 45.2002C171.501 45.2002 167.701 41.4002 167.701 36.7002C167.701 32.0002 171.501 28.2002 176.201 28.2002C180.901 28.1002 184.701 31.9002 184.701 36.7002Z" fill="white"/>
<path d="M309.601 77.9001C309.601 84.0001 304.701 88.9001 298.701 88.9001C292.701 88.9001 287.801 84.0001 287.801 77.9001C287.801 71.8001 292.701 66.9001 298.701 66.9001C304.701 67.0001 309.601 71.9001 309.601 77.9001Z" fill="white"/>
<path d="M19.8015 237L18.6015 181.7C18.6015 181.7 18.4015 174.6 14.3015 175.1C11.1015 175.5 11.2015 182.5 11.2015 182.5L12.2015 238.7L19.8015 237Z" fill="#9CC4E5"/>
<path d="M19.8 168.9C19.8 171.9 17.4 174.3 14.4 174.3C11.4 174.3 9 171.9 9 168.9C9 165.9 11.4 163.5 14.4 163.5C17.4 163.5 19.8 166 19.8 168.9Z" fill="#9CC4E5"/>
<path d="M18.1016 176.3L10.9016 176.5C10.2016 176.5 9.60156 176 9.60156 175.3C9.60156 174.6 10.1016 174 10.8016 174L18.0016 173.8C18.7016 173.8 19.3016 174.3 19.3016 175C19.3016 175.7 18.8016 176.3 18.1016 176.3Z" fill="#9CC4E5"/>
<path d="M79.5 232.8L78.3 179.5C78.3 179.5 78.1 172.7 74.1 173.2C71 173.6 71.1 180.4 71.1 180.4L72.1 234.5L79.5 232.8Z" fill="#9CC4E5"/>
<path d="M79.5016 167.2C79.5016 170.1 77.2016 172.4 74.3016 172.4C71.4016 172.4 69.1016 170.1 69.1016 167.2C69.1016 164.3 71.4016 162 74.3016 162C77.2016 162.1 79.5016 164.4 79.5016 167.2Z" fill="#9CC4E5"/>
<path d="M77.9016 174.4L70.9016 174.6C70.2016 174.6 69.7016 174.1 69.6016 173.4C69.6016 172.7 70.1016 172.2 70.8016 172.1L77.8016 171.9C78.5016 171.9 79.0016 172.4 79.1016 173.1C79.1016 173.8 78.6016 174.3 77.9016 174.4Z" fill="#9CC4E5"/>
<path d="M128.501 226.6L127.401 175.2C127.401 175.2 127.201 168.6 123.601 169.1C120.801 169.5 120.901 176 120.901 176L121.801 228.2L128.501 226.6Z" fill="#9CC4E5"/>
<path d="M128.502 163.2C128.502 166 126.402 168.2 123.802 168.2C121.202 168.2 119.102 166 119.102 163.2C119.102 160.4 121.202 158.2 123.802 158.2C126.402 158.3 128.502 160.5 128.502 163.2Z" fill="#9CC4E5"/>
<path d="M127.101 170.1L120.801 170.3C120.201 170.3 119.701 169.8 119.701 169.1C119.701 168.4 120.201 167.9 120.801 167.9L127.101 167.7C127.701 167.7 128.201 168.2 128.201 168.9C128.201 169.6 127.701 170.1 127.101 170.1Z" fill="#9CC4E5"/>
<path d="M401 163.3L400.6 142.8C400.6 142.8 400.5 140.2 399 140.4C397.8 140.6 397.9 143.2 397.9 143.2L398.3 164.1L401 163.3Z" fill="#AAC9E8"/>
<path d="M401.002 138C401.002 139.1 400.102 140 399.002 140C397.902 140 397.102 139.1 397.102 138C397.102 136.9 398.002 136 399.002 136C400.102 136 401.002 136.9 401.002 138Z" fill="#AAC9E8"/>
<path d="M400.401 140.7L397.801 140.8C397.501 140.8 397.301 140.6 397.301 140.3C397.301 140 397.501 139.8 397.801 139.8L400.401 139.7C400.701 139.7 400.901 139.9 400.901 140.2C400.801 140.5 400.601 140.7 400.401 140.7Z" fill="#AAC9E8"/>
<path d="M347.401 178.2L346.701 151.4C346.701 151.4 346.601 148 344.401 148.2C342.701 148.4 342.701 151.8 342.701 151.8L343.301 179.1L347.401 178.2Z" fill="#AAC9E8"/>
<path d="M347.402 145.2C347.402 146.6 346.102 147.8 344.502 147.8C342.902 147.8 341.602 146.6 341.602 145.2C341.602 143.8 342.902 142.6 344.502 142.6C346.102 142.6 347.402 143.7 347.402 145.2Z" fill="#AAC9E8"/>
<path d="M346.5 148.8L342.7 148.9C342.3 148.9 342 148.6 342 148.3C342 148 342.3 147.7 342.7 147.7L346.5 147.6C346.9 147.6 347.2 147.9 347.2 148.2C347.2 148.5 346.9 148.8 346.5 148.8Z" fill="#AAC9E8"/>
<path d="M417.301 158.4L416.901 143.5C416.901 143.5 416.801 141.6 415.601 141.7C414.701 141.8 414.701 143.7 414.701 143.7L415.001 158.9L417.301 158.4Z" fill="#AAC9E8"/>
<path d="M417.302 140C417.302 140.8 416.602 141.4 415.702 141.4C414.802 141.4 414.102 140.8 414.102 140C414.102 139.2 414.802 138.6 415.702 138.6C416.602 138.5 417.302 139.2 417.302 140Z" fill="#AAC9E8"/>
<path d="M416.801 142L414.701 142.1C414.501 142.1 414.301 142 414.301 141.8C414.301 141.6 414.501 141.5 414.701 141.4L416.801 141.3C417.001 141.3 417.201 141.4 417.201 141.6C417.101 141.8 417.001 142 416.801 142Z" fill="#AAC9E8"/>
<path d="M381.601 169.7L381.101 147.3C381.101 147.3 381.001 144.4 379.401 144.6C378.201 144.8 378.201 147.6 378.201 147.6L378.601 170.4L381.601 169.7Z" fill="#AAC9E8"/>
<path d="M381.6 142.1C381.6 143.3 380.7 144.3 379.5 144.3C378.3 144.3 377.4 143.3 377.4 142.1C377.4 140.9 378.3 139.9 379.5 139.9C380.7 139.9 381.6 140.9 381.6 142.1Z" fill="#AAC9E8"/>
<path d="M380.902 145.1L378.102 145.2C377.802 145.2 377.602 145 377.602 144.7C377.602 144.4 377.802 144.2 378.102 144.2L380.902 144.1C381.202 144.1 381.402 144.3 381.402 144.6C381.402 144.9 381.202 145.1 380.902 145.1Z" fill="#AAC9E8"/>
<path d="M34.6016 193.3C38.4016 195.3 42.9016 196.4 47.1016 196.1C54.4016 195.4 59.6016 192.1 64.1016 187.3C68.5016 182.5 71.2016 177.4 74.3016 171.6C75.0016 178.6 73.2016 186.1 70.3016 192.8C67.4016 199.5 63.7016 206.3 57.5016 210C49.1016 215 40.0016 213.4 36.1016 211.8C30.0016 209.4 23.6016 201.5 20.9016 195.5C17.7016 188.7 15.8016 181.3 15.1016 173.8C15.1016 173.6 17.3016 175.5 17.4016 175.6C17.9016 176.3 17.7016 177.4 18.1016 178.2C19.2016 180.4 21.2016 182.5 22.8016 184.2C26.1016 187.9 30.2016 191 34.6016 193.3Z" fill="#9CC4E5"/>
<path d="M39.4008 199.3C45.8008 200.2 52.0008 199.4 57.0008 194.5C58.3008 193.2 60.4008 191.3 61.8008 189.2C60.7008 193.9 59.6008 197.2 57.3008 201C56.2008 202.8 54.6008 204.7 53.1008 206C47.8008 210.5 39.7008 209.1 34.4008 204.7C29.2008 200.4 24.5008 192.7 20.8008 186.6C23.3008 189.1 32.1008 198.4 39.4008 199.3Z" fill="#8FB3DB"/>
<path d="M91.2012 191.1C94.5012 192.7 98.4012 193.7 102.101 193.4C108.501 192.9 113.001 190.1 116.901 186.1C120.801 182.1 123.101 177.9 125.801 173.1C126.401 178.9 124.801 185.1 122.301 190.7C119.801 196.2 116.601 201.9 111.201 205C103.901 209.1 96.0012 207.8 92.5012 206.5C87.2012 204.5 81.7012 198 79.2012 193C76.4012 187.4 74.7012 181.2 74.2012 175C74.2012 174.8 76.1012 176.4 76.2012 176.5C76.6012 177.1 76.5012 178 76.8012 178.6C77.8012 180.4 79.5012 182.1 80.9012 183.6C83.8012 186.6 87.3012 189.2 91.2012 191.1Z" fill="#9CC4E5"/>
<path d="M97.8016 198C102.702 198.5 107.402 198 111.202 195C112.202 194.2 113.802 193 114.902 191.7C114.002 194.6 113.202 196.7 111.502 199C110.702 200.1 109.402 201.3 108.302 202.1C104.302 204.9 98.1016 204.1 94.0016 201.3C90.0016 198.6 86.4016 193.8 83.6016 190C85.4016 191.7 92.2016 197.4 97.8016 198Z" fill="#8FB3DB"/>
<path d="M138.201 185.3C141.301 186.3 144.901 186.8 148.201 186.1C153.901 185 157.701 182.2 160.801 178.4C163.901 174.7 165.601 170.9 167.601 166.5C168.701 171.4 167.901 176.8 166.101 181.7C164.401 186.6 162.001 191.8 157.401 194.9C151.201 199.1 144.001 198.8 140.701 198.1C135.701 196.9 130.101 192 127.501 188C124.501 183.5 122.401 178.5 121.301 173.3C121.301 173.2 123.101 174.3 123.201 174.4C123.701 174.9 123.601 175.6 124.001 176.1C125.101 177.5 126.701 178.8 128.201 179.9C131.201 182.3 134.601 184.1 138.201 185.3Z" fill="#9CC4E5"/>
<path d="M403.301 145.8C404.301 146.4 405.501 146.9 406.701 146.9C408.801 147 410.301 146.3 411.701 145.3C413.101 144.3 414.001 143.1 415.101 141.8C415.101 143.6 414.301 145.4 413.301 147C412.301 148.6 411.001 150.1 409.201 150.8C406.701 151.7 404.201 151 403.101 150.5C401.501 149.7 399.901 147.5 399.401 145.9C398.701 144.1 398.401 142.2 398.501 140.3C398.501 140.2 399.001 140.8 399.101 140.8C399.201 141 399.101 141.2 399.201 141.5C399.401 142.1 399.901 142.7 400.301 143.2C401.101 144.2 402.201 145.1 403.301 145.8Z" fill="#AAC9E8"/>
<path d="M386.301 147.8C387.601 148.4 389.001 148.7 390.401 148.6C392.801 148.4 394.501 147.4 395.901 145.9C397.301 144.5 398.201 143 399.201 141.2C399.501 143.3 398.901 145.5 398.001 147.5C397.101 149.5 395.901 151.5 393.901 152.6C391.201 154.1 388.201 153.7 386.901 153.2C384.901 152.5 382.801 150.2 381.801 148.4C380.701 146.4 380.001 144.2 379.801 142C379.801 141.9 380.501 142.5 380.501 142.5C380.701 142.7 380.601 143 380.801 143.3C381.201 143.9 381.801 144.6 382.401 145.1C383.501 146.3 384.801 147.2 386.301 147.8Z" fill="#AAC9E8"/>
<path d="M351.901 154.7C353.101 155.3 354.501 155.6 355.901 155.5C358.201 155.3 359.801 154.3 361.201 152.8C362.601 151.4 363.401 149.9 364.301 148.1C364.601 150.2 364.001 152.4 363.201 154.4C362.301 156.4 361.201 158.4 359.301 159.5C356.701 161 353.801 160.6 352.501 160.1C350.601 159.4 348.501 157.1 347.601 155.3C346.601 153.3 345.901 151.1 345.701 148.9C345.701 148.8 346.401 149.4 346.401 149.4C346.601 149.6 346.501 149.9 346.601 150.2C347.001 150.8 347.601 151.4 348.101 152C349.201 153.1 350.501 154 351.901 154.7Z" fill="#AAC9E8"/>
<path d="M168.9 23.5C169.7 26.1 170.2 28.8 170.6 31.5C170.6 31.7 170.6 31.9 170.5 32.1C170.4 32.3 170.2 32.3 170 32.4C168 33 165.9 33.6 163.9 34.1C165.7 36.6 168.9 37.7 170.7 40.1C171.3 40.8 171.7 41.7 172.5 42.2C173.8 43.1 175.5 42.8 177 43.2C178.7 43.6 180.2 44.8 181.5 46C183.2 47.5 184.9 49 186.5 50.5C185.5 47.8 184.6 45 183.6 42.3C183.4 41.6 183.1 40.9 183 40.2C182.9 38.9 183.2 37.7 183.4 36.4C183.6 35.1 183.5 33.7 182.7 32.8C182.4 32.5 182.1 32.2 182.1 31.8C182.1 31.6 182.2 31.4 182.3 31.2C183.4 29.3 184.6 27.4 185.7 25.4C183.6 26.5 181.5 27.6 179.4 28.8C178.5 29.3 177.5 29.8 176.5 29.9C174.6 30.2 174 29 172.9 27.8C171.8 26.2 170.3 24.8 168.9 23.5Z" fill="white"/>
<path d="M90.3016 112.8C93.5016 115.1 98.4016 113.5 100.702 110.5C103.102 107.4 103.602 103.4 103.702 99.6001C103.902 92.0001 95.8016 81.7001 88.8016 90.5001C84.8016 95.5001 84.8016 109 90.3016 112.8Z" fill="#CDE8F7"/>
<path d="M119.201 60.4001C122.201 62.3001 126.801 61.0001 129.001 58.4001C131.201 55.8001 131.701 52.4001 131.801 49.1001C132.001 42.6001 124.401 33.8001 117.801 41.4001C114.001 45.6001 114.001 57.2001 119.201 60.4001Z" fill="#CBE4F7"/>
<path d="M81.1006 78.6C83.3006 80 86.7006 79 88.3006 77.1C90.0006 75.2 90.3006 72.6 90.4006 70.2C90.5006 65.4 84.9006 58.9 80.1006 64.5C77.3006 67.6 77.3006 76.2 81.1006 78.6Z" fill="#CBE4F7"/>
<path d="M198.7 80.4C200.9 81.8 204.3 80.8 205.9 78.9C207.6 77 207.9 74.4 208 72C208.1 67.2 202.5 60.7 197.7 66.3C195 69.4 195 78 198.7 80.4Z" fill="#CBE4F7"/>
<path d="M338.501 85.2001C340.701 86.6001 344.101 85.6001 345.701 83.7001C347.401 81.8001 347.701 79.2 347.801 76.8C347.901 72 342.301 65.5001 337.501 71.1001C334.701 74.2001 334.701 82.7001 338.501 85.2001Z" fill="#CBE4F7"/>
<path d="M350.202 130.2C352.302 131.4 355.502 130.6 357.002 128.9C358.602 127.2 358.901 125 358.901 123C359.001 118.9 353.802 113.3 349.202 118.1C346.602 120.7 346.602 128.1 350.202 130.2Z" fill="#CBE4F7"/>
<path d="M23.0006 137.1C25.8006 139.1 30.0006 137.7 32.1006 135C34.2006 132.3 34.6006 128.8 34.7006 125.5C34.9006 118.9 27.8006 109.9 21.6006 117.6C18.2006 121.9 18.2006 133.7 23.0006 137.1Z" fill="#CDE8F7"/>
<path d="M143.801 134.5C145.901 136 149.201 135 150.701 132.9C152.301 130.9 152.601 128.2 152.701 125.6C152.801 120.5 147.501 113.7 142.801 119.6C140.201 123 140.201 132 143.801 134.5Z" fill="#CDE8F7"/>
<path d="M156.5 104.2C153.7 104.6 150.8 104.9 148 105.3C147 105.4 146 105.6 145 105.4C143.2 105.1 141.8 103.7 140.5 102.4C137.1 99 133.9 95.4 129.8 92.8C125.7 90.2 120.6 88.7 115.9 90C113.7 90.6 111.6 91.8 109.4 91.2C107.9 90.8 106.7 89.6 105.5 88.6C98.1 82.4 85.4 83.9 79.8 91.7C78.7 93.2 77.9 94.9 76.4 95.9C74.7 97.1 72.5 97.2 70.5 97.4C64.7 97.7 58.8 98.1 53 98.4C61.6 92.5 70.1 86.6 78.7 80.8C82.1 78.4 85.6 76.1 89.5 74.4C98.4 70.7 109.1 71.5 117.3 76.4C118.9 77.3 120.5 78.5 122.3 78.5C124.6 78.6 126.5 77 128.7 76.4C134.6 74.8 140 80.4 146 81C155 81.8 163.6 71.4 171.8 75.3C177.2 77.9 179.5 85.9 185.5 86C192 86.1 193.8 77.2 199 73.3C201 71.8 203.5 71.1 205.9 70.5C224.6 65.9 244.3 65.3 263.3 68.7C250.7 72 239.3 79.7 231.6 90C230.8 91.1 229.8 92.4 228.4 92.7C227.4 92.9 226.4 92.6 225.5 92.3C218 89.8 208.9 87.8 202.8 92.7C200.2 94.7 198.5 97.8 195.7 99.4C188.3 103.6 177.8 96 170.6 100.6C167.8 102.4 166.2 105.9 163.1 107.3C159.5 108.9 162.3 103.6 158.8 101.9C157.3 105.2 163.8 91 163.3 94.6" fill="#BAD4E8"/>
<path d="M44.5008 78.2C45.2008 81.7 57.4008 109.9 56.5008 111C55.4008 112.3 53.6008 112.8 51.9008 113.1C48.9008 113.5 45.7008 113.4 42.8008 112.6C45.7008 114.9 48.9008 117.9 48.5008 121.5C48.3008 123.3 47.2008 124.9 46.1008 126.3C44.0008 128.9 26.8008 137 24.3008 139.3C27.2008 138.5 45.1008 132.1 48.1008 131.5C48.6008 131.4 49.2008 131.3 49.7008 131.5C50.2008 131.7 50.5008 132.2 50.7008 132.7C52.8008 136.8 50.8008 141.6 49.5008 145.8C52.5008 142.5 55.0008 138.5 59.2008 138.6C61.8008 138.7 63.4008 141.3 64.6008 143.5C67.7008 149.4 70.5008 170.5 73.7008 176.4C73.1008 170.6 72.9008 149.7 72.3008 144C72.2008 142.8 72.1008 141.5 72.6008 140.4C73.2008 139 74.8008 136.8 76.4008 136.6C80.3008 136 84.3008 136.3 88.4008 136.4C86.8008 134.9 80.5008 127.7 81.0008 125.7C81.5008 123.8 82.8008 122.6 84.5008 121.6C89.5008 118.8 120.301 101.2 123.801 98.0999C118.401 100.7 83.9008 113.1 78.1008 114.4C77.3008 111.4 79.1008 104.9 79.9008 99.2999C78.3008 101.7 73.0008 106 70.6008 108.1C69.9008 108.7 69.4008 109.6 68.5008 109.3C67.9008 109.1 65.9008 103.4 66.1008 102.8C66.3008 103.5 63.2008 107.1 62.7008 107.7C60.3008 106.7 45.9008 80.5 44.5008 78.2Z" fill="white"/>
<path d="M299.599 102.3C299.599 102.3 304.299 97.6001 309.899 102.3C315.499 107 342.799 162.7 342.799 162.7C342.799 162.7 338.499 171.5 336.099 176.8C333.699 182.1 328.999 185.9 326.999 185.9C324.899 185.9 310.799 169.4 306.399 164.7C301.999 160 291.099 125.2 292.299 120.8C293.399 116.5 299.599 102.3 299.599 102.3Z" fill="#242447"/>
<path d="M330.398 152C330.398 152 350.998 150.4 360.598 146.1C370.198 141.8 373.598 140.5 373.598 140.5C373.598 140.5 374.898 151.1 377.098 153.8C379.198 156.5 379.798 157.8 379.798 157.8C379.798 157.8 360.898 171.3 350.298 177.5C339.698 183.6 334.398 186.8 329.098 186.8C323.298 186.9 318.698 177.7 319.098 177L330.398 152Z" fill="#242447"/>
<path d="M314.1 240.8C314.1 240.8 317.5 199.1 318.5 174C319.4 148.9 315.1 132.6 313.4 124C311.7 115.4 305.3 101 305.3 101C305.3 101 276 100.1 267.3 100.7C258.7 101.3 232.2 109.9 221 115.4C209.8 120.9 200.6 126.9 200.6 126.9C200.6 126.9 209.2 181.5 212.7 193C216.2 204.5 221.1 219.4 222.3 223.7C223.7 228.7 221.9 242 221.9 242L205.2 290.6C205.2 290.6 233.5 291.5 260.9 287.4C286.2 283.6 314.6 274.9 314.6 274.9C314.6 274.9 313.6 244.1 314.1 240.8Z" fill="#302F4F"/>
<path d="M266.199 100.2L273.299 100.4C273.299 100.4 280.399 112.3 281.299 135.8C281.899 152.3 282.699 189.7 282.699 189.7C282.699 189.7 267.499 148.7 257.199 135.5C245.299 120.3 228.699 112.6 228.699 112.6L266.199 100.2Z" fill="white"/>
<path d="M271.099 101C271.099 101 268.499 98.5001 266.299 93.5001C264.099 88.5001 261.399 81.6001 261.399 81.6001L226.799 92.5001C226.799 92.5001 230.799 101.1 232.199 106.6C233.599 112.2 233.599 111.9 235.199 113C238.599 115.2 260.599 113.4 260.599 113.4L271.099 101Z" fill="#EA8C8C"/>
<path d="M385.8 136.1L348.3 217.8C348.3 217.8 344 220.1 337.7 217.4C333 215.4 331.5 211.6 331.5 211.6L366.3 129.6C366.3 129.6 370.1 126.1 379.4 130C384.2 132.1 385.8 136.1 385.8 136.1Z" fill="#F2A139"/>
<path d="M384.498 136C383.998 137.5 379.698 137.5 374.898 136C370.098 134.4 366.598 131.9 367.098 130.4C367.598 128.9 371.898 128.9 376.698 130.4C381.498 131.9 384.998 134.4 384.498 136Z" fill="#CB7A21"/>
<path d="M220.699 114.3L245.699 145.2H251.599L248.599 153.6L285.699 213.2C285.699 213.2 275.899 157.6 265.399 143.1C254.899 128.5 232.399 108.9 232.399 108.9L220.699 114.3Z" fill="#1C1D3A"/>
<path d="M272.398 99.8C272.398 99.8 280.498 115.3 281.998 130.7C283.498 146.1 283.798 161.6 283.198 171.6C282.898 177 281.198 192.7 281.198 192.7L287.698 213.7L294.898 143L288.098 138.8L294.298 135.6C294.298 135.6 292.098 122 288.798 111.8C286.398 104.4 283.298 99 283.298 99L272.398 99.8Z" fill="#1C1D3A"/>
<path d="M363.6 136.3C363.6 136.3 366.8 143 371.4 147.5C376 152 378.5 153.9 378.5 153.9L375.7 158.4C375.7 158.4 369.8 154.4 365.5 149.2C362.8 145.9 361 142.6 361 142.6" fill="#6E60E3"/>
<path d="M355.2 155.9C355.2 155.9 358.3 162.7 362.7 167.3C367.2 171.9 368.8 173.2 368.8 173.2L366.4 178.2C366.4 178.2 361.1 174.4 356.9 169C354.3 165.6 352.6 162.4 352.6 162.4" fill="#6E60E3"/>
<path d="M345 179.7C345 179.7 346.7 182.9 349.3 186.3C353.4 191.6 358.8 195.5 358.8 195.5L361.2 190.5C361.2 190.5 359.6 189.2 355.1 184.6C350.6 180 347.5 173.2 347.5 173.2" fill="#6E60E3"/>
<path d="M336.6 195.6C336.6 195.6 339.7 202.4 344.1 207C348.6 211.6 350.2 212.9 350.2 212.9L347.8 217.9C347.8 217.9 342.5 214.1 338.3 208.7C335.7 205.3 334 202.1 334 202.1" fill="#5A5CA5"/>
<path d="M385.199 145.9C385.199 145.9 378.499 139.6 373.999 138C369.499 136.5 367.799 136.7 367.199 138.2C366.599 139.7 371.899 143.6 373.799 145.8C375.699 148 379.299 150.9 379.299 150.9C379.299 150.9 367.499 147.4 364.299 146.9C361.099 146.5 361.299 150 361.599 150.9C361.999 151.8 363.399 153.5 363.399 153.5C363.399 153.5 359.699 154.1 359.199 156.5C358.599 158.9 360.399 160.2 360.399 160.2C360.399 160.2 357.999 161.7 358.899 163.5C359.799 165.2 368.699 169.6 372.499 171.2C376.299 172.7 378.599 172.3 379.199 170.1C379.799 167.9 380.399 166.2 380.399 166.2C380.399 166.2 382.499 165.9 383.099 163.7C383.699 161.4 382.499 160.3 382.499 160.3C382.499 160.3 383.699 160 384.499 157.9C384.899 156.9 383.899 153.9 384.199 153.6C387.099 150.8 385.199 145.9 385.199 145.9Z" fill="#F4B8B8"/>
<path d="M262.898 120.8C263.998 121.5 265.698 121.1 266.598 120.2C267.598 119.2 267.798 117.7 267.398 116.4C265.298 111.1 256.598 116.6 262.898 120.8Z" fill="#1C1D3A"/>
<path d="M269.5 107C269.7 106.8 269.9 106.5 270.2 106.5C270.4 106.5 270.6 106.6 270.8 106.8C272 107.9 272.6 111.1 273.3 112.1C273.8 112.7 275.2 115.6 275.5 116.4C275.8 117.1 275.8 118 275.2 118.5C274.8 118.9 274.1 118.9 273.6 119C271.2 119.2 268.8 119.3 266.4 119.4C266.1 119.4 265.7 119.4 265.4 119.2C265.2 119 265.1 118.8 265 118.5C263.8 114.6 267.3 110 269.5 107Z" fill="#1C1D3A"/>
<path d="M257.598 127.5C257.398 127.7 257.098 128 256.798 128C256.598 128 256.298 127.9 256.098 127.8C254.598 126.8 254.098 123.8 253.198 122.9C252.698 122.3 250.998 119.6 250.698 118.9C250.398 118.2 250.398 117.4 251.198 116.9C251.698 116.5 252.498 116.5 253.198 116.5C256.098 116.4 258.998 116.2 261.898 116.1C262.298 116.1 262.698 116.1 262.998 116.3C263.298 116.5 263.398 116.7 263.398 116.9C264.698 120.4 260.398 124.7 257.598 127.5Z" fill="#1C1D3A"/>
<path d="M260.4 107.1C259.9 108.4 259.4 109.7 258.3 110.6C257.4 111.3 256.3 111.7 255.2 111.9C251.9 112.4 248.7 111.3 245.6 110.1C241.2 108.4 236.9 106.4 232.7 104.2C232.2 104 231.8 103.7 231.4 103.3C231 102.8 230.8 102.2 230.6 101.6C229.9 99.2 229.2 96.8 228.5 94.3C233.6 95 238.7 95.7 243.9 96.4C246.2 96.7 248.6 97 250.8 96.3C253.2 95.5 259.5 88.7 261.5 91.4C262.8 93 262.2 97 262 98.9C261.9 101.7 261.4 104.5 260.4 107.1Z" fill="#CC6A6A"/>
<path d="M254.499 66.8001C253.999 65.5001 255.699 60.6001 256.299 59.6001C256.999 58.6001 258.099 57.8001 259.299 57.9001C260.699 58.1001 261.499 59.5001 262.099 60.9001C262.899 62.9001 263.399 65.0001 263.799 67.1001C264.199 69.4001 264.399 71.9001 263.499 74.2001C263.199 74.9001 262.799 75.6001 262.199 75.9001C261.499 76.2001 260.699 75.9001 259.999 75.6001C256.299 73.4001 255.799 71.9001 254.499 67.6001" fill="#E28282"/>
<path d="M253.799 45.1C253.799 45.1 255.599 50.5 256.999 54.1C258.299 57.7 258.099 60.4 258.099 60.4C258.099 60.4 262.399 66.8 263.199 70.9C263.999 75 263.299 84.2 263.599 91.6C263.799 97.3 262.899 100.1 262.599 101.6C262.299 103.1 255.699 105.9 251.799 106.9C247.899 108 247.799 107 243.399 104.9C238.999 102.8 231.299 100.5 229.299 98.4C227.299 96.3 220.099 87.7 217.699 82.5C215.299 77.3 213.899 69.3 213.899 69.3C213.899 69.3 208.199 44.6 225.499 39C242.699 33.5 253.799 45.1 253.799 45.1Z" fill="#F4B8B8"/>
<path d="M258 61C258 61 258 58.2999 257.7 55.8999C257.4 53.4999 254.1 44.4999 252.6 41.3999C251 38.2999 248.2 32.5 245.2 31.6C242.3 30.7 228 30.7 221.8 32.5C215.7 34.3 211.8 36.5 211.8 36.5C211.8 36.5 214.6 36.7 214.3 37.1C213.9 37.5 207.6 41.1 205.1 44.5C201.5 49.4 201.5 55.3999 201.5 55.3999C201.5 55.3999 203.4 62.2999 204.9 65.2999C206.4 68.1999 209.5 73.7 210.6 75.6C213.5 80.9 217.5 84.3999 217.5 84.3999L219.7 81C219.7 81 217.5 72.8 216.5 68.1C214.7 59.6 215.5 52.7999 217.5 50.7999C221.3 46.8999 232.6 46.1 234.9 45.1C237.1 44.1 234.8 44.2 237.3 42.6C239.7 41 246 40.9 248.6 43C251.2 45.1 253 50 254.4 52.7C255.7 55.4 258 61 258 61Z" fill="#5C4A43"/>
<path d="M255.999 56.2C255.999 56.2 247.799 55.9999 246.599 57.7999C245.299 59.5999 244.599 64.3999 245.699 67.2999C247.699 72.4999 251.999 76.0999 252.599 76.7999C253.899 78.0999 250.299 81.4 250.299 81.4C250.299 81.4 252.499 84.4 253.499 85.5C254.499 86.6 252.899 86.9 252.899 86.9C252.899 86.9 255.199 89.5999 254.999 90.2999C254.899 90.9999 253.899 92.8 253.999 93.5C254.099 94.2 256.899 98 257.699 100C258.699 102.7 257.499 104.6 257.499 104.6C257.499 104.6 262.599 103.4 262.999 101.1C263.599 97.1 262.999 87.9 263.399 84.6C263.799 81.2 264.699 76.3 262.799 70.5C260.899 64.7 257.999 61 257.999 61L255.999 56.2Z" fill="#EA9696"/>
<path d="M258.4 83.5C258.4 83.5 252.2 86.2 248.9 87.3C245.6 88.4 242.1 90.1 242.1 90.1C242.1 90.1 246 92.8 247.7 93.5C249.3 94.1 252.4 94 254.6 92.9C256.9 91.8 257.8 90.3 257.8 88.5C257.8 86.7 258.4 83.5 258.4 83.5Z" fill="white"/>
<path d="M252.1 63.7001C252.7 63.5001 255.3 63.0001 256.5 63.7001C257.1 64.0001 256.6 64.5001 256.3 64.8001C251.4 68.0001 248.6 67.2001 248.6 67.2001C248.6 67.2001 249.2 64.8001 252.1 63.7001Z" fill="white"/>
<path d="M232.699 71.3C234.499 70.5 236.199 70.8 237.899 71.6C237.499 71.9 237.499 72.1 237.099 72.4C236.899 72.5 236.699 72.7 236.499 72.8C235.699 73.4 234.999 74 234.099 74.4C233.399 74.7 232.699 75 231.899 75.1C231.399 75.2 230.999 75.2 230.499 75.2C229.599 75.3 229.099 75.3 228.199 75.4C229.699 74 230.799 72.2 232.699 71.3Z" fill="white"/>
<path d="M237.399 64.5001C237.399 64.5001 234.199 65.2001 231.499 66.5001C228.899 67.8001 226.899 69.1 225.399 70.3C224.099 71.4 222.699 73.2001 222.699 73.2001C222.699 73.2001 222.899 69.8001 224.299 67.1001C225.999 64.0001 230.699 62.4 232.899 62.3C236.499 62.2 237.399 64.5001 237.399 64.5001Z" fill="#5C4A43"/>
<path d="M257.499 57.7001C257.499 57.7001 255.799 57.5001 252.599 58.2001C249.399 58.9001 246.899 60.5001 246.299 61.1001C245.699 61.7001 245.299 62.3001 245.299 62.3001C245.299 62.3001 243.999 57.8001 247.499 56.1001C250.999 54.4001 254.599 55.3001 255.899 55.8001C257.099 56.4001 257.699 57.2001 257.699 57.2001L257.499 57.7001Z" fill="#5C4A43"/>
<path d="M237.999 71.2C237.999 71.2 235.799 69.1 233.299 69.9C230.799 70.7 228.899 72.6 228.399 73.2C227.899 73.9 227.199 75.6 227.199 75.6C227.199 75.6 231.999 71.9 234.299 71.3C236.599 70.9 237.999 71.2 237.999 71.2Z" fill="#242538"/>
<path d="M257.6 64C257.6 64 256.6 61.9 254.2 62.4C251.9 62.8 249.9 64 249.3 64.6C248.7 65.2 248.1 67.1 248.1 67.1C248.1 67.1 250.7 64.1 254.2 63.7C256.3 63.6 257.6 64 257.6 64Z" fill="#242538"/>
<path d="M235.699 72.5001C235.699 73.4001 234.999 74.2001 234.099 74.3001C233.199 74.3001 232.399 73.6001 232.299 72.7001C232.299 71.8001 232.999 71.0001 233.899 70.9001C234.799 70.8001 235.599 71.6001 235.699 72.5001Z" fill="#242538"/>
<path d="M255.099 64.8001C255.099 65.7001 254.299 66.4001 253.399 66.4001C252.499 66.4001 251.799 65.6001 251.799 64.7001C251.799 63.8001 252.599 63.1001 253.499 63.1001C254.399 63.1001 255.199 63.9001 255.099 64.8001Z" fill="#242538"/>
<path d="M247.5 79.7001C246.9 80.4001 243.9 81.8001 243.5 81.4001C243.5 82.0001 243.5 82.5001 243.8 83.0001C244 83.3001 244.8 83.5001 245.2 83.4001C245.6 83.3001 246.2 83.3001 246.5 83.0001C246.9 82.7001 247.9 81.7001 248.4 81.7001C248.8 81.8001 250.8 81.5 251.2 81.3C252.4 80.8 253 80.6 253.4 80.3C254 79.8 253.8 78.8 253.4 78.3C253 77.8 252.6 76.8 252.6 76.8C252.6 76.8 252.2 77.7 251.1 78.3C250 78.9 248 79.0001 247.5 79.7001Z" fill="#B26B6E"/>
<path d="M258.098 85.6001C258.098 85.6001 255.798 87.1001 252.698 88.2001C249.598 89.3001 243.398 91.2001 243.398 91.2001C243.398 91.2001 245.598 92.7001 246.498 92.9001C247.498 93.1001 251.698 92.6001 254.498 91.5001C256.398 90.7001 257.698 89.6001 257.698 89.6001L258.098 86.0001V85.6001Z" fill="#47302F"/>
<path d="M218.299 82.8001C217.799 81.5001 216.599 77.2001 215.399 76.9001C214.199 76.6001 211.499 78.2002 210.999 79.2002C209.399 82.6002 213.499 86.5001 214.599 88.3001C215.899 90.3001 217.899 91.4002 220.099 92.5002C220.799 92.8002 221.499 93.1001 222.199 92.8001C222.999 92.5001 223.499 91.1002 223.499 91.1002C223.499 91.1002 220.399 86.7001 218.299 82.8001Z" fill="#EA9D9D"/>
<path d="M208.098 69.1C207.998 69.4 207.898 69.7 207.998 70C208.098 70.3 209.098 72.4 209.598 72.9C210.198 70.9 211.598 68.1 212.898 66.4C213.698 65.3 214.698 64.3 215.898 63.9C215.898 63.9 215.498 58.3 215.398 57.8C214.998 55.9 213.998 57.5 213.298 58.6C211.098 61.8 209.398 65.4 208.098 69.1Z" fill="#44322D"/>
<path d="M211.399 75.5001C211.299 75.7001 211.299 75.9001 211.299 76.0001C211.299 76.1001 211.399 76.2001 211.499 76.3001C211.799 76.6001 212.099 77.0001 212.299 77.3001C213.599 75.4001 214.999 73.4001 216.999 72.2001C217.099 72.2001 217.099 72.1001 217.199 72.0001C217.199 71.9001 217.199 71.9001 217.199 71.8001C216.899 70.5001 216.799 69.1001 216.399 67.9001C216.199 67.4001 216.199 67.5001 215.899 67.9001C215.599 68.3001 215.199 68.8001 214.899 69.2001C213.499 71.2001 212.399 73.3001 211.399 75.5001Z" fill="#44322D"/>
<path d="M234 36.6001C227.4 38.1001 220.8 39.7001 214.1 39.1001C216.5 38.1001 218.9 37.1 221.4 36C219.6 35.4 217.8 34.9 215.9 34.4C224.8 30.8 234.6 29.7 244 31.2C245.9 31.5 247.8 31.9 249.3 33.2C250.6 34.3 251.3 36.0001 252 37.6001C253.9 42.5001 255.6 46.7001 257.2 52.7001C256.5 49.9001 254.7 47.2 253 43.9C252.1 42.1 250.9 40.5 249.7 38.9C245.8 34.3 239 35.5001 234 36.6001Z" fill="#8C746C"/>
<path d="M261.499 69.2001C261.899 70.1001 262.399 71.1001 262.799 72.0001C262.999 72.7001 263.399 74.0001 263.199 75.5001C262.299 83.3001 262.099 91.1001 263.099 99.0001C263.499 92.0001 263.599 86.9001 264.099 79.8001C264.199 77.9001 264.999 73.8001 264.499 71.9001C263.399 67.1001 259.199 63.2001 257.299 59.1001C258.899 62.5001 259.999 65.9001 261.499 69.2001Z" fill="white"/>
<path d="M263 86.2999C263 86.2999 265.2 92.6999 266.7 95.3999C268.2 98.0999 270.4 100.8 270.4 100.8L272.8 101L282.9 99.5999L284.2 101.4L301.9 100.8C301.9 100.8 305.4 101.1 306.9 101.6C308.5 102.1 311.6 105.4 311.6 105.4C311.6 105.4 310.8 101.1 306.5 100.5C302.2 99.8999 298.5 99.8999 298.5 99.8999H285.4L283.1 98.3999C283.1 98.3999 273.1 100.1 272.4 99.5999C271.7 99.0999 269.6 97.2999 267.9 94.3999C266.2 91.4999 263 84.7 263 84.7V86.2999Z" fill="white"/>
<path d="M287.299 208.2C287.299 208.2 287.399 227.7 286.999 247.2C286.599 266.7 284.499 282.7 284.499 282.7L274.299 284.7C274.299 284.7 276.699 259.4 276.999 242C277.399 224.7 276.599 214 276.599 214L287.299 208.2Z" fill="#282849"/>
<path d="M234.9 234.7C235 235.5 235.1 236.4 235.6 237C236.1 237.5 236.9 237.7 237.6 237.8C244.4 239.1 251.3 240.4 258.1 241.6C252.1 244.3 245.7 246 239.1 246.6C241.1 249.2 243.1 251.8 245.1 254.4C241.5 254.5 238 254.5 234.4 254.6C231.9 265.2 230.8 275.6 228.3 286.2C228.2 286.8 226.9 289.3 226.5 289.8C225.9 290.6 207.6 291.5 203.5 290.1C205.8 285.2 207.4 282.6 208.8 277.4C210.9 270.1 214.5 263.4 217.4 256.4C221.7 245.8 224.1 234 221.5 222.9C220.1 217 217.4 211.3 217.7 205.3C222.1 203.1 225.3 199.5 227.9 195.4C229.4 200.5 231.9 205.6 232.9 210.8C234.4 218.6 234.3 226.9 234.9 234.7Z" fill="#242447"/>
<path d="M315.899 197.3C315.899 197.3 313.899 227.7 313.499 237.7C313.099 247.7 313.699 257.8 313.699 257.8L313.999 274.8L317.999 272.1C317.999 272.1 314.499 241.9 314.999 236.3C315.499 230.7 315.399 211.3 315.399 211.3L315.899 197.3Z" fill="white"/>
<path d="M320.798 188.1C320.798 188.1 294.398 189.5 285.798 190.3C277.198 191.1 266.498 192.1 266.498 192.1C266.498 192.1 235.298 172.5 227.898 162.5C223.598 156.8 205.498 124.4 205.498 124.4C205.498 124.4 183.098 130.5 185.698 148.9C187.298 160.2 213.198 193.2 227.498 203C241.798 212.8 255.998 222.1 260.698 222.4C265.398 222.7 302.698 217.7 309.998 216.2C317.298 214.6 320.398 213.4 320.398 213.4C320.398 213.4 320.798 203.3 320.798 199.2C320.798 195.1 320.798 188.1 320.798 188.1Z" fill="#242447"/>
<path d="M325.398 190.1C325.398 190.1 329.098 187.3 333.298 184.3C336.498 182 340.398 181.5 341.998 181.3C343.598 181.1 344.898 180.8 344.898 180.8C344.898 180.8 343.298 185.3 344.098 186.3C346.698 189.6 355.998 190.7 358.498 190C360.998 189.3 362.798 186.5 362.798 186.5C362.798 186.5 366.898 188.7 366.698 190.5C366.498 192.3 366.098 194.3 365.098 195.7C364.098 197.1 361.898 198.7 361.898 198.7C361.898 198.7 362.498 199.8 361.598 201.8C360.698 203.8 358.398 205.4 358.398 205.4C358.398 205.4 358.298 208.2 357.298 209.6C356.298 211.1 354.898 211.9 354.898 211.9C354.898 211.9 354.398 215.1 353.398 215.6C352.398 216.1 345.898 216.3 338.498 213.6C330.998 211 326.398 209.3 326.398 209.3L325.398 190.1Z" fill="#F4B8B8"/>
<path d="M355.4 200.6C355.4 200.6 358.8 203.6 357.4 204.1C356 204.6 354.4 204.8 353.3 205.9C353.3 205.9 356.3 208.6 355.9 209.6C355.8 209.9 355.6 210.3 355.3 210.5C355.1 210.7 354.8 210.7 354.5 210.8C352.8 211.4 353.3 214.8 351.7 215.5C348.6 215.3 346.7 215 343.6 214.8C346.8 215.9 349.5 216.5 352.8 217.2C355.3 216.3 354.7 212.6 356.8 211.4C357.8 210.8 358.5 209.8 358.6 208.6C358.7 207 359.1 204.9 360.1 204L360.2 203.9C361.5 202.8 362.3 201.3 362.5 199.7C362.5 199.6 362.5 199.5 362.6 199.4C362.9 198 365.5 196.3 365.5 196.3C365.5 196.3 366.6 192.3 366.6 190.1C366.6 188.8 363.1 187 363.1 187C363.1 187 365 191.7 364.5 193.4C363.7 196.1 358.7 200.9 355.4 200.6Z" fill="white"/>
<path d="M348.099 198.9C348.299 199.1 348.599 199.3 348.699 199.5C348.999 200 348.799 200.7 348.699 201.3C347.399 205.7 346.099 210.1 344.799 214.5C338.599 214.7 332.399 210.2 325.899 210.2C325.699 205 325.499 199.7 325.299 194.5C333.299 193.5 341.199 194 348.099 198.9Z" fill="#EAA0A0"/>
<path d="M326.499 211L325.799 188.5L320.699 188.8L320.799 211.6L326.499 211Z" fill="white"/>
<path d="M285 226.2C285 227.4 284 228.4 282.8 228.4C281.6 228.4 280.6 227.4 280.6 226.2C280.6 225 281.6 224 282.8 224C284 223.9 285 224.9 285 226.2Z" fill="#1C1D3A"/>
<path d="M284.599 247.4C284.599 248.6 283.599 249.6 282.399 249.6C281.199 249.6 280.199 248.6 280.199 247.4C280.199 246.2 281.199 245.2 282.399 245.2C283.599 245.1 284.599 246.1 284.599 247.4Z" fill="#1C1D3A"/>
<path d="M283.199 269.9C283.199 271.1 282.199 272.1 280.999 272.1C279.799 272.1 278.799 271.1 278.799 269.9C278.799 268.7 279.799 267.7 280.999 267.7C282.199 267.7 283.199 268.7 283.199 269.9Z" fill="#1C1D3A"/>
<path d="M382.799 152.7C382.799 152.7 384.099 150.6 379.799 146.4C375.499 142.3 369.899 139.1 368.699 138.7C367.499 138.3 366.199 138.7 366.199 138.7C366.199 138.7 373.499 145.6 375.999 147.8C378.499 149.9 379.399 151 379.399 151L382.799 152.7Z" fill="#EA8C8C"/>
<path d="M375.399 156.7C374.899 157 374.299 157.2 373.799 157.5C372.999 158.2 372.999 159.4 373.099 160.4C373.299 161.4 373.599 162.5 373.399 163.5C373.099 164.9 371.999 165.8 371.099 166.9C370.199 167.9 369.499 169.5 370.199 170.7C366.699 169.1 363.299 167.4 359.899 165.5C358.799 164.9 357.499 163.8 357.999 162.6C358.299 161.8 359.299 161.6 359.799 160.9C358.699 159.9 358.099 158.2 358.499 156.7C358.799 155.2 359.999 153.9 361.499 153.5C360.699 152.6 360.399 151.2 360.799 150.1C361.199 148.9 362.299 148.1 363.499 147.9C364.299 147.8 365.099 148 365.899 148.3C368.599 149.1 375.499 151.1 375.499 151.1C375.499 151.1 377.499 155.7 375.399 156.7Z" fill="#EAA0A0"/>
<path d="M313.1 249.1L298.4 252.5C298.4 252.5 297.2 257.8 299.6 258.1C302 258.3 313.4 256.4 313.4 256.4L313.1 249.1Z" fill="#1C1D3A"/>
<path d="M263.998 256.9L230.598 256.3C230.598 256.3 228.998 261.7 231.598 262.6C234.198 263.5 256.698 263.6 259.598 263.1C262.498 262.5 263.698 261.1 263.698 260.1C263.698 259 263.998 256.9 263.998 256.9Z" fill="#1C1D3A"/>
<path d="M338.6 150.6C338.6 150.6 325.8 125.9 322.6 120.6C319.4 115.3 313 108.5 313 108.5C313 108.5 324.3 128.3 329.2 137.1C334.1 146 334.3 148.8 334.3 148.8C334.3 148.8 333.7 149.9 331.5 153.1C329.2 156.3 328.5 159.1 328.5 159.1C328.5 159.1 334.3 152.7 335.5 152.1C336.5 151.7 338.6 150.6 338.6 150.6Z" fill="white"/>
<path d="M385.499 151.1C385.099 152.5 384.099 153.8 382.699 154C383.899 156.4 383.099 159.5 380.899 161.1C382.399 162.4 382.099 165 380.399 166C379.999 166.2 379.599 166.4 379.399 166.7C379.199 166.9 379.199 167.2 379.099 167.4L377.799 171.8C378.699 171.9 379.399 170.9 379.699 170C379.999 169.1 380.099 168.1 380.699 167.4C381.099 166.9 381.699 166.7 382.199 166.3C383.899 165 384.299 162.4 383.099 160.6C385.199 159.5 385.799 156.3 384.199 154.6C386.499 152.3 387.099 148.4 385.499 145.6C385.599 147.3 385.999 149.3 385.499 151.1Z" fill="white"/>
<path d="M172.399 227.1C172.399 227.8 172.499 228.5 172.199 229.1C171.799 229.9 171.099 230.4 170.299 230.9C166.699 233.1 162.999 235.3 159.499 237.7C144.099 248.3 132.499 264.7 127.199 283.2C127.399 272.9 131.899 263.2 137.899 255C143.899 246.9 148.899 242.8 156.299 236.1C159.099 233.5 167.999 229.4 168.599 225.6C169.099 222.2 166.699 216.3 164.999 213.5C162.899 209.9 158.199 204.2 156.199 200.6C154.199 196.9 154.599 193.2 155.699 189.1C155.099 191.2 162.299 205.8 163.999 207.6C168.699 212.3 171.999 220.3 172.399 227.1Z" fill="white"/>
<path d="M209.7 98.4C209.9 99.2 209.9 100.2 209.5 101C209 102 208.1 102.6 207 102.9C205.9 103.2 204.6 103.1 203.7 102.3C203.3 101.9 203 101.5 202.7 101C202.2 99.9 201.9 98.6 202.2 97.5C202.5 96.3 203.3 95.2 204.5 94.8C207 94 209.1 96.3 209.7 98.4Z" fill="#F2A03A"/>
<path d="M205.5 98.4C205.8 98.8 206.1 99.2 206.5 99.4C207 99.6 207.701 99.6 208.101 99.3C208.701 98.8 208.7 98 208.5 97.4C208.2 96.4 206.7 93.9 205 94.3C203.2 94.8 205.1 97.8 205.5 98.4Z" fill="#BF6C19"/>
<path d="M199.9 114.3C199.9 114.3 200.5 128.9 202.2 132.5C203.9 136.2 211.7 133 214.5 131.3C217.3 129.6 220.2 128.7 223.6 129.2C227 129.7 231.1 130.9 231.1 130.9C231.1 130.9 235.5 166 236.1 171.6C236.7 177.2 237.5 181 235 186.9C233.2 191.3 228.1 196 228.1 196C228.1 196 226 203.8 222.6 212.7C219.2 221.7 214.7 227.3 214.4 230.7C214.1 234.1 213.8 265.9 213.8 265.9C213.8 265.9 198.3 272.1 173 273.9C147.6 275.8 134.3 271.4 134.3 271.4C134.3 271.4 133.8 263.6 146.3 249.9C159 236 173.7 230.9 173 225.4C172.6 222 162.8 205.8 162.8 205.8C162.8 205.8 155.7 201.2 156 193.7C156.3 186.3 159.4 175.7 159.4 168.6C159.4 161.5 156 145.4 156 145.4C156 145.4 158.1 141.7 163.1 141C168.1 140.4 177.3 142.2 177.6 136.9C177.9 131.6 170.1 112.1 170.1 112.1L194.4 114.1L199.9 114.3Z" fill="#F4B8B8"/>
<path d="M325.701 82.7001C325.701 82.7001 311.401 101.5 303.301 110.1C295.201 118.8 283.501 131.1 281.301 131.7C279.101 132.3 254.701 132.9 245.801 132.7C236.901 132.5 228.901 129.9 225.001 129.7C221.201 129.5 230.001 158.7 230.001 158.7C230.001 158.7 265.601 153.9 276.301 149.9C287.001 145.9 292.001 150.3 298.501 142.4C305.001 134.5 331.801 99.4001 335.001 93.6001C338.201 87.8001 337.801 82.3 337.801 82.3L325.701 82.7001Z" fill="#F4B8B8"/>
<path d="M156.401 144.6C156.401 144.6 154.201 147.2 149.001 151.2C142.001 156.6 127.601 167.1 121.101 170.6C114.701 174.2 103.001 179.4 98.7005 181.9C94.4005 184.4 88.5005 190.3 89.4005 192.6C90.3005 194.9 88.5005 198.7 97.6005 197.6C106.701 196.5 122.301 194.2 135.701 187.6C149.101 181 158.801 174.2 158.801 174.2C158.801 174.2 165.401 156.5 164.301 153.3C163.401 150.1 156.401 144.6 156.401 144.6Z" fill="#F4B8B8"/>
<path d="M140.001 114.4C140.001 114.4 142.301 115 139.401 121.2C138.101 124 135.701 125.9 133.201 128.7C130.701 131.6 129.701 134.9 127.001 136.6C124.201 138.3 118.801 139.1 116.101 137.2C113.501 135.3 113.801 129.4 112.401 124.2C111.001 118.9 110.101 112.4 109.701 109.3C109.301 106.2 109.601 102.2 110.301 102.6C112.101 103.7 114.601 115.9 115.401 116.3C116.101 116.7 115.201 110 114.701 106C114.201 102 113.701 98.6 113.901 96.1C114.001 94.7 115.101 93.6 115.501 94.5C116.401 96.2 120.101 112.5 120.001 111.8C119.901 111.4 119.001 89.8 119.601 89C120.201 88.2 121.301 86.7999 122.201 92.2999C123.001 97.7999 125.001 111.2 125.001 111.2C125.001 111.2 125.401 103.8 126.701 99.2C128.001 94.7 128.901 92.5999 129.901 93.2999C130.901 93.9999 130.401 96.5999 129.801 102.3C129.201 108 129.801 116.4 130.201 118.9C130.601 121.4 129.801 123.9 132.101 121.3C134.401 118.7 140.001 114.4 140.001 114.4Z" fill="#F4B8B8"/>
<path d="M127 136.7C127 136.7 122.9 143.2 119.3 154.5C115.7 165.8 111.4 178.5 109.6 181.4C107.8 184.2 95.8003 197.3 91.7003 197.2C86.1003 197.1 85.6003 185.7 92.5003 172.9C99.4003 160.1 113.2 139.7 115.8 133.8C118.4 127.9 120.9 121.5 120.9 121.5L126 131.7L127 136.7Z" fill="#F4B8B8"/>
<path d="M314.4 63.1C314.4 63.1 310.3 60.2 308.4 59.5C306.5 58.8 299.1 58.2 296.5 58.1C293.9 57.9 291 57.7 291.4 58.6C291.8 59.6 295 61.9 298.4 62.5C301.8 63 305.3 63.2 306.9 63.8C308.4 64.3 314.4 63.1 314.4 63.1Z" fill="#ECB9B8"/>
<path d="M329.501 68.9999C329.501 68.9999 322.101 63.7999 319.001 61.9999C315.901 60.2999 310.301 59.2 310.301 59.2L315.201 65.4999L329.501 68.9999Z" fill="#DF9393"/>
<path d="M320.901 84.8L310.201 47.2001C310.201 47.2001 309.801 45.0001 307.301 44.7001C304.801 44.4001 291.801 48.7001 291.801 48.7001C291.801 48.7001 289.301 49.6001 290.001 53.1001C290.701 56.5001 301.701 93.2001 301.701 93.2001C301.701 93.2001 302.401 96.2 305.001 95.4C307.601 94.6 319.501 89.4 319.501 89.4C319.501 89.4 321.001 88.9 321.201 86.9C321.401 85.8 320.901 84.8 320.901 84.8Z" fill="#1E1E3E"/>
<path d="M199.6 118.3C199.6 118.3 202.4 125.8 198 127C193.6 128.2 183.6 124.5 177.9 120.1C172.2 115.7 170 112.1 170 112.1L193.1 116.3L199.6 118.3Z" fill="#E28282"/>
<path d="M175.2 57.1C175.2 57.1 166.9 49.3 161.1 45.5C155.4 41.8 150.1 37.9 142.2 43.8C137.2 47.6 133.1 54.8 135.1 60C137.4 66 140.7 71.7 144.7 76C148.7 80.3 150.2 83 150.2 83C150.2 83 167.5 61.4 168.1 61.3C168.8 61.2 175.2 57.1 175.2 57.1Z" fill="#F2A139"/>
<path d="M196.2 71.6999C197.4 74.8999 199.3 78.5999 201.5 81.7999C202.7 83.5999 203.4 85.4999 204 87.5999C204.7 90.0999 204.7 92.4999 204.8 95.0999C205 100.2 204.1 109.1 203.6 114.2C203.3 117.3 203.2 118 200.8 119.9C199.3 121.1 196.6 121.8 194.7 121.8C192.2 121.8 177.7 117.5 172.5 115.7C170.4 115 167.8 114.3 166.1 112.9C163.8 110.9 162.8 108 161.3 105.4C159.5 102.4 156 100.7 153.8 97.9999C148.6 91.6999 147.8 81.6999 150.7 74.0999C152.6 69.0999 155.2 64.1999 159.4 60.8999C162.3 58.5999 165.8 56.4999 169.3 55.3999C182.4 51.2999 190.9 57.0999 196.2 71.6999Z" fill="#F4B8B8"/>
<path d="M153.1 104.7C153.3 106.2 154.3 107.5 155.4 108.5C158 110.9 161.6 112.3 165.2 112C165.8 112 166.4 111.9 166.8 111.5C167.5 110.8 167.3 109.7 166.9 108.8C165.8 106.1 161.9 102.5 159.3 101.2C156.4 99.7 152.4 99.9 153.1 104.7Z" fill="#ECB9B8"/>
<path d="M171.701 90.7C170.101 91.1 167.801 91.5 166.201 91.1C166.001 91.1 166.601 90.1 166.601 90C166.601 89.9 166.601 89.8 166.601 89.7C166.901 88.6 167.901 87.8 168.901 87.2C170.101 86.5 171.301 86.1 172.701 85.9C173.501 85.8 176.401 85.3 176.901 86C178.301 87.6 174.101 90.2 171.701 90.7Z" fill="white"/>
<path d="M177.8 86C177.8 86 174.8 85.7 172.1 86.6C169.4 87.5 168.2 89.7 167.7 90.4C167.3 91.2 166.9 91.8 165.5 92.1C164.1 92.4 162.6 91.4 162.6 91.4C162.6 91.4 165.4 90 165.8 89.2C166.9 87 168.7 84.7 172.1 84.2C175.4 83.9 177.8 86 177.8 86Z" fill="#1E2034"/>
<path d="M188.5 71.4C186.4 73.2 183.8 74.6 183.7 77.4C183.6 79.7 184.4 82.1 185.6 84.1C186.5 85.5 189.7 89 190.8 90.3C191.6 91.2 192.3 91.7 191.8 92.8C191.3 93.7 189.2 94.4 189.1 95.4C189 95.8 189.2 96.2 189.5 96.6C191.4 99.9 194.4 102.8 194.5 106.5C194.5 107.7 194.3 109.1 195.2 109.8C195.5 110 195.9 110.2 196.1 110.5C196.4 111 195.9 111.2 196.2 111.7C196.4 112.1 196.8 112.3 197.2 112.5C199.5 113.5 201.2 115.5 201.5 119.4C202.5 119.3 203.5 117.9 203.8 117C204.1 116.1 204.3 112.4 204.3 111.4C204.4 105.7 204.9 101.8 205 96.1C205.1 93.1 205.2 89.1 204.3 86.2C203 81.9 199.5 80 197.4 76.1C196.6 74.6 196.6 70.1 195.1 69.2C193.2 67.8 189.8 70.3 188.5 71.4Z" fill="#E89A9A"/>
<path d="M185.601 103.3C184.401 104.1 183.601 105.5 182.301 105.9C185.101 108.1 188.201 108.9 191.801 109.4C193.301 109.6 194.801 109.6 196.201 109.2C197.601 108.8 198.801 107.7 199.201 106.4C199.501 105.1 199.701 97.8 199.301 97.4C198.701 96.7 195.701 98.2 195.101 98.5C191.801 99.9 188.601 101.4 185.601 103.3Z" fill="#511818"/>
<path d="M199.7 96.7999C199.8 96.6999 200.4 102.4 200.7 104.7C200.9 106.7 200.7 110 198.4 111.4C196.1 112.8 193.5 113.1 189.7 111.8C184.9 110.2 181.6 105.7 181.4 105.2C181.2 104.7 190.2 110.2 194.7 108.5C198 107.2 198.4 104.4 198.7 102.8C198.9 101 199.7 96.7999 199.7 96.7999Z" fill="#E01B1A"/>
<path d="M193.8 79.3998C192.7 80.1998 191.3 80.4999 189.9 80.6999C189.3 80.7999 189.1 80.6999 188.5 80.6999C188.4 80.6999 188.3 80.6999 188.2 80.5999C188.1 80.4999 188.1 80.3998 188.1 80.2998C188.1 79.6998 188.3 79.1999 188.6 78.6999C189.6 76.6999 191.7 75.1998 194 74.8998C195 74.6998 196.6 74.6999 196.3 76.0999C196.1 77.4999 194.3 78.9998 193.8 79.3998Z" fill="white"/>
<path d="M197.701 72.5999C197.901 73.5999 197.901 75.5999 196.501 75.8999C195.201 76.2999 193.601 75.9999 191.601 76.7999C189.601 77.5999 188.901 78.6999 188.601 79.3999C188.301 80.1999 187.901 81.7 187.901 81.7C187.901 81.7 186.701 77.7999 189.701 75.2999C192.901 72.5999 195.001 73.9999 195.801 73.5999C196.601 73.1999 197.501 71.7 197.501 71.7C197.501 71.7 197.601 72.3999 197.701 72.5999Z" fill="#1E2034"/>
<path d="M175.6 88.0001C175.5 89.3001 174.3 90.3001 173 90.2001C171.6 90.1001 170.6 89.0001 170.7 87.7001C170.8 86.4001 172 85.4001 173.3 85.5001C174.7 85.6001 175.7 86.7001 175.6 88.0001Z" fill="#1E2034"/>
<path d="M175.1 87.1001C175.1 87.5001 174.7 87.8 174.2 87.8C173.7 87.8 173.4 87.4001 173.4 87.0001C173.4 86.6001 173.8 86.3 174.3 86.3C174.8 86.4 175.2 86.7001 175.1 87.1001Z" fill="white"/>
<path d="M194.501 78C194.501 79.1 193.601 80 192.401 80C191.201 80 190.301 79.1 190.301 78C190.301 76.9 191.201 76 192.401 76C193.601 76 194.501 76.9 194.501 78Z" fill="#1E2034"/>
<path d="M174.1 79.1C174.1 79.1 170.9 79.8 167.7 81.5C163.7 83.6 160.4 89.3 160.4 89.3C160.4 89.3 161.2 84.4 164.2 81.2C167.1 78 171.5 76.8 173 76.9C174.5 77.1 174.1 79.1 174.1 79.1Z" fill="#BF6C19"/>
<path d="M195.501 68.9999C195.501 68.9999 192.501 68.7999 189.501 70.8999C187.001 72.6999 185.101 75.7999 184.101 75.5999C183.101 75.3999 184.201 72.1 185.701 70.7C188.501 68.2 190.901 67.7 192.801 67.7C194.701 67.7 195.501 68.9999 195.501 68.9999Z" fill="#BF6C19"/>
<path d="M199.4 99.2C199.4 99.2 196.8 101.2 193.9 102.7C190.9 104.2 188.1 105.1 187 105.5C185.6 106 183.9 106.3 183.9 106.3L181.9 105.5C181.9 105.5 190.4 102 193.7 100.1C197.1 98.1999 199.5 97.2 199.5 97.2L199.4 99.2Z" fill="#ECEDF7"/>
<path d="M199.901 96.8999C199.901 96.8999 196.601 96.6999 192.301 97.6999C188.001 98.6999 186.201 100.5 184.501 102C183.401 103 182.601 104 181.801 104.7C181.201 105.1 181.301 105.8 181.301 105.8H181.701C181.701 105.8 188.401 103.1 192.001 101.3C195.501 99.4999 199.901 96.8999 199.901 96.8999Z" fill="#E01B1A"/>
<path d="M198.101 104.8C198.101 104.8 196.801 106 195.101 106.8C193.401 107.6 190.301 108.5 190.301 108.5C190.301 108.5 192.901 109.3 195.501 108.2C198.101 107.1 198.101 104.8 198.101 104.8Z" fill="#ECEDF7"/>
<path d="M164.1 162.9C164.1 162.9 160.8 158.4 160.5 157.6C160.2 156.9 159.8 156.8 159.1 157C158.6 157.1 158.3 157.6 158.1 158C157.1 159.6 153.3 167.9 151.7 171.4C151.3 172.2 148.7 173.3 145.4 175.9C143.4 177.5 119.6 188.8 117.3 189.9C114.7 191.2 100 195 90.4004 196.5C104.7 199.7 125.8 192.2 139.2 185.9C143.1 184.1 158.3 174.3 158.3 174.3C158.3 174.3 160.4 169.6 161.3 167.8C161.8 166.8 164.1 162.9 164.1 162.9Z" fill="#E18B8C"/>
<path d="M413.6 98.6C412.2 100 410.2 100.2 409.2 99.1C408.1 98 408.4 96 409.7 94.7C411.1 93.3 413.1 93.1 414.1 94.2C415.2 95.2 415 97.2 413.6 98.6Z" fill="#FDCB5C"/>
<path d="M442.7 97.4999C440.8 98.6999 438.5 98.4999 437.6 97.0999C436.7 95.6999 437.5 93.4999 439.5 92.2999C441.4 91.0999 443.7 91.2999 444.6 92.6999C445.5 94.1999 444.6 96.2999 442.7 97.4999Z" fill="#F2A139"/>
<path d="M423.299 63.4C421.899 64.8 419.899 65 418.899 63.9C417.799 62.8 418.099 60.8 419.399 59.5C420.799 58.1 422.799 57.9 423.799 59C424.899 60.1 424.699 62.1 423.299 63.4Z" fill="#6E60E3"/>
<path d="M397.301 34.7C398.601 36.9 398.301 39.5 396.701 40.4C395.101 41.3 392.701 40.3 391.501 38.1C390.201 35.9 390.501 33.3 392.101 32.4C393.701 31.4 396.001 32.5 397.301 34.7Z" fill="#35B228"/>
<path d="M220.201 6.29998C221.201 8.09998 221.001 10.1 219.701 10.8C218.401 11.5 216.601 10.7 215.601 8.89997C214.601 7.09997 214.801 5.09997 216.101 4.39997C217.301 3.69997 219.101 4.59998 220.201 6.29998Z" fill="#35B228"/>
<path d="M359.3 46.3999C360 47.6999 359.6 49.2999 358.4 50.0999C357.1 50.7999 355.5 50.3999 354.7 49.0999C354 47.7999 354.4 46.1999 355.6 45.3999C356.9 44.6999 358.5 45.0999 359.3 46.3999Z" fill="#35B228"/>
<path d="M405.001 12.7C405.701 13.9 405.501 15.2 404.701 15.7C403.901 16.2 402.601 15.6 401.901 14.4C401.201 13.2 401.401 11.9 402.201 11.4C403.001 11 404.301 11.5 405.001 12.7Z" fill="#6E60E3"/>
<path d="M455.1 59.3999C455.8 60.5999 455.6 61.8999 454.8 62.3999C454 62.8999 452.7 62.2999 452 61.0999C451.3 59.8999 451.5 58.5999 452.3 58.0999C453.2 57.5999 454.5 58.1999 455.1 59.3999Z" fill="#6E60E3"/>
<path d="M282.299 81.3999C282.999 82.5999 282.799 83.8999 281.999 84.3999C281.199 84.8999 279.899 84.2999 279.199 83.0999C278.499 81.8999 278.699 80.5999 279.499 80.0999C280.299 79.5999 281.599 80.1999 282.299 81.3999Z" fill="#6E60E3"/>
<path d="M346.799 70.6C347.599 72 347.499 73.7 346.399 74.3C345.399 74.9 343.899 74.2 342.999 72.8C342.199 71.4 342.299 69.7 343.399 69.1C344.499 68.5 345.999 69.2 346.799 70.6Z" fill="#FDFDFD"/>
<path d="M432 116.1C433.6 115.8 435.1 116.6 435.3 117.8C435.5 119 434.3 120.2 432.7 120.4C431.1 120.7 429.6 119.9 429.4 118.7C429.2 117.6 430.3 116.4 432 116.1Z" fill="#FDFDFD"/>
<path d="M357.1 82.8999C358.4 85.0999 358.4 87.4999 357.1 88.2999C355.8 88.9999 353.7 87.7999 352.5 85.5999C351.2 83.3999 351.2 80.9999 352.5 80.1999C353.7 79.3999 355.8 80.5999 357.1 82.8999Z" fill="#6E60E3"/>
<path d="M222.801 79.9001C223.601 82.5001 225.101 83.7001 227.701 84.5001C230.301 85.3001 232.701 89.0001 234.901 91.5001C232.101 90.6001 231.601 89.4001 227.101 88.4001C225.401 88.0001 223.301 88.6 221.801 87.8C220.201 87 217.901 82.8 217.901 82.8C217.901 82.8 219.501 81.7001 219.601 81.1001C219.901 79.3001 219.301 77.5 218.901 75.8C217.501 70 214.601 61.6 216.001 55.8C217.401 57.7 221.901 61.7001 223.801 63.1001C221.101 68.5001 221.001 75.0001 223.401 80.5001" fill="#EDA6A6"/>
<path d="M188.1 143.9C187 144.1 185.9 144 184.7 143.9C181.7 143.6 178.4 142.1 175.4 142.6C177.2 142.8 185.9 140.4 188.6 139.5C194 137.9 200.4 133.9 206.2 135.6C203.6 137.2 200.7 138.1 197.8 139.2C194.6 140.5 191.5 143.2 188.1 143.9Z" fill="#E89A9A"/>
<path d="M307.101 45C307.101 45 294.701 49.3 293.701 50.2C292.601 51.1 292.601 53.1 293.001 54.8C293.401 56.6 304.801 94.3 304.801 94.3C304.801 94.3 304.301 95.4 303.201 94.6C302.201 93.9 290.101 53 290.101 53C290.101 53 289.401 50 292.501 48.7C295.601 47.4 307.101 45 307.101 45Z" fill="#575787"/>
<path d="M297.601 53.2C297.701 53.8 297.501 54.4 297.101 54.5C296.701 54.6 296.201 54.2 296.001 53.6C295.801 53 296.101 52.4 296.501 52.3C297.001 52.2 297.401 52.6 297.601 53.2Z" fill="#575787"/>
<path d="M337.401 87.0001C337.401 87.0001 338.101 85.2001 338.101 79.6001C338.101 74.1001 337.701 72.7001 335.601 71.1001C333.501 69.5001 325.801 67.3001 320.901 65.5001C315.901 63.7001 311.001 61.3001 309.601 61.6001C308.201 61.9001 300.301 63.8001 297.101 65.0001C293.901 66.2001 291.101 67.8 291.501 68.4C291.901 69 294.401 70.0001 294.401 70.0001C294.401 70.0001 293.901 72 295.501 72.9C297.101 73.8 312.101 76.5 313.701 76.3C315.301 76.1 315.601 77.2001 313.401 77.5001C311.201 77.9001 306.401 79.5 304.501 80.3C302.601 81.1 300.001 82.0001 300.901 82.6001C301.801 83.2001 307.901 83.1 311.801 82.4C315.701 81.7 315.201 82.3001 317.201 83.2001C319.101 84.1001 321.601 86.3001 327.701 87.7001C329.701 88.2001 337.301 87.8 337.301 87.8L337.401 87.0001Z" fill="#F4B8B8"/>
<path d="M311.801 67C311.801 67 309.201 65.9 306.401 66.2C303.601 66.6 294.301 69.9 294.301 69.9C294.301 69.9 305.701 67.5 308.101 67.9C310.501 68.3 314.901 68.8 314.901 68.8L311.801 67Z" fill="#1E1E3E"/>
<path d="M314.001 71.2C314.001 71.2 310.201 70.6 308.901 70.7C307.601 70.8 298.701 71 298.701 71C298.701 71 307.601 72.1 309.901 72.2C312.101 72.3 314.001 71.2 314.001 71.2Z" fill="#CC6A6A"/>
<path d="M145.1 48.9999C144.5 49.8999 143.9 50.7999 143.8 51.8999C143.7 52.8999 144 53.8999 144.4 54.7999C145.2 56.7999 146.3 58.6999 147.7 60.3999C149.9 57.8999 152.7 56 155.7 54.7C154.1 56.6 152.5 58.5999 151.6 60.8999C150.6 63.1999 150.4 66 151.5 68.2C151.7 68.6 152 68.9999 151.9 69.4999C151.8 69.7999 151.7 70 151.5 70.2C149.6 72.8 148.5 76 148.4 79.2C143.7 73.2 139.7 66.7999 136.2 59.9999C135.5 58.4999 134.7 56.9999 134.8 55.3999C134.9 53.7999 135.6 52.4 136.5 51.1C140 46 147 40.9999 153.3 41.4999C152.5 42.5999 151 43.2 149.9 44.1C148.1 45.5 146.5 47.0999 145.1 48.9999Z" fill="#DD8320"/>
<path d="M192 63.7C192 63.7 189.4 59.9 181.9 58.4C174.4 56.9 165.2 61 162.1 64.6C159 68.2 156.1 73.5 155.1 78.2C154.1 82.9 155.2 89.4 156.9 92.5C158.6 95.6 160.1 97.4 160.5 99.4C160.9 101.4 160.2 104.3 160.2 104.3C160.2 104.3 157.1 102 153.9 98.1C150.8 94.3 146.3 81.6 148.3 73.4C150.3 65.1 157.9 57.6 167 54.4C176.1 51.2 182.7 54.3 186.6 57.1C190.3 59.8 192 63.7 192 63.7Z" fill="#BF6C19"/>
<path d="M169.301 53.7C169.301 53.7 160.701 45.1 156.601 43.5C152.501 41.9 148.901 41.6 145.901 43.1C143.001 44.6 139.801 47.8 139.801 47.8C139.801 47.8 145.101 38 154.701 40.8C164.301 43.6 172.401 52.6 172.401 52.6C172.401 52.6 179.601 51.7 184.301 53.9C189.001 56.1 195.201 65.5 195.701 66.6C196.101 67.8 196.401 71.8 196.401 71.8C196.401 71.8 192.801 63.7 190.001 60.5C187.901 58.1 182.501 55.3 178.201 54.2C174.601 53.3 169.301 53.7 169.301 53.7Z" fill="white"/>
<path d="M194.2 76.8999C194.2 77.1999 193.8 77.4999 193.5 77.4999C193.1 77.4999 192.8 77.1999 192.9 76.7999C192.9 76.4999 193.3 76.2 193.6 76.2C193.9 76.3 194.2 76.5999 194.2 76.8999Z" fill="white"/>
<path d="M189.3 93.1C188.4 93.4 187.5 93.3 186.7 93.7C185.8 94.1 185.1 95.1 184.8 96.1C184.7 96.5 184.7 97 185.1 97.2C185.4 97.4 185.9 97.1 186.1 96.8C186.3 96.5 186.4 96.1 186.7 95.8C187.5 94.9 189.2 95.7 190.1 94.9C190.5 94.6 190.7 93.9 191.2 93.9C191.5 93.9 191.8 94 192.1 94C192.7 94 193.2 93.2 193.1 92.6C192.4 89.9 190.5 92.7 189.3 93.1Z" fill="#B26B6E"/>
<path d="M169.201 114.1C169.501 115.3 169.501 116.6 169.001 117.8C168.401 119.2 167.201 120.1 165.801 120.5C164.301 120.9 162.701 120.8 161.501 119.7C160.901 119.2 160.501 118.5 160.201 117.8C159.501 116.2 159.201 114.4 159.601 112.7C160.001 111 161.101 109.5 162.501 108.9C165.701 107.6 168.501 111.1 169.201 114.1Z" fill="#F2A03A"/>
<path d="M164.1 113.7C164.2 114.3 164.3 115 164.6 115.5C164.9 116 165.6 116.4 166.2 116.3C167 116.1 167.3 115.2 167.4 114.4C167.6 113.1 167.3 109.3 165.6 108.8C163.6 108.2 164 112.7 164.1 113.7Z" fill="#BF6C19"/>
<path d="M121.1 120.8C120.6 120 120 119.3 119.8 118.4C119.5 117.3 119.6 116.2 119.7 115C120.4 106.4 118.7 98.0001 119.5 89.6001C119.5 89.1001 120.2 88 120.7 88.3C120.9 88.4 121.4 89.0001 121.4 89.2001C123.5 95.6001 122.7 103.2 125 110C125.5 105 126.3 100.7 127.9 96C128.3 95 129.3 93.2001 130.4 93.2001C131.1 97.8001 129.7 104.2 129.1 108.9C128.9 110.2 129.2 112.5 129.4 113.4C130.4 116.5 129.4 119.9 130.2 123C131.5 121.8 135.8 117.7 137.3 116.7C139.7 115 139.9 114.3 140 114.4C140.7 116 140.1 120.7 133.4 126.3C128.8 130.1 129.4 130.5 124.9 134.4C124.1 135.1 122 135.7 122 135.7C122 135.7 122.1 130.7 122.4 129.3C123.1 126.5 122.7 123.3 121.1 120.8Z" fill="#EFA3A3"/>
<path d="M333.9 84.0001C333.9 85.4001 333 86.5001 332.1 87.5001C327 93.0001 318.8 97.3001 312 100.2C313 98.0001 320.4 90.7001 322.1 87.5001C322.2 87.3001 322.5 86.5001 322.3 86.3001C320.8 85.2001 319.2 84.2001 317.7 83.1001C320.1 83.7001 321.8 84.6001 324.6 84.9001C325.2 85.0001 333.9 84.9001 333.9 84.0001Z" fill="#EA8C8C"/>
<path d="M125.801 143.4L111.501 136.7L109.701 141.3L124.401 146.9L125.801 143.4Z" fill="#F2A03A"/>
<path d="M122.8 150.8L108.7 144.6C108.2 144.4 108 143.8 108.2 143.3C108.4 142.8 109 142.6 109.5 142.8L123.6 149C124.1 149.2 124.3 149.8 124.1 150.3C123.9 150.8 123.3 151 122.8 150.8Z" fill="#F4A651"/>
<path d="M112.4 142.3C113.5 142.8 115 143.3 116.4 143.6C116.5 143.6 116.6 143.6 116.7 143.6C116.8 143.6 116.9 143.5 116.9 143.4C117.4 142.4 118.1 141 118.6 140C117.5 139.4 116.1 139 114.9 138.4C113.9 137.8 113.8 138.7 113.5 139.5C113.3 139.8 112.4 142.3 112.4 142.3Z" fill="white"/>
<path d="M111.5 144.1C111.2 144 110.8 144 110.6 144.2C110.4 144.4 110.5 144.7 110.6 144.9C110.8 145.1 111 145.3 111.2 145.4C112.2 145.9 113.2 146.4 114.3 146.7C114.6 146.8 115 146.9 115.3 146.7C115.6 146.6 115.8 146.1 115.6 145.8C115.4 145.5 114.8 145.3 114.5 145.2C113.6 144.7 112.6 144.3 111.5 144.1Z" fill="white"/>
<path d="M291.4 147.4C291.4 147.4 283.1 145.2 281.6 144.6C280.1 143.9 270 145.3 258.9 146.8C247.8 148.3 231.4 144.4 231.4 144.4L234 158.6C234 158.6 270.4 152.1 278 150.6C285.6 149 291.4 147.4 291.4 147.4Z" fill="#EA9696"/>
<path d="M168 161.1C160.8 165.7 157 174.7 156.8 184.5C156.7 187.2 162 194.4 162.4 189.4C162.7 185.3 161.4 183.8 163 177.5C163.7 174.6 165 170.6 166.4 167.2C166.8 166.1 168.7 160.7 168 161.1Z" fill="#EFA3A3"/>
<path d="M227.4 129.4C227.4 129.4 228.8 147.4 230.9 153.3C233 159.2 237.4 169.4 237.8 173.9C238.2 178.4 237.9 183.1 234.7 187.6C230.9 193 228.4 195.5 228.4 195.5C228.4 195.5 227.1 200.6 226.1 203.6C225.1 206.5 223.6 210.8 223.6 210.8C223.6 210.8 215.2 211.8 209.3 219.1C203.2 226.5 203 234.3 206.1 239C209.2 243.7 213.9 246.2 213.9 246.2C213.9 246.2 213.7 260.5 213.7 261.6C213.7 262.8 213.5 291.6 213.5 291.6C213.5 291.6 184.1 291.2 160.8 288.8C135.8 286.2 124 282.1 124 282.1C124 282.1 139.6 251 156.3 239.3C168.4 230.8 172.6 228.9 172.1 225C171.7 221.8 162.6 205.7 162.6 205.7C162.6 205.7 156.3 201.5 155.5 196C154.7 190.5 155.7 185.2 155.7 185.2C155.7 185.2 167.5 183.7 180.3 173.2C195.2 161.1 205.3 144 212.8 134.9C216.3 130.7 220 128.9 220 128.9L227.4 129.4Z" fill="#6E60E3"/>
<path d="M235.501 178C235.501 178 229.801 184.6 206.901 190.6C184.001 196.6 158.401 197.3 156.301 196.4C154.201 195.5 158.801 206.9 166.601 207.2C172.301 207.4 190.801 206 197.601 204.5C209.601 201.8 225.601 196.4 230.101 190.7C234.601 184.9 235.501 178 235.501 178Z" fill="#574DD6"/>
<path d="M178.301 225.5C178.401 226.3 178.401 227 178.801 227.7C179.301 228.8 180.301 229.5 181.301 230.3C186.501 234.2 190.801 239.3 193.901 245.1C187.801 242.4 181.401 240.3 175.001 238.6C175.701 240.7 176.401 242.8 177.101 244.9C174.101 243.1 170.101 243.8 167.301 245.7C164.401 247.6 162.401 250.6 160.701 253.7C155.001 263.8 151.301 274.9 148.901 286.2C140.301 285.3 131.901 285.3 123.801 282.1C130.801 261.4 146.701 246.6 164.501 234.1C166.401 232.8 168.301 231.4 169.501 229.5C172.401 224.9 170.101 218.8 167.001 214.3C163.901 209.8 160.001 205.5 159.301 200.1C159.501 201.7 167.801 203.1 169.101 203.3C171.201 203.6 176.301 202.5 177.301 204.2C177.901 205.2 177.001 211.8 177.101 213.3C177.501 217.4 177.901 221.5 178.301 225.5Z" fill="#574DD6"/>
<path d="M218.901 159.9C218.601 161.1 217.801 162.7 216.601 162.3C215.701 162 215.501 160.8 215.501 159.9C215.501 150.4 218.001 141 220.501 131.8C216.601 137.3 211.701 142.1 206.301 146C208.501 140.6 211.601 135.6 215.601 131.3C216.301 130.6 217.001 129.8 217.901 129.3C219.701 128.3 223.001 128 223.801 130.1C224.601 132.4 223.101 137.5 222.801 139.9C221.801 146.6 220.601 153.3 218.901 159.9Z" fill="#574DD6"/>
<path d="M153.6 65.2C151.7 67.8 150.7 70.9999 150.8 74.2999C150.9 77.4999 152.2 80.6999 154.4 83.0999C153.7 82.3999 154.2 79.3999 154.3 78.3999C154.5 76.9999 154.9 75.9999 154.6 74.5999C154 71.2999 153.5 68.5 153.6 65.2Z" fill="#DD8320"/>
<path d="M150.6 84.6C151.6 86.6 153.2 88.6 155.4 89.1C155.3 90.1 155.3 91 155.5 92C154.6 91.9 153.7 91.6 152.9 91.1C152.1 90.6 151.5 89.9 150.9 89.1C148.2 85.5 146.6 79.3 148.6 75C149 76.2 148.7 77.7 148.9 79C149.1 80.9 149.7 82.8 150.6 84.6Z" fill="#DD8320"/>
<path d="M165.6 61.8999C164.2 62.2999 163.2 63.2999 162.1 64.0999C162.7 63.6999 163 62.4999 163.6 61.9999C164.2 61.3999 164.9 60.9999 165.7 60.5999C167 59.8999 170.4 58.8999 171.9 58.9999C170.7 59.4999 168.5 59.9999 168.5 61.2999C167.4 60.9999 166.8 61.4999 165.6 61.8999Z" fill="#BF6C19"/>
<path d="M160.199 114.1C160.099 115 159.899 115.9 160.199 116.8C160.499 117.7 161.199 118.5 162.099 118.6C163.199 118.7 164.199 117.7 164.499 116.6C164.799 115.6 164.599 114.4 163.799 113.7C162.999 113 160.899 113.1 160.299 114" fill="white"/>
<path d="M173.001 142.3C173.001 142.3 164.201 140.5 161.701 142.3C159.201 144.1 149.901 150.4 149.001 151.3C148.201 152.2 123.801 169.4 123.801 169.4C123.801 169.4 152.001 147.3 154.301 145.2C156.601 143.1 161.501 139.3 164.901 139.8C168.301 140.3 178.201 143 180.901 143.3C183.501 143.5 173.001 142.3 173.001 142.3Z" fill="white"/>
<path d="M130.101 96.7C129.001 101.8 128.201 106.9 127.701 112.1C127.701 112.4 127.601 112.7 127.701 113.1C127.701 113.5 127.801 113.9 127.901 114.2C128.701 117.3 129.201 120.5 129.701 123.7C131.001 119.5 130.201 116.8 129.601 112.4C129.501 111.5 129.801 108.8 129.801 107.8C129.801 106.9 131.601 98.8 131.201 95.3C131.101 94.7 131.301 93.2 130.801 92.7C130.601 92.4 129.801 92.7 129.601 93.2C129.501 93.5 130.101 93.6 130.201 93.9C130.501 94.9 130.301 95.9 130.101 96.7Z" fill="white"/>
<path d="M115.4 93.8999C116.3 98.0999 117 102.3 117.6 106.5C117.9 108.6 118.1 110.7 118.3 112.8C118.4 113.9 118.2 115.9 118.9 116.8C119.9 116 119.3 112.9 119.4 111.7C119.6 109.1 117.5 97.2999 115.4 93.8999Z" fill="white"/>
<path d="M118 149.2C118 149.2 110.5 168.5 108.8 171.7C107.1 174.9 100.4 182.2 100.4 182.2L112 175.3L120.4 150.5L118 149.2Z" fill="#EFA3A3"/>
<path d="M366.799 59.2001C366.299 60.0001 365.899 61.9001 366.099 62.9001C366.499 64.8001 368.699 65.7001 370.499 66.6001C372.399 67.4001 376.099 68.3001 375.999 70.2001C375.799 72.9001 368.599 74.5001 368.199 77.2001C367.899 79.0001 370.799 80.9001 372.599 81.6001C374.399 82.3001 376.399 82.4001 378.299 82.9001C378.599 81.8001 378.699 80.7001 378.599 79.7001C377.499 80.2001 372.799 79.0001 372.699 77.9001C372.299 75.2001 379.899 72.2001 380.099 69.8001C380.199 68.0001 379.599 66.8001 378.199 65.6001C376.799 64.4001 371.199 63.9001 370.399 62.2001C370.199 61.7001 369.599 59.5001 374.999 57.7001C373.999 56.3001 370.599 55.1001 370.599 55.1001C370.599 55.1001 368.199 56.7001 366.799 59.2001Z" fill="#6E60E3"/>
<path d="M336.001 104.5C335.501 105.2 335.101 106.8 335.201 107.6C335.401 109.3 337.201 110.3 338.701 111.1C340.201 111.9 343.301 112.9 343.101 114.6C342.801 117 336.601 117.8 336.101 120.1C335.701 121.7 338.101 123.5 339.601 124.2C341.101 124.9 342.801 125.1 344.301 125.8C344.601 124.9 344.801 123.9 344.801 123C343.801 123.3 340.001 122 339.901 121C339.801 118.6 346.401 116.6 346.601 114.5C346.801 112.9 346.401 111.9 345.301 110.8C344.201 109.7 339.401 108.8 338.901 107.3C338.701 106.9 338.401 104.9 343.101 103.7C342.301 102.4 339.501 101.1 339.501 101.1C339.501 101.1 337.401 102.5 336.001 104.5Z" fill="#5A5CA5"/>
<path d="M398.3 58.0999C397.3 58.5999 395.8 60.1999 395.4 61.1999C394.6 63.2999 396 65.4999 397.2 67.3999C398.4 69.2999 401.3 72.3999 400 74.1999C398.1 76.6999 390.6 73.6999 388.5 75.9999C387.1 77.5999 388.6 81.1999 389.8 82.8999C391 84.6999 392.8 85.9999 394.2 87.6999C395.1 86.8999 395.9 85.8999 396.5 84.7999C395.2 84.5999 391.7 80.4999 392.2 79.3999C393.6 76.5999 402.4 78.4999 403.9 76.2999C405.1 74.6999 405.3 73.1999 404.8 71.1999C404.2 69.1999 399.4 65.1999 399.7 63.0999C399.8 62.4999 400.6 60.0999 406.7 61.5999C406.6 59.5999 404.2 56.3999 404.2 56.3999C404.2 56.3999 401.2 56.5999 398.3 58.0999Z" fill="#F2A139"/>
<path d="M436.201 29.5001C435.801 30.1001 435.401 31.8001 435.501 32.6001C435.601 34.4001 436.701 35.8001 437.701 37.0001C438.701 38.2001 440.801 39.9001 440.601 41.6001C440.201 44.0001 435.801 43.7001 435.301 46.1001C434.901 47.7001 436.501 50.1001 437.501 51.1001C438.501 52.1001 439.701 52.7001 440.701 53.7001C441.001 52.8001 441.101 51.8001 441.201 50.8001C440.501 51.0001 437.901 48.8001 437.901 47.7001C438.001 45.1001 442.701 44.3001 443.001 42.2001C443.201 40.6001 443.001 39.4001 442.301 38.0001C441.601 36.6001 438.301 34.8001 438.001 33.0001C437.901 32.5001 437.801 30.4001 441.101 30.0001C440.601 28.5001 438.701 26.6001 438.701 26.6001C438.701 26.6001 437.301 27.7001 436.201 29.5001Z" fill="white"/>
<path d="M323.001 20.3001C323.501 20.8001 324.201 22.1001 324.201 22.8001C324.301 24.3001 323.201 25.5001 322.101 26.6001C321.101 27.7001 318.901 29.2001 319.401 30.6001C320.101 32.6001 325.101 31.9001 326.001 33.8001C326.601 35.1001 325.101 37.2001 324.101 38.1001C323.101 39.1001 321.801 39.6001 320.701 40.5001C320.301 39.8001 320.001 39.0001 319.801 38.2001C320.601 38.3001 323.401 36.2001 323.201 35.4001C322.801 33.3001 317.301 33.0001 316.701 31.3001C316.201 30.0001 316.301 29.0001 317.001 27.8001C317.701 26.6001 321.201 24.8001 321.301 23.3001C321.301 22.9001 321.201 21.1001 317.301 21.1001C317.701 19.8001 319.601 18.1001 319.601 18.1001C319.601 18.1001 321.501 18.9001 323.001 20.3001Z" fill="#F2A139"/>
<path d="M160.001 10.7C160.501 11.2 161.201 12.5 161.201 13.2C161.301 14.7 160.201 15.9 159.101 17C158.101 18.1 155.901 19.6 156.401 21C157.101 23 162.101 22.3 163.001 24.2C163.601 25.5 162.101 27.6 161.101 28.5C160.101 29.5 158.801 30 157.701 30.9C157.301 30.2 157.001 29.4 156.801 28.6C157.601 28.7 160.401 26.6 160.201 25.8C159.801 23.7 154.301 23.4 153.701 21.7C153.201 20.4 153.301 19.4 154.001 18.2C154.701 17 158.201 15.2 158.301 13.7C158.301 13.3 158.201 11.5 154.301 11.5C154.701 10.2 156.601 8.5 156.601 8.5C156.601 8.5 158.501 9.2 160.001 10.7Z" fill="#E83767"/>
<path d="M124.7 54.7C125.2 55.2 125.9 56.5 125.9 57.2C126 58.7 124.9 59.9 123.8 61C122.8 62.1 120.6 63.6 121.1 65C121.8 67 126.8 66.3 127.7 68.2C128.3 69.5 126.8 71.6 125.8 72.5C124.8 73.4 123.5 74 122.4 74.9C122 74.2 121.7 73.4 121.5 72.6C122.3 72.7 125.1 70.6 124.9 69.8C124.5 67.7 119 67.4 118.4 65.7C117.9 64.4 118 63.4 118.7 62.2C119.4 61 122.9 59.2 123 57.7C123 57.3 122.9 55.5 119 55.5C119.4 54.2 121.3 52.5 121.3 52.5C121.3 52.5 123.2 53.2 124.7 54.7Z" fill="#F2A139"/>
<path d="M365.2 106.2C361 96.8 357.8 94.4 354.1 93.5C353.6 93.4 350.6 96.8 350.1 99.5C352.4 100 356.5 103.1 358.4 105.7C362.9 111.9 363.8 115.4 366.5 122.6C369.1 123.1 369.8 122.1 369.8 122.1C369.8 122.1 366.7 109.7 365.2 106.2Z" fill="#E84855"/>
<path d="M396.601 118.4C403.801 113.8 407.601 113.1 412.001 113.4C412.501 113.4 413.401 118 412.501 120.5C410.301 119.8 405.401 120.3 402.601 121.5C395.901 124.4 393.401 126.9 387.801 131.5C385.301 130.6 385.201 129.3 385.201 129.3C385.201 129.3 393.501 120.3 396.601 118.4Z" fill="#35B228"/>
<path d="M435.2 77.3999C430.8 78.1999 426.7 80.1999 423.6 83.0999" stroke="#F93065" stroke-width="4" stroke-miterlimit="10" stroke-linecap="round" stroke-linejoin="round"/>
<path d="M387.8 54.7001C386.2 51.7001 383.9 49.3 381.1 47.8" stroke="#F93065" stroke-width="2.976" stroke-miterlimit="10" stroke-linecap="round" stroke-linejoin="round"/>
<path d="M195.7 25.8C191.3 26.6 187.2 28.6 184.1 31.5" stroke="#F93065" stroke-width="4" stroke-miterlimit="10" stroke-linecap="round" stroke-linejoin="round"/>
<path d="M411.801 47.7C415.801 45.7 419.201 42.6 421.301 39" stroke="#35B228" stroke-width="4" stroke-miterlimit="10" stroke-linecap="round" stroke-linejoin="round"/>
<path d="M381.101 15C378.801 17.2 377.101 20 376.301 22.7" stroke="#2887F9" stroke-width="2.707" stroke-miterlimit="10" stroke-linecap="round" stroke-linejoin="round"/>
<path d="M300 11.5999C296.7 9.79993 293.1 8.89993 289.9 9.09993" stroke="#2887F9" stroke-width="3.094" stroke-miterlimit="10" stroke-linecap="round" stroke-linejoin="round"/>
<path d="M272.201 30C274.701 28.2 276.701 26 277.801 23.8" stroke="#FF155D" stroke-width="2.322" stroke-miterlimit="10" stroke-linecap="round" stroke-linejoin="round"/>
<path d="M277.401 44.6001C276.301 45.2001 275.201 46.1001 274.401 47.1001C274.101 47.5001 273.801 47.9001 273.701 48.4001C273.601 49.5001 274.501 50.4001 275.501 50.8001C276.501 51.2001 277.601 51.5001 278.401 52.2001C279.601 53.3001 279.501 55.5001 278.301 56.5001C276.801 57.8001 274.301 57.3001 273.001 58.7001C271.701 60.0001 272.401 62.6001 274.201 63.1001" stroke="#2887F9" stroke-width="3.094" stroke-miterlimit="10" stroke-linecap="round" stroke-linejoin="round"/>
<path d="M394 99.3999C393.9 98.6999 392.4 97.4999 391.1 96.8999C390 96.3999 388.6 95.8999 387.9 95.9999C387.3 99.6999 386.6 101.9 384.6 107C384 108.7 382.3 113.1 381.5 114.8C381.1 115.6 382.8 116.2 382.8 116.2C382.8 116.2 387.3 108.5 388.1 107.2C388.7 106.3 393.8 99.2999 394 99.3999Z" fill="#2887F9"/>
<path d="M294.499 95.8001C293.599 95.2001 292.599 94.7001 291.699 94.1001C290.399 96.9001 288.299 99.3001 285.799 100.9C286.099 101.4 287.499 103.9 287.499 103.9C287.499 103.9 289.999 102.1 291.699 100.1C293.399 98.1001 294.299 95.7001 294.499 95.8001Z" fill="#2887F9"/>
<path d="M226.599 116.8L221.399 117.1C222.399 120.1 221.899 123.3 220.199 126.1C221.099 126.3 225.199 127.6 225.199 127.6C225.199 127.6 226.799 124.7 226.999 122.1C227.299 119.2 226.299 116.8 226.599 116.8Z" fill="#FFDC31"/>
<path d="M309.499 172.9C310.299 172.4 311.199 172 311.999 171.5C310.299 168.6 309.099 165.2 308.799 162C308.299 161.9 305.699 161.5 305.699 161.5C305.699 161.5 306.199 164.8 307.099 167.5C308.099 170.5 309.699 172.8 309.499 172.9Z" fill="#E01B1A"/>
</svg>
