<svg width="396" height="305" viewBox="0 0 396 305" fill="none" xmlns="http://www.w3.org/2000/svg">
<path d="M377.901 266.5L26.3005 25C26.3005 25 0.600525 117.3 4.50053 170C8.40053 222.7 -3.09947 300.6 46.3005 303.8C86.7005 306.4 136.201 291.3 216.101 298.1C296.001 304.9 369.101 309 374.101 298.1C379.101 287.1 377.901 266.5 377.901 266.5Z" fill="#DFE4F4"/>
<path d="M185.9 139.2C182.1 135.6 177.4 132.1 172.5 133.4C170.2 134 168.2 135.6 165.9 136.3C162.4 137.3 160.2 134.7 156.6 134.4C153 134 148.3 137.9 147.4 141.7C144.2 136.4 137.8 138.9 137 143.5C134.9 140.9 130.1 140.2 127.7 142.4C125.3 144.6 123.5 149.7 120.4 150.3C117.3 150.8 113.5 148.9 111.4 151.5C110.7 152.4 110.4 153.7 109.9 154.8C107.3 161 98.9002 161.7 95.7002 167.6C94.0002 170.7 94.1002 174.9 91.9002 177.6C90.6002 179.2 88.6002 180.1 87.0002 181.3C81.7002 185.3 80.0002 193.5 81.4002 200.5C82.8002 207.5 86.7002 213.5 90.6002 219.2C87.0002 220.4 82.5002 222.9 83.2002 227.1C83.9002 231.3 90.1002 225.2 93.9002 225.3C108.2 225.8 317.4 227.3 317.4 227.3C317.4 227.3 310.7 200.7 302.1 192.7C285.5 177.2 264.8 167.2 243.3 164.3C235.6 163.2 226.8 162.6 221.8 156C220.2 153.9 219.1 151.2 217.4 149.1C209.4 139 197.4 133.7 185.9 139.2Z" fill="#C8D7ED"/>
<path d="M139.2 103C139.2 103 125.6 173.8 102.6 206.2C79.6002 238.6 65.8002 303.9 65.8002 303.9C65.8002 303.9 44.9002 307.9 28.6002 299.2C21.6002 295.5 14.5002 286.4 11.9002 276.9C5.00021 252 1.80021 220.5 1.20021 200.8C0.400208 174.8 0.100213 155.7 2.90021 128.6C8.30021 76.3999 25.7002 24.8999 25.7002 24.8999L139.2 103Z" fill="#C8D7ED"/>
<path d="M98.9002 75.5999C98.9002 75.5999 40.0002 210.6 27.1002 236C14.2002 261.4 3.80024 263.1 11.6002 243.5C18.5002 226.2 40.2002 152 45.9002 127.9C51.6002 103.8 61.3002 50.0999 61.3002 50.0999L98.9002 75.5999Z" fill="#B1C6DD"/>
<path d="M1.10088 194.8C1.10088 194.8 16.0009 139.3 19.0009 118.2C23.4009 87.1999 14.3009 84.4999 12.2009 86.6999C10.2009 88.8999 4.70089 115.2 2.40089 141.8C0.600887 164.2 1.10088 194.8 1.10088 194.8Z" fill="#B1C6DD"/>
<path d="M132.701 99.3999C132.701 99.3999 106.601 199 78.4008 241.8C60.5008 269 28.8008 294.2 28.8008 294.2C28.8008 294.2 32.1008 301.2 38.6008 303.4C47.7008 306.4 66.6008 304.1 66.6008 304.1C66.6008 304.1 105.501 217.4 119.201 178C135.801 130 139.001 103 139.001 103L132.701 99.3999Z" fill="#B1C6DD"/>
<path d="M137.201 159.9C137.201 162.6 135.501 164.8 133.501 164.8C131.501 164.8 129.801 162.6 129.801 159.9C129.801 157.2 131.501 155 133.501 155C135.501 155 137.201 157.2 137.201 159.9Z" fill="#B7CEE2"/>
<path d="M153.5 208.2C153.5 210.9 151.8 213.1 149.8 213.1C147.8 213.1 146.1 210.9 146.1 208.2C146.1 205.5 147.8 203.3 149.8 203.3C151.9 203.3 153.5 205.5 153.5 208.2Z" fill="#B1CADD"/>
<path d="M160.601 157C160.601 159.7 158.901 161.9 156.901 161.9C154.901 161.9 153.201 159.7 153.201 157C153.201 154.3 154.901 152.1 156.901 152.1C159.001 152.2 160.601 154.4 160.601 157Z" fill="#B1C6DD"/>
<path d="M154.8 183.9C154.8 186.1 153.4 187.9 151.7 187.9C150 187.9 148.6 186.1 148.6 183.9C148.6 181.7 150 179.9 151.7 179.9C153.4 179.9 154.8 181.7 154.8 183.9Z" fill="#B7CEE2"/>
<path d="M149.3 152.9C149.3 155.1 147.9 156.9 146.2 156.9C144.5 156.9 143.1 155.1 143.1 152.9C143.1 150.7 144.5 148.9 146.2 148.9C147.9 148.9 149.3 150.7 149.3 152.9Z" fill="#B1C6DD"/>
<path d="M140.2 178.6C140.2 181 138.7 182.9 136.9 182.9C135.1 182.9 133.6 181 133.6 178.6C133.6 176.2 135.1 174.3 136.9 174.3C138.7 174.3 140.2 176.2 140.2 178.6Z" fill="#B1C6DD"/>
<path d="M136.801 201.1C136.801 203.5 135.301 205.4 133.501 205.4C131.701 205.4 130.201 203.5 130.201 201.1C130.201 198.7 131.701 196.8 133.501 196.8C135.301 196.8 136.801 198.7 136.801 201.1Z" fill="#B7CEE2"/>
<path d="M125.101 194.4C125.101 196.4 123.901 198 122.401 198C120.901 198 119.701 196.4 119.701 194.4C119.701 192.4 120.901 190.8 122.401 190.8C123.901 190.8 125.101 192.4 125.101 194.4Z" fill="#B1C6DD"/>
<path d="M151.401 158.4C147.401 163.8 142.901 170.3 138.201 174.3C137.701 174.7 137.201 175.1 136.401 175.2C135.301 175.2 134.201 174.4 133.301 173.7C131.101 171.8 128.801 170 126.601 168.1C127.801 170.7 129.001 173.4 130.201 176C130.601 176.9 131.001 177.9 130.901 178.7C130.801 179.4 130.301 179.9 129.901 180.5C126.401 184.5 122.501 188.2 118.301 191.6C121.101 190.3 131.701 186.3 134.201 187.7C135.701 188.5 135.801 190 136.201 191.4C137.101 195.4 137.501 199.1 138.301 203C139.301 198.5 140.601 194.2 142.301 190.1C142.801 188.9 143.401 187.7 144.201 186.7C147.001 183.5 152.501 183.4 157.601 183.4C155.301 183.4 150.501 181.5 148.201 180.6C145.301 179.5 144.901 179.2 145.501 176.7C146.901 171.7 149.001 164 151.401 158.4Z" fill="white"/>
<path d="M139.5 138.7C139.5 141.2 139.7 144.1 139.3 146.4C139.3 146.6 139.2 146.9 139 147.1C138.7 147.4 138.2 147.4 137.7 147.3C136.6 147.3 135.5 147.2 134.4 147.2C135.4 147.7 136.3 148.2 137.3 148.7C137.6 148.9 138 149.1 138.1 149.3C138.2 149.5 138.2 149.8 138.2 150C138.1 152 137.8 153.9 137.4 155.9C137.9 154.9 140.1 151.3 141.2 151.1C141.8 151 142.2 151.4 142.6 151.7C143.8 152.7 144.7 153.7 145.9 154.6C145.2 153.1 144.6 151.5 144.1 149.9C144 149.4 143.9 148.9 143.9 148.5C144 146.9 145.6 145.6 147.1 144.5C146.4 145 144.6 145.6 143.7 145.8C142.6 146.2 142.4 146.1 142 145.3C141.2 143.6 140.1 140.8 139.5 138.7Z" fill="white"/>
<path d="M165.101 47.2999C163.801 44.2999 161.901 41.2 159.101 40.5C155.701 39.6 152.501 42.5 150.201 45.7C146.401 50.8 143.601 56.9 141.901 63.5C141.801 60.8 141.501 57.9 140.401 55.6C139.201 53.3 136.901 51.6 134.701 52.4C133.401 52.9 132.501 54.0999 131.601 55.2999C129.101 58.9999 127.601 63.5999 127.101 68.4C127.101 60.5999 122.101 52.7 115.801 52C115.001 51.9 113.601 52.5 112.901 53.1C110.601 55.3 110.601 60.8999 110.501 62.7999C110.301 70.2999 111.801 83.2 112.001 84.4C112.301 84.8 148.401 110.4 174.401 125.9C183.601 109.2 184.201 100.2 183.501 80.1C183.401 78.2 183.301 76.3 182.501 74.6C181.301 72.1 178.801 70.9 176.501 70C173.601 68.8 169.701 67.4999 167.201 70.4C171.301 63.4999 168.101 54.0999 165.101 47.2999Z" fill="#CAEADC"/>
<path d="M375.9 76.4998C371.6 72.4998 370.2 64.8998 367.9 59.3998C365.6 53.8998 361.7 48.2998 355.9 47.4998C348.8 46.4998 344.1 58.8998 346.9 65.4998C345.8 61.1998 340.5 51.6998 333.6 52.9998C327.4 54.1998 327.6 61.1998 328.5 65.4998C327.7 63.0998 326.7 60.4998 324.5 59.1998C321.8 57.6998 318.3 58.9998 316.2 61.2998C314.2 63.5998 313.3 66.6998 312.5 69.6998C311.1 74.8998 309.6 80.0998 308.2 85.1998C306 76.2998 298.1 69.0998 289 67.7998C290.3 63.6998 295.6 44.3998 285.3 40.3998C277 37.0998 271.2 51.4998 271.8 57.8998C265 48.7998 267.6 38.9998 262.5 28.5998C259.4 22.1998 253.2 18.6998 246.1 18.3998C237.8 17.9998 231.5 27.7998 230.8 35.1998C230.1 43.4998 232.8 55.9998 235.4 63.6998C234.8 59.9998 229.7 47.5998 227.7 44.3998C225.7 41.1998 222 33.1998 214.9 33.8998C208.5 34.5998 208.1 46.7998 209.5 57.6998C208.9 52.7998 199.1 45.7998 195.1 48.6998C191.2 51.5998 191.3 60.3998 192.9 64.9998C188.5 59.4998 175.8 58.4998 172.4 64.6998C169 70.8998 174.7 81.9998 180.6 85.8998C166.1 85.2998 147.2 100.1 158.7 111.8C164.4 117.6 195 139.9 202.7 142.5C204.3 143 206 143.6 207.2 144.8C210.4 148.1 208.3 153.7 209.9 158C211.5 162.3 216.4 164.2 221 164.9C225.5 165.5 230.3 165.4 234.4 167.5C240 170.4 242.8 176.9 248 180.4C254.9 185 264 183.5 272.2 184.5C281.8 185.7 291.1 190.6 300.7 189C302.1 188.8 303.6 188.4 305 188.5C306.7 188.7 308.2 189.5 309.8 190.3C315.3 193.1 321.3 194.9 327.4 195.7C330.6 196.1 333.8 196.3 336.7 197.6C338.6 198.5 340.3 199.9 342.2 200.9C344.8 202.2 347.7 202.7 350.6 203.2L384.3 208.8C389.2 170.1 392 130.1 389.9 91.0998C389.4 82.2998 381.7 81.8998 375.9 76.4998Z" fill="#BDE1D3"/>
<path d="M379.002 270.6C382.202 248.4 384.602 204.7 384.602 204.7L180.602 140.2L373.202 286.8C373.302 286.8 377.702 280.1 379.002 270.6Z" fill="#F2D4B6"/>
<path d="M203.8 1H199V92.3H203.8V1Z" fill="white"/>
<path d="M114.901 86.3999L108.301 81.7999L108.501 1.09991L115.401 0.899902L114.901 86.3999Z" fill="white"/>
<path d="M294.101 4.8999H289.301V113.1H294.101V4.8999Z" fill="white"/>
<path d="M392.801 0.899902H110.701V9.3999H392.801V0.899902Z" fill="white"/>
<path d="M388 181.6C389.1 174.5 391.3 156.3 392.6 145.1V3H386L386.2 189.8C386.8 188.2 387.7 183.3 388 181.6Z" fill="white"/>
<path d="M334.1 237.4C333 237.1 331.6 255 331.6 255L318.6 245.4L328.4 235.3C328.4 235.3 335.2 237.7 334.1 237.4Z" fill="#252438"/>
<path d="M394.801 100.9C394.801 107 389.901 109.8 385.201 120.7C380.501 131.7 372.001 152.3 368.601 165.5C365.201 178.7 363.001 192.7 362.001 196.2C361.101 199.6 359.501 209 359.501 209C359.501 209 344.501 208.1 331.001 206.2C317.501 204.3 285.201 190.5 283.401 180.2C281.501 169.9 286.001 110.8 300.401 90.2001C314.801 69.5001 314.401 70.3001 336.901 74.7001C359.401 79.1001 382.601 88.4001 388.701 90.7001C395.901 93.3001 394.801 98.8001 394.801 100.9Z" fill="#323047"/>
<path d="M364.199 212.8C364.699 212.1 364.899 181.3 374.799 154.7C384.699 128.1 393.999 106.3 393.999 106.3C393.999 106.3 399.499 92.6001 389.799 91.3001C374.099 89.1001 367.399 126.4 363.199 141.9C359.399 155.9 354.899 175.5 353.299 186.5C350.799 204.4 350.699 215.8 350.699 215.8C350.699 215.8 363.599 213.7 364.199 212.8Z" fill="#4D4B66"/>
<path d="M360.9 204.9C360.9 204.9 362.1 221.7 361.1 225.5C360.1 229.3 359.7 231.5 350.1 235.6C340.5 239.7 321.7 247.8 321.7 247.8L311.6 240.1L297.1 228.5L255 197.4L286.7 183.3L360.9 204.9Z" fill="#3D3A53"/>
<path d="M348.001 210.5C347.601 213.6 344.001 217 339.101 219.3C327.001 225 319.601 226.7 304.701 228.5C305.901 225.8 292.001 223.5 291.201 220.6C288.601 211.4 288.901 209.9 286.101 200.8C285.001 197.3 289.701 181.9 293.101 181.6C295.801 181.3 298.401 180.2 301.101 179.6C307.801 178.1 314.801 179.8 321.201 182.2C327.601 184.6 333.801 187.7 340.501 189.2C344.401 190 348.901 190.2 349.201 194.8C349.801 199.8 348.701 205.5 348.001 210.5Z" fill="#63BDE5"/>
<path d="M292.402 177C292.402 177 278.402 149.3 266.902 138.1C251.402 123.1 242.302 118.4 236.002 117.6C229.702 116.8 230.702 120.4 226.902 127.2C223.102 133.9 208.102 198 208.102 198L228.102 202.5C228.102 202.5 236.102 189.5 239.302 182.1C245.202 168.4 242.602 167.3 242.602 167.3C242.602 167.3 262.902 199 266.002 205.7C267.502 208.9 279.802 210.7 290.702 205.2C301.602 199.6 292.402 177 292.402 177Z" fill="#50A6CC"/>
<path d="M275.801 178.1C275.801 178.1 278.101 187.3 277.901 190C277.701 192.6 274.701 198.4 274.701 198.4C274.701 198.4 273.201 198.5 272.801 197.3C272.401 196.1 273.201 189.4 273.201 189.4L273.401 183.1L275.801 178.1Z" fill="#E09999"/>
<path d="M276.2 172.7C276.2 172.7 276 194.7 275 196.1C274 197.5 272 198.1 272 198.1L268.1 199.4L258.5 193.4L261.6 189.8C261.6 189.8 261.7 183.8 262.5 180.2C263.3 176.6 264.8 172.5 264.8 172.5L275.1 170.8L276.2 172.7Z" fill="#F4B8B8"/>
<path d="M292.8 122.2C292.8 122.2 283.1 129.2 279.8 130.7C275.3 132.7 271.7 134 271.7 134C271.7 134 261.5 131.4 258.6 127.4C255.7 123.4 249.7 121.2 251.3 120C257 115.5 262.8 113.5 268.6 109.8C275.2 105.7 282.4 99.5001 287.5 97.6001C292.6 95.7001 299.2 94.8 299.2 94.8L298.2 113.4L292.8 122.2Z" fill="#4F559E"/>
<path d="M273.801 134.9C275.201 140 276.801 147.2 277.201 155.2C277.601 164.4 277.001 173.5 277.001 173.5C277.001 173.5 273.601 174.1 268.801 173.8C263.901 173.4 261.901 172 261.901 172C261.901 172 260.801 164.6 260.001 158.8C259.201 153 251.601 136.3 249.901 128.6C248.101 120.3 252.501 119.1 254.201 118.2C254.401 118.1 261.201 116.7 266.301 122C266.101 122 272.001 128.3 273.801 134.9Z" fill="#5A5CA5"/>
<path d="M335.501 86.1001C335.501 86.1001 329.301 98.0001 320.301 97.7001C311.301 97.4001 310.201 90.5001 310.201 90.5001C310.201 90.5001 303.201 92.8001 298.801 94.2001C295.301 95.3001 292.901 95.3001 292.301 96.7001C291.701 98.1001 284.501 115.3 285.901 136.8C287.301 158.3 292.101 176.7 292.101 176.7C292.101 176.7 294.601 181.2 299.401 181.5C303.701 181.7 324.201 189 331.601 193.2C340.401 198.1 348.501 204.1 348.501 204.1C348.501 204.1 351.301 180.7 351.301 178.6C351.301 176.4 352.701 173.1 352.701 173.1C352.701 173.1 361.501 137.5 363.701 124.2C365.901 110.9 374.501 105.6 364.101 98.2001C353.701 90.6001 335.501 86.1001 335.501 86.1001Z" fill="#5A5CA5"/>
<path d="M337.002 86.7002C337.002 86.7002 331.602 81.4002 329.002 76.3002C326.402 71.1002 324.602 65.4002 324.602 65.4002C324.602 65.4002 313.102 62.9002 309.502 64.8002C305.902 66.6002 305.302 71.4002 306.102 76.6002C306.802 81.8002 310.502 91.5002 310.502 91.5002C310.502 91.5002 311.002 99.2002 316.802 100.2C322.602 101.2 331.402 96.1001 332.502 94.8001C334.602 92.3001 337.002 86.7002 337.002 86.7002Z" fill="#E29191"/>
<path d="M327.7 81.5C327.7 81.5 323.7 96.9 320.6 98.6C317.5 100.3 313.3 98.3 312.5 97.4C311.7 96.5 310 90.3 310 90.3L323.3 83.2L327.7 81.5Z" fill="#D17474"/>
<path d="M113.5 137C113.5 137 129.3 115.1 107.7 98.5C90.0999 85 70.7999 93.2 61.9999 107C57.4999 114.1 52.2999 129 52.3999 150.4C52.4999 169.7 53.5999 181.1 53.1999 185.1C52.7999 189.1 76.9999 187.3 76.9999 187.3L92.6999 187.5C92.6999 187.5 101.7 170.7 104.8 160.4C108.1 150 113.5 137 113.5 137Z" fill="#511C39"/>
<path d="M94.9008 161.9C94.9008 161.9 91.2008 166.9 90.6008 170.5C90.2008 172.5 92.4008 175.7 94.2008 176.5C96.0008 177.2 98.9008 178.7 98.9008 178.7C98.9008 178.7 92.6008 181.4 84.9008 181.4C77.2008 181.4 69.6008 176.8 67.8008 176C66.0008 175.3 64.8008 173.2 64.8008 173.2C64.8008 173.2 71.9008 172 73.0008 169.9C74.0008 167.8 77.8008 157.7 78.6008 152.9C79.3008 148.1 87.8008 151.3 87.8008 151.3L97.1008 159.6L94.9008 161.9Z" fill="#E29191"/>
<path d="M75.4 231.8L56.9 236.3L53 179.7L84.8 181.4L75.4 231.8Z" fill="#511C39"/>
<path d="M114.702 200.7C114.702 200.7 111.602 191.5 109.102 187.7C106.502 183.8 105.202 181.8 105.202 181.8L94.2016 176.5C94.2016 176.5 90.0016 175.8 88.6016 175.7C88.1016 175.7 87.1016 175.9 86.2016 176.2C84.2016 176.8 82.0016 176.6 80.2016 175.5C78.9016 174.7 77.4016 174 76.4016 173.8C73.8016 173.3 64.8016 173.1 64.8016 173.1C64.8016 173.1 59.2016 173.9 55.3016 172.6C51.4016 171.3 48.1016 173.7 48.1016 173.7L49.4016 190.1L52.3016 206.7L57.4016 213.8L79.8016 233.1L107.802 215.9L115.202 207.1L114.702 200.7Z" fill="#F4B8B8"/>
<path d="M88.2012 186.2C91.9012 191.9 94.5012 198.2 95.8012 204.8C95.5012 203.5 99.3012 201.5 99.6012 200C99.9012 198.4 98.4012 196.1 97.7012 194.8C95.5012 191.1 92.2012 188 88.2012 186.2Z" fill="#E28F8F"/>
<path d="M327.601 75.1001C327.601 75.1001 329.501 80.1001 327.701 83.9001C325.901 87.7001 321.301 95.3001 321.301 95.3001C321.301 95.3001 319.601 96.9001 316.101 96.9001C312.601 96.9001 307.301 89.0001 303.501 86.2001C300.101 83.8001 300.101 79.0001 299.301 76.9001C298.501 74.8001 294.501 72.0001 293.501 69.2001C292.501 66.4001 289.701 57.8001 289.701 57.8001C289.701 57.8001 293.501 45.6001 304.701 45.1001C315.901 44.5001 319.201 44.3001 322.501 50.3001C325.701 56.3001 327.201 69.3001 327.201 69.3001L327.601 75.1001Z" fill="#F4B8B8"/>
<path d="M303.302 75.4999C303.802 77.0999 304.402 82.3999 305.002 82.8999C305.702 83.4999 309.002 81.4999 309.402 81.6999C309.602 81.7999 310.302 84.7999 310.702 85.3999C311.002 85.7999 315.902 89.2999 316.002 89.7999C316.102 90.1999 314.302 91.6999 314.102 91.9999C313.302 93.6999 313.902 95.8999 315.402 96.7999C312.702 97.0999 306.502 89.4999 304.802 88.2999C299.502 84.6999 299.602 81.8999 299.202 80.6999C297.502 75.8999 296.602 75.0999 294.502 71.3999C293.302 69.2999 297.602 66.8999 299.202 67.2999C301.702 67.9999 302.502 73.1999 303.302 75.4999Z" fill="#E09999"/>
<path d="M102.9 181C102.9 181 103.3 180.8 105.1 180.5C106.9 180.2 110.3 180.2 111.8 181.4C114.8 183.9 118.3 192.4 120.3 199.1C122.3 205.8 124.7 218.2 124.7 218.2L121.6 231.7L113.5 237.1L107.7 218.7L103.4 189.4L102.9 181Z" fill="#F4A4A4"/>
<path d="M109 155.1C106.9 149 98.6998 149.6 95.4998 155.1C95.3998 155.3 95.1999 155.5 95.0999 155.8C92.9999 160.2 92.2998 166.7 97.1998 169C100.3 170.5 106.2 170.2 108.6 163.3C109.3 161.2 109.6 156.8 109 155.1ZM104.8 162.4C103.4 167.4 99.4999 168.7 97.5999 167.5C94.5999 165.7 94.8999 160.4 96.0999 157.2C96.1999 157 96.1998 156.9 96.2998 156.7C98.0998 152.8 103.8 152.7 105.1 157.1C105.6 158.3 105.3 160.8 104.8 162.4Z" fill="#FCC12B"/>
<path d="M348.402 198.8C348.402 198.8 348.702 205.5 347.702 210.5C346.702 215.5 344.302 215.6 344.302 215.6C344.302 215.6 328.602 223.2 322.302 225.2C316.002 227.2 300.402 231.3 300.402 231.3L264.102 204.6C264.102 204.6 276.402 198.8 283.402 196.1C284.602 195.7 285.802 195.4 287.002 194.9C293.802 192 295.102 188.2 293.802 183L292.602 178L291.802 176.2C291.802 176.2 304.002 182.7 317.502 187.7C332.402 193.1 348.802 199.9 348.402 198.8Z" fill="#63BDE5"/>
<path d="M115.301 131.6C115.301 131.6 114.301 135.3 113.301 138C112.401 140.7 111.801 142 111.801 142C111.801 142 109.601 143.8 108.901 145.5C108.201 147.1 108.501 150.3 106.501 153.5C104.501 156.8 98.4009 161 95.1009 163.2C91.8009 165.4 88.7009 166.6 84.5009 163.3C80.3009 160 76.4009 151.4 75.9009 147.9C75.4009 144.4 75.5009 138.7 76.4009 134.9C77.3009 131.1 79.4009 124.2 82.9009 119.1C85.9009 114.7 93.5009 111.4 106.601 116.3C117.401 120.4 115.301 131.6 115.301 131.6Z" fill="#F4B8B8"/>
<path d="M98.4016 131.3C98.1016 131.9 97.5016 132.3 95.9016 131.6C94.3016 130.9 93.2016 130.2 90.2016 129.6C87.1016 129 85.1016 129.3 85.1016 129.3C85.1016 129.3 87.2016 126.2 92.1016 127.4C96.9016 128.6 98.4016 131.3 98.4016 131.3Z" fill="#5E2246"/>
<path d="M325.1 40C323.9 37.3 321.4 35.1 318.6 34.2C315.5 33.3 311.3 33.2 308.3 33.4C300.2 34 293.3 38.4 287.9 44.5C286.6 46 284 47.8 283.1 48.5C283.7 49.3 285.4 51.4 285.8 52.3C284 53 282.3 53.6 280.4 53.8C282.5 56.4 285.2 58.4 288.3 59.8C288.9 60.1 289.5 60.2 290 60.4C290.4 60.6 290.4 60.1 290.6 60.5C291 61.1 290.8 59.8 293.2 57.9C295.9 55.8 296.9 55.4 299.5 54.5C299.3 54.3 299.2 54.1 298.5 53.7C298.9 53.3 301.8 51.9 306.7 50.8C309 50.3 312.6 50.1 314.9 51C317.6 52.1 320.3 54.7 322 57.5C322.7 58.6 323.1 60 323.5 61.3C324.2 63.6 325.7 67.7 326.7 68.5C327.2 67.1 326.9 65.1 326.8 63.7C326.7 61.6 328.4 71.3 328.7 69.4C329.1 67.2 329.7 53 329.6 50.8C329.5 48.5 328.7 45.5 328.4 44.5C327.9 43.4 326.8 40.5 325.1 40Z" fill="#2F253F"/>
<path d="M299.201 68.6001C298.801 68.9001 298.301 69.0001 297.701 69.1001C296.301 69.3001 295.001 69.6001 293.901 70.6001C293.701 70.4001 293.601 70.1001 293.401 69.9001C293.301 69.8001 293.301 69.7001 293.301 69.6001C293.301 69.5001 293.301 69.3001 293.301 69.2001C293.501 68.3001 294.101 67.6001 294.801 67.1001C295.501 66.6001 296.401 66.4 297.201 66.3C298.201 66.3 300.701 67.3001 299.201 68.6001Z" fill="#2F253F"/>
<path d="M296.602 77C297.302 77.2 298.002 77.4 298.702 77.3C299.402 77.2 300.502 76.8 301.002 76.2C302.302 74.6 302.202 73.5 302.202 73.5C302.202 73.5 301.402 74.3 301.102 74.5C300.402 75.1 299.802 75.3 298.902 75.5C298.202 75.6 298.002 75.2 297.602 75.8C297.402 76 296.802 77.1 296.602 77Z" fill="#5B415B"/>
<path d="M316.701 81.2C316.701 81.2 313.401 82.8999 311.701 83.8999C310.101 84.7999 307.601 85.7999 307.201 85.9999L306.801 86.2C306.801 86.2 308.601 87.4999 309.301 87.7999C310.001 88.0999 311.701 88.5999 313.501 88.0999C315.301 87.5999 316.401 86.1999 316.801 84.7999C317.201 83.8999 316.701 81.2 316.701 81.2Z" fill="white"/>
<path d="M330.302 61.5C330.902 62.6 331.102 64.4 331.102 65.6C331.002 67.2 330.502 70.5 329.502 72.2C329.002 73.1 327.702 74.6 325.802 72.9C324.602 72 325.302 71.3 325.402 70C325.502 68.5 325.302 67.5 325.102 66C325.002 64.8 324.502 62.9 324.802 61.6C325.502 59.1 329.402 59.9 330.302 61.5Z" fill="#F4B8B8"/>
<path d="M299.501 129.8L286.301 119.9C286.301 119.9 284.601 118.5 282.701 119.1C280.801 119.7 271.701 123.6 271.701 123.6C271.701 123.6 270.901 125.3 272.201 126.6C273.501 127.9 284.601 135.7 284.601 135.7L299.501 129.8Z" fill="#252438"/>
<path d="M316.201 137.6C314.701 136.4 307.601 130.4 305.601 129.1C303.601 127.8 300.201 126.3 300.201 126.3L293.701 125.7C293.701 125.7 297.501 127.9 298.201 128.8C298.901 129.7 298.901 130 296.801 130.5C294.701 131 286.301 133.5 285.101 133.7C283.901 133.9 278.101 132.7 277.501 133.7C276.901 134.7 279.601 135.7 281.301 136.4C283.001 137.1 285.801 137.7 285.801 137.7C285.801 137.7 285.801 138.5 286.601 139.7C287.401 140.9 289.301 141.1 289.301 141.1C289.301 141.1 288.401 141.7 289.201 142.8C290.001 143.9 291.101 143.9 291.101 143.9C291.101 143.9 290.301 144.9 291.601 145.6C292.901 146.3 304.701 145.6 304.701 145.6L310.701 149.9L316.301 142L316.201 137.6Z" fill="#F4B8B8"/>
<path d="M354.002 191.1C352.002 191.1 348.302 192.2 343.102 194C331.802 197.8 279.102 215.6 279.102 215.6L296.302 227.9C296.302 227.9 344.202 206.3 353.302 204.3C359.602 202.9 360.602 202.9 361.002 206.2C361.202 208 361.402 227.5 359.902 233.1C359.102 236 355.702 237.2 352.002 239.1C348.302 241 323.802 249.4 323.802 249.4L328.902 253.3C328.902 253.3 358.302 242.5 361.302 239.7C364.302 236.9 364.702 233.6 364.902 222.4C365.102 211.1 364.702 201.5 364.702 201.5C364.702 201.5 364.302 197.4 362.602 195.4C359.202 190.8 354.902 191.1 354.002 191.1Z" fill="#595989"/>
<path d="M77.7005 150.2C77.6005 143.8 69.5005 141.8 64.8005 146C64.6005 146.2 64.4005 146.3 64.2005 146.5C60.8005 150.1 59.3005 156.3 63.2005 160C65.7005 162.4 70.9005 163.7 75.2005 157.8C76.7005 156.1 77.8005 152 77.7005 150.2ZM71.3005 156.3C68.5005 160.7 65.0005 159.8 63.5005 158.1C61.2005 155.5 62.7005 150.9 64.8005 148.2C64.9005 148.1 65.0005 147.9 65.1005 147.8C68.0005 144.7 72.9005 145.9 72.8005 150.6C72.9005 151.9 72.2005 154.9 71.3005 156.3Z" fill="#FCC12B"/>
<path d="M90.4006 113C90.4006 113 84.4007 104.5 75.3007 108.5C68.5007 111.4 63.2007 122.7 61.3007 131.5C59.4007 140.3 57.4006 160.4 57.4006 160.4L57.2006 163.2C57.2006 163.2 54.9006 132.2 61.2006 116.6C64.8006 107.5 72.9007 97.1999 85.6007 99.7999C93.1007 101.3 97.3007 112.9 97.3007 112.9L90.4006 113Z" fill="#7A3963"/>
<path d="M93.7016 139.2C94.1016 138.6 94.1016 138 94.0016 136.9C93.9016 135.4 92.9016 134.4 91.9016 133.6C91.1016 133.1 90.3017 132.7 89.3017 132.5C88.6017 132.4 87.5016 132.2 86.9016 132.5C85.1016 133.4 85.7016 135.1 85.5016 135.4C85.4016 135.6 85.3017 135.2 85.1017 135.3C84.7017 135.6 84.5017 136.1 84.6017 136.6C84.7017 137.1 85.0017 137.5 85.3017 137.9C85.9017 138.5 86.7016 138.9 87.5016 139.2C89.1016 139.5 92.9016 140.3 93.7016 139.2Z" fill="#DB7979"/>
<path d="M94.0016 139C94.0016 139 90.6016 139.1 88.4016 137.9C85.9016 136.5 85.8016 135.2 85.8016 135.2C85.8016 135.2 84.5016 134.9 83.5016 134.6C82.5016 134.3 81.6016 133.8 81.6016 133.8C81.6016 133.8 82.7016 138 85.4016 139.4C88.1016 140.8 90.8016 140.7 91.9016 140.3C93.2016 139.8 94.0016 139 94.0016 139Z" fill="#25233A"/>
<path d="M73.0008 130.1C72.4008 131.1 72.1008 132.5 71.9008 133.7C71.8008 134.9 72.0008 138.7 73.4008 140.3C73.9008 140.8 74.6008 141.2 75.4008 141.1C76.4008 140.9 76.9008 139.9 77.1008 139C77.7008 137 78.3008 133.5 77.8008 131.4C77.3008 129.3 74.5008 127.7 73.0008 130.1Z" fill="#F9C0C0"/>
<path d="M62.7011 195.4C63.2011 193.8 62.0012 192.1 61.0012 191.3C60.7012 191.1 60.5011 191 60.2011 190.8C58.8011 190 57.0011 190.8 56.7011 192.4C55.6011 198.7 55.3012 204.5 55.5012 210.7C55.5012 211.1 55.5011 211.4 55.7011 211.7C55.9011 212 56.2012 212.1 56.5012 212.3C58.9012 213.4 59.9012 214.5 62.5012 215.1C62.9012 211.9 62.4012 209.4 61.3012 206.5C60.0012 203 61.8011 198.2 62.7011 195.4Z" fill="#EA9B9B"/>
<path d="M55.7008 198.3C55.1008 207.3 55.8008 223.3 58.2008 233.9C60.7008 244.6 63.9008 249.6 63.9008 249.6L64.1008 262.5C64.1008 262.5 62.7008 269.3 58.4008 269.1C54.1008 268.9 48.0008 255 45.2008 247.1C42.5008 239.2 37.7008 208.5 37.7008 195.1C37.7008 181.7 37.1008 170.4 46.7008 168.8C50.1008 168.2 55.5008 170.5 58.2008 171.5C62.2008 173 64.8008 173.2 64.8008 173.2L58.0008 189C58.2008 189 56.1008 191.8 55.7008 198.3Z" fill="#F4B8B8"/>
<path d="M114.7 197.7C114.7 197.7 107.6 192.1 102.8 192.5C98 193 96.8 194.2 95.4 195.7C94 197.2 93.7 198.2 93.7 198.2C93.7 198.2 89.7 192.8 83.9 191C78.1 189.2 72.5 189.8 68.8 194.4C65.2 199 61.6 206.2 59.8 208.4C58 210.7 56 211.6 56 211.6C56 211.6 61.9 223.7 68 231.1C74.1 238.5 77.5 240.3 76.9 246.8C76.3 253.3 77.2 254.5 73.3 260.2C58.4 281.8 59.5 304.5 59.5 304.5C59.5 304.5 100.2 300 116.6 299C133 298.1 135.8 297.7 135.8 297.7C135.8 297.7 130 265.1 120 253.7C113.6 246.4 112.7 239 112.4 235.3C112.1 231.6 117.9 222.5 120 215.5C122.2 208.5 119.1 206.9 117 202.5C115.1 198.2 114.7 197.7 114.7 197.7Z" fill="#E21349"/>
<path d="M89.6016 297.1L82.9016 291L74.0016 293L77.8016 284.7L73.1016 276.9L82.2016 277.9L88.1016 271.1L90.0016 280L98.3016 283.6L90.4016 288L89.6016 297.1Z" fill="white"/>
<path d="M102.602 255.6L92.6016 246.4L79.4016 249.4L85.1016 237.1L78.1016 225.5L91.6016 227L100.502 216.8L103.102 230.1L115.602 235.4L103.802 242.1L102.602 255.6Z" fill="#EADEF9"/>
<path d="M127.501 266.4C125.101 260.5 121.001 254.6 121.001 254.6L120.401 263.5L114.201 266.7L120.801 271.6L122.201 280.8L126.901 274.9L130.801 276.3C129.801 273.3 128.601 269 127.501 266.4Z" fill="white"/>
<path d="M107.101 226L119.201 208.5C119.201 208.5 120.101 206.3 124.201 206.1C127.801 205.9 136.201 205.7 136.201 205.7C136.201 205.7 140.701 206 138.301 210.1C136.401 213.3 126.201 231 126.201 231L119.901 238.9L104.201 233.1L107.101 226Z" fill="#26263A"/>
<path d="M105.2 237.7C105.2 237.7 77.8001 259.5 71.8001 263C65.8001 266.5 61.4001 270.9 58.5001 267.8C55.6001 264.7 63.7001 248.3 63.7001 248.3C63.7001 248.3 88.2001 235.8 93.0001 233.8C97.8001 231.7 107.6 224.8 110.5 227.1C113.4 229.3 105.2 237.7 105.2 237.7Z" fill="#F4B8B8"/>
<path d="M99.9004 230.3C99.9004 230 100.8 223.8 104.3 220.9C107.9 218 113.3 216.9 113.3 216.9C113.3 216.9 112.4 217.8 111.5 219.4C110.3 221.4 112 225.3 112 225.3L107.3 230.9L100.3 231.6L99.9004 230.3Z" fill="#F4B8B8"/>
<path d="M85.9008 124.8C83.4008 129.4 81.6008 134.3 79.6008 139.1C77.8008 143.3 75.5008 147.3 72.8008 151C71.0008 153.4 68.7008 155.8 65.8008 155.6C69.9008 152.5 72.3008 147.4 73.9008 142.4C75.4008 137.3 76.2008 132 78.0008 127.1C79.8008 122.1 84.0008 115.2 88.7008 113.2C96.1008 110 104.901 114.2 107.301 116.5C104.901 115.8 99.7008 114.7 95.2008 116.3C91.1008 117.6 88.0008 120.9 85.9008 124.8Z" fill="#7A3963"/>
<path d="M114.301 127.4C114.401 131.4 113.801 134 113.101 137.5C112.301 141 111.601 144.6 112.101 148.2C113.301 143.8 116.501 140 118.101 135.7C119.401 132.3 119.601 128.6 118.701 125.1C118.101 122.8 117.301 120.2 115.201 118.8C112.201 116.7 108.201 117 108.201 117C108.201 117 110.801 118.7 112.101 120.7C113.601 123.1 114.201 125.5 114.301 127.4Z" fill="#7A3963"/>
<path d="M127.402 228.3C127.402 228.3 130.902 246.6 130.402 252.6C129.902 258.6 126.702 261.7 121.002 254.3C115.302 246.9 115.102 230.6 115.102 230.6L123.602 224.3L127.402 228.3Z" fill="#EA9B9B"/>
<path d="M101.502 137.9C100.702 139.8 99.8016 143 99.3016 145C99.1016 145.9 98.7016 147.8 98.5016 148.4C98.2016 149.3 96.4016 148.8 95.1016 148.6C93.1016 152.1 91.6016 155.1 90.1016 158.9C92.0016 160.6 92.5016 162.9 91.3016 165.2C97.1016 163 100.702 159.8 105.102 156C106.102 155.1 107.102 153.9 107.702 152.7C108.602 150.7 108.402 147.8 109.302 145.9C110.302 143.9 112.102 142.5 112.502 140.3C112.802 138.5 111.502 136.7 109.802 135.8C105.602 133.6 103.202 133.8 101.502 137.9Z" fill="#EA9B9B"/>
<path d="M98.7012 155.8C98.7012 155.8 93.5012 153.5 91.0012 152.3C88.4012 151.1 86.2012 150.2 86.2012 150.2C86.2012 150.2 86.6012 154.7 89.4012 156.6C92.2012 158.5 93.4012 158.4 96.1012 157.5C98.7012 156.8 98.7012 155.8 98.7012 155.8Z" fill="white"/>
<path d="M98.8 156C98.8 156 98.4 153.4 96.6 152.5C94.7 151.6 92.1 150.3 90.7 150.1C89.3 149.9 85 149.5 85 149.5C85 149.5 88.9 152.4 93.1 154.3C95.7 155.4 98.8 156 98.8 156Z" fill="#CE0B3E"/>
<path d="M98.9 156C98.9 156 94.9 157.8 91.8 156.5C89.2 155.5 87.2 153.2 86.8 152C86.4 150.9 86 149.8 86 149.8L85 149.4C85 149.4 85.8 157.5 89 159.4C92.2 161.3 94.7 160.3 97.1 158.5C98.4 157.6 98.9 156 98.9 156Z" fill="#F21645"/>
<path d="M104.901 140.5C106.301 140.2 108.101 140.4 109.401 141.3C110.001 141.7 110.501 142.4 110.501 143.3C110.401 144.2 109.801 144.8 109.701 145.6C108.601 146.1 107.401 145.9 106.301 145.4C105.701 145.1 105.101 144.7 104.501 144.2C104.101 143.9 103.301 143.6 103.001 143.2C102.001 141.9 104.101 140.7 104.901 140.5Z" fill="#DB7979"/>
<path d="M109.901 144.8C109.901 144.8 108.801 145.4 106.901 144.9C104.601 144.4 102.701 142.5 102.701 142.5C102.701 142.5 102.601 143.7 102.801 144.1C103.401 145.4 104.801 147.1 108.601 147.8C112.301 148.5 113.701 146.4 113.701 146.4C113.701 146.4 112.001 146.2 111.401 145.9C110.601 145.7 109.901 144.8 109.901 144.8Z" fill="#25233A"/>
<path d="M113.601 139.1C113.601 139.1 112.301 136.1 110.001 135C107.901 134 105.201 133.9 104.901 134.8C104.601 135.7 106.601 135.5 109.201 137.2C111.801 138.9 112.801 140.2 112.801 140.2L113.601 139.1Z" fill="#5E2246"/>
<path d="M110.8 222.1C110.8 222.1 120.6 221.5 125.2 220.5C131 219.2 137.2 218.3 138.7 219.4C140.2 220.5 139.8 221.3 139.8 221.3C139.8 221.3 136.7 222.3 134.6 222.6C132.4 222.9 131.4 223.9 131.4 223.9C131.4 223.9 131.9 225.6 130.7 227C129.5 228.4 129 228.3 129 228.3C129 228.3 128.8 229.6 128 230.9C127.3 232.1 125.6 233 125.6 233C125.6 233 125.1 234.9 123.4 235.8C122.5 236.3 115.8 237.5 113.1 237.5C108.4 237.5 104 235.7 104 235.7L109.8 224.9L110.8 222.1Z" fill="#F4B8B8"/>
<path d="M112.701 118.9C112.701 118.9 112.801 111.1 109.001 105.2C105.301 99.2 99.7012 95.7 99.7012 95.7C99.7012 95.7 111.401 99.1999 114.901 107.8C118.401 116.3 116.401 121.9 116.401 121.9L112.701 118.9Z" fill="#7A3963"/>
<path d="M76.8008 204C76.8008 204.8 76.1008 205.5 75.3008 205.5C74.5008 205.5 73.8008 204.8 73.8008 204C73.8008 203.2 74.5008 202.5 75.3008 202.5C76.1008 202.5 76.8008 203.2 76.8008 204Z" fill="white"/>
<path d="M79.3008 208C79.3008 208.8 78.6008 209.5 77.8008 209.5C77.0008 209.5 76.3008 208.8 76.3008 208C76.3008 207.2 77.0008 206.5 77.8008 206.5C78.6008 206.5 79.3008 207.1 79.3008 208Z" fill="#FF8DB0"/>
<path d="M80.8008 221.9C80.8008 222.7 80.1008 223.4 79.3008 223.4C78.5008 223.4 77.8008 222.7 77.8008 221.9C77.8008 221.1 78.5008 220.4 79.3008 220.4C80.1008 220.4 80.8008 221.1 80.8008 221.9Z" fill="#FF8DB0"/>
<path d="M89.4004 256.4C89.4004 257.2 88.7004 257.9 87.9004 257.9C87.1004 257.9 86.4004 257.2 86.4004 256.4C86.4004 255.6 87.1004 254.9 87.9004 254.9C88.7004 254.9 89.4004 255.6 89.4004 256.4Z" fill="#FF8DB0"/>
<path d="M73.4004 210.4C73.4004 211.2 72.7004 211.9 71.9004 211.9C71.1004 211.9 70.4004 211.2 70.4004 210.4C70.4004 209.6 71.1004 208.9 71.9004 208.9C72.7004 208.9 73.4004 209.6 73.4004 210.4Z" fill="#FC6B9F"/>
<path d="M68.8008 203.2C69.3008 203.2 69.8008 203.6 69.8008 204.2C69.8008 204.7 69.4008 205.2 68.8008 205.2C68.2008 205.2 67.8008 204.8 67.8008 204.2C67.8008 203.7 68.2008 203.2 68.8008 203.2Z" fill="#FC6B9F"/>
<path d="M81.3008 272.2C81.8008 272.2 82.3008 272.6 82.3008 273.2C82.3008 273.7 81.9008 274.2 81.3008 274.2C80.7008 274.2 80.3008 273.8 80.3008 273.2C80.3008 272.7 80.8008 272.2 81.3008 272.2Z" fill="#FC6B9F"/>
<path d="M74.5 195.1C75 195.1 75.5 195.5 75.5 196.1C75.5 196.6 75.1 197.1 74.5 197.1C73.9 197.1 73.5 196.7 73.5 196.1C73.5 195.5 74 195.1 74.5 195.1Z" fill="#FC6B9F"/>
<path d="M85.8008 218.5C85.8008 219.3 85.1008 220 84.3008 220C83.5008 220 82.8008 219.3 82.8008 218.5C82.8008 217.7 83.5008 217 84.3008 217C85.1008 217 85.8008 217.6 85.8008 218.5Z" fill="#FC6B9F"/>
<path d="M111.602 206.8C111.602 207.6 110.902 208.3 110.102 208.3C109.302 208.3 108.602 207.6 108.602 206.8C108.602 206 109.302 205.3 110.102 205.3C110.902 205.3 111.602 206 111.602 206.8Z" fill="#C40843"/>
<path d="M114.4 247.9C114.4 248.7 113.7 249.4 112.9 249.4C112.1 249.4 111.4 248.7 111.4 247.9C111.4 247.1 112.1 246.4 112.9 246.4C113.7 246.4 114.4 247 114.4 247.9Z" fill="#C40843"/>
<path d="M113.401 199.5C113.401 200.1 112.901 200.6 112.301 200.6C111.701 200.6 111.201 200.1 111.201 199.5C111.201 198.9 111.701 198.4 112.301 198.4C112.901 198.4 113.401 198.9 113.401 199.5Z" fill="#C40843"/>
<path d="M116.902 210.9C116.902 212.4 115.702 213.6 114.202 213.6C112.702 213.6 111.602 212.4 111.602 210.9C111.602 209.4 112.802 208.3 114.202 208.3C115.602 208.3 116.902 209.4 116.902 210.9Z" fill="#D10B48"/>
<path d="M111.8 243.4C111.8 244.9 110.6 246.1 109.1 246.1C107.6 246.1 106.5 244.9 106.5 243.4C106.5 241.9 107.7 240.8 109.1 240.8C110.6 240.7 111.8 241.9 111.8 243.4Z" fill="#D10B48"/>
<path d="M130.8 284.9C130.8 286.4 129.6 287.6 128.1 287.6C126.6 287.6 125.5 286.4 125.5 284.9C125.5 283.4 126.7 282.3 128.1 282.3C129.5 282.3 130.8 283.4 130.8 284.9Z" fill="#D10B48"/>
<path d="M113.601 204.2C113.601 205 113.001 205.6 112.201 205.6C111.401 205.6 110.801 205 110.801 204.2C110.801 203.4 111.401 202.8 112.201 202.8C113.001 202.9 113.601 203.5 113.601 204.2Z" fill="#D10B48"/>
<path d="M109.501 254.1C109.501 254.9 108.901 255.5 108.101 255.5C107.301 255.5 106.701 254.9 106.701 254.1C106.701 253.3 107.301 252.7 108.101 252.7C108.901 252.7 109.501 253.3 109.501 254.1Z" fill="#D10B48"/>
<path d="M115.3 259.7C115.3 261.2 114.1 262.4 112.6 262.4C111.1 262.4 110 261.2 110 259.7C110 258.2 111.2 257.1 112.6 257.1C114 257.1 115.3 258.2 115.3 259.7Z" fill="#D10B48"/>
<path d="M113.001 270.4C113.001 271.2 112.401 271.8 111.601 271.8C110.801 271.8 110.201 271.2 110.201 270.4C110.201 269.6 110.801 269 111.601 269C112.401 269.1 113.001 269.7 113.001 270.4Z" fill="#D10B48"/>
<path d="M105.801 200.6C105.801 201 105.501 201.4 105.001 201.4C104.601 201.4 104.201 201.1 104.201 200.6C104.201 200.2 104.501 199.8 105.001 199.8C105.501 199.8 105.801 200.1 105.801 200.6Z" fill="#D10B48"/>
<path d="M78.1016 272.7C78.1016 273.5 77.4016 274.2 76.6016 274.2C75.8016 274.2 75.1016 273.5 75.1016 272.7C75.1016 271.9 75.8016 271.2 76.6016 271.2C77.4016 271.2 78.1016 271.8 78.1016 272.7Z" fill="#FC6B9F"/>
<path d="M93.5 259.2C93.5 260 92.8 260.7 92 260.7C91.2 260.7 90.5 260 90.5 259.2C90.5 258.4 91.2 257.7 92 257.7C92.8 257.7 93.5 258.4 93.5 259.2Z" fill="#FC6B9F"/>
<path d="M91.2012 269.1C91.2012 269.9 90.5012 270.6 89.7012 270.6C88.9012 270.6 88.2012 269.9 88.2012 269.1C88.2012 268.3 88.9012 267.6 89.7012 267.6C90.5012 267.6 91.2012 268.2 91.2012 269.1Z" fill="#FC6B9F"/>
<path d="M84.2012 295.3C84.2012 296.1 83.5012 296.8 82.7012 296.8C81.9012 296.8 81.2012 296.1 81.2012 295.3C81.2012 294.5 81.9012 293.8 82.7012 293.8C83.5012 293.8 84.2012 294.5 84.2012 295.3Z" fill="#FC6B9F"/>
<path d="M72.7012 285.8C72.7012 286.6 72.0012 287.3 71.2012 287.3C70.4012 287.3 69.7012 286.6 69.7012 285.8C69.7012 285 70.4012 284.3 71.2012 284.3C72.0012 284.3 72.7012 285 72.7012 285.8Z" fill="#FC6B9F"/>
<path d="M121.602 287C121.602 287.8 120.902 288.5 120.102 288.5C119.302 288.5 118.602 287.8 118.602 287C118.602 286.2 119.302 285.5 120.102 285.5C120.902 285.5 121.602 286.1 121.602 287Z" fill="#FC6B9F"/>
<path d="M115.301 207.3C115.301 208.1 114.601 208.8 113.801 208.8C113.001 208.8 112.301 208.1 112.301 207.3C112.301 206.5 113.001 205.8 113.801 205.8C114.601 205.8 115.301 206.5 115.301 207.3Z" fill="#FC6B9F"/>
<path d="M79.9008 215.8C79.9008 217.4 78.6008 218.6 77.1008 218.6C75.5008 218.6 74.3008 217.3 74.3008 215.8C74.3008 214.2 75.6008 213 77.1008 213C78.7008 213 79.9008 214.3 79.9008 215.8Z" fill="#FF8DB0"/>
<path d="M87.2016 263.1C87.2016 264.7 85.9016 265.9 84.4016 265.9C82.8016 265.9 81.6016 264.6 81.6016 263.1C81.6016 261.5 82.9016 260.3 84.4016 260.3C85.9016 260.3 87.2016 261.5 87.2016 263.1Z" fill="#FF8DB0"/>
<path d="M76.8012 296.2C76.8012 297.8 75.5012 299 74.0012 299C72.4012 299 71.2012 297.7 71.2012 296.2C71.2012 294.6 72.5012 293.4 74.0012 293.4C75.5012 293.4 76.8012 294.7 76.8012 296.2Z" fill="#FF8DB0"/>
<path d="M95.9008 250.8C95.9008 252.4 94.6008 253.6 93.1008 253.6C91.5008 253.6 90.3008 252.3 90.3008 250.8C90.3008 249.2 91.6008 248 93.1008 248C94.7008 248 95.9008 249.3 95.9008 250.8Z" fill="#FF8DB0"/>
<path d="M87.9012 224.9C87.9012 226.1 87.0012 227 85.8012 227C84.6012 227 83.7012 226.1 83.7012 224.9C83.7012 223.7 84.6012 222.8 85.8012 222.8C87.0012 222.8 87.9012 223.7 87.9012 224.9Z" fill="white"/>
<path d="M84.8016 265.8C84.8016 267 83.9016 267.9 82.7016 267.9C81.5016 267.9 80.6016 267 80.6016 265.8C80.6016 264.6 81.5016 263.7 82.7016 263.7C83.9016 263.7 84.8016 264.6 84.8016 265.8Z" fill="white"/>
<path d="M325.402 67C324.702 67.3 323.102 67.2 322.602 66.6C322.102 66 321.902 65.2 321.802 64.5C321.202 62.1 321.102 59.5 320.102 57.2C319.402 55.5 318.502 53.9 317.302 52.5C316.102 51.2 314.402 50.1 312.602 50C315.002 50.7 317.302 51.5 319.402 52.8C321.502 54.1 323.302 56 324.202 58.3C324.402 58.9 324.602 59.5 324.502 60.1C324.402 61.3 324.802 61.8 325.002 63C324.902 63.3 325.302 67.1 325.402 67Z" fill="#2F253F"/>
<path d="M361.701 97.7999C357.501 100.7 352.301 119.2 349.501 128.2C346.801 137.2 343.701 152.3 343.701 152.3C343.701 152.3 334.301 146.1 327.101 142C320.501 138.2 315.501 136.3 315.501 136.3C315.501 136.3 312.501 145.3 311.301 147.3C310.001 149.3 308.301 150.7 308.301 150.7C308.301 150.7 325.601 168.9 331.901 173.1C338.201 177.4 347.301 184.5 354.001 180.3C360.701 176 365.201 162.8 367.701 151.1C370.201 139.4 372.401 120.7 371.701 111.9C371.001 101.1 365.901 94.8999 361.701 97.7999Z" fill="#6169BC"/>
<path d="M131.5 223.8C131.5 223.8 122.4 226.5 121.2 226.3C119.9 226.1 135.1 221.4 135.1 221.4L131.5 223.8Z" fill="#E28F8F"/>
<path d="M316.9 81.1001C316.9 81.1001 316.8 81.6001 316.5 81.8001C315.3 82.6001 312.2 84.7001 310.7 85.3001C308.7 86.0001 306.9 86.2001 306.9 86.2001C306.9 86.2001 307.9 85.1001 310 83.9001C312 82.7001 316.9 81.1001 316.9 81.1001Z" fill="#B55959"/>
<path d="M309.602 70.9001C309.802 71.4001 310.502 71.6001 311.002 71.7001C312.202 71.9001 313.502 72.0001 314.502 71.3001C315.202 70.8001 315.702 70.0001 316.102 69.2001C316.402 68.7001 316.702 68.2001 317.002 67.6001C315.702 68.2001 315.202 69.1001 314.102 69.9001C313.502 70.4001 312.802 70.6001 312.102 70.7001C311.802 70.9001 309.702 71.1001 309.602 70.9001Z" fill="#5B415B"/>
<path d="M327.401 69.7999C327.501 69.9999 327.701 70.1999 327.801 70.2999C327.901 70.3999 328.001 70.4999 328.101 70.4999C328.201 70.4999 328.301 70.3999 328.301 70.3999C329.301 69.3999 329.901 67.8999 329.801 66.3999C329.801 65.5999 329.601 64.8999 329.201 64.2999C328.801 63.6999 328.201 63.3 327.601 63.2C327.201 63.2 326.701 63.3 326.501 63.7C326.201 64.3 326.501 65.0999 327.001 65.3999C327.301 65.5999 328.401 66.0999 328.201 66.7999C328.001 67.3999 327.701 66.5 327.401 67.2C326.901 68.2 327.001 68.9999 327.401 69.7999Z" fill="#E29191"/>
<path d="M315.2 66C315.2 66 311.8 66.1 310.4 67.3C308.9 68.5 308.5 69.1 308.5 69.1L305 65.8C305 65.8 307.1 62.4 309.5 62C311.9 61.6 315.3 61.5 315.5 61.6C315.7 61.7 316.6 64 316.3 64.9C316 65.7 315.2 66 315.2 66Z" fill="#E09999"/>
<path d="M316.3 62.7001C316.3 62.7001 313.1 62.9001 310.9 63.9001C308.7 64.9001 307.1 66.6001 306.2 66.4001C304.3 65.9001 305.3 64.3001 307 63.0001C308.8 61.6001 311 61.1001 312.7 61.0001C314.5 60.9001 316.5 62.0001 316.5 62.0001L316.3 62.7001Z" fill="#2F253F"/>
<path d="M271.1 198.4L261.5 189.9L258.4 193.5L267.9 200.2L271.1 198.4Z" fill="#E29191"/>
<path d="M232.399 245.3H164.499C157.399 245.3 151.699 239.6 151.699 232.5V72.6001C151.699 65.5001 157.399 59.8 164.499 59.8H232.399C239.499 59.8 245.199 65.5001 245.199 72.6001V232.5C245.099 239.6 239.399 245.3 232.399 245.3Z" fill="white"/>
<path d="M232.399 245.3H164.499C157.399 245.3 151.699 239.6 151.699 232.5V72.6001C151.699 65.5001 157.399 59.8 164.499 59.8H232.399C239.499 59.8 245.199 65.5001 245.199 72.6001V232.5C245.099 239.6 239.399 245.3 232.399 245.3Z" stroke="#2F2D44" stroke-width="4.447" stroke-miterlimit="10"/>
<path d="M228.998 62L227.798 62.1C227.798 62.1 226.898 62 226.498 63.1C226.298 63.7 226.098 64.2 225.798 65.8C225.598 66.7 225.298 67.7 224.098 68.7C222.698 69.8 220.298 69.7 219.598 69.7H180.498C180.498 69.7 176.298 69.6 175.398 67C174.498 64.4 174.498 63.3 173.798 62.7C173.298 62.2 172.498 62.1 170.298 62.1C168.098 62.1 167.398 62 167.398 62L172.798 60L229.498 60.5L228.998 62Z" fill="#2F2D44"/>
<path d="M204.099 65.4002H188.899C188.299 65.4002 187.799 64.9002 187.799 64.3002C187.799 63.7002 188.299 63.2002 188.899 63.2002H204.099C204.699 63.2002 205.199 63.7002 205.199 64.3002C205.199 64.9002 204.699 65.4002 204.099 65.4002Z" fill="#7676A8"/>
<path d="M212.799 64.1001C212.799 64.9001 212.099 65.6001 211.299 65.6001C210.499 65.6001 209.799 64.9001 209.799 64.1001C209.799 63.3001 210.499 62.6001 211.299 62.6001C212.099 62.6001 212.799 63.3001 212.799 64.1001Z" fill="#7676A8"/>
<path d="M237.799 130.2C237.799 137.2 232.099 143 224.999 143C217.899 143 212.199 137.3 212.199 130.2C212.199 123.2 217.899 117.4 224.999 117.4C232.099 117.4 237.799 123.2 237.799 130.2Z" fill="#666EAF"/>
<path d="M230.3 104.4H193.1C190.3 104.4 188 102.1 188 99.3001V82.2001C188 79.4001 190.3 77.1001 193.1 77.1001H230.3C233.1 77.1001 235.4 79.4001 235.4 82.2001V99.3001C235.4 102.1 233.1 104.4 230.3 104.4Z" fill="#DCDCFF"/>
<path d="M191.099 100L183.799 102L188.799 94.5L192.199 96.9L191.099 100Z" fill="#DCDCFF"/>
<path d="M231.1 173.2H192.4C190 173.2 188.1 171.3 188.1 168.9V157.9C188.1 155.5 190 153.6 192.4 153.6H231.1C233.5 153.6 235.4 155.5 235.4 157.9V168.9C235.4 171.3 233.5 173.2 231.1 173.2Z" fill="#DCDCFF"/>
<path d="M191.099 172.6L183.799 174.6L188.799 167.1L192.199 169.5L191.099 172.6Z" fill="#DCDCFF"/>
<path d="M227 86.2001H195.7C194.8 86.2001 194 85.4001 194 84.5001C194 83.6001 194.8 82.8 195.7 82.8H227C227.9 82.8 228.7 83.6001 228.7 84.5001C228.7 85.4001 227.9 86.2001 227 86.2001Z" fill="#B1B1E0"/>
<path d="M227 92.8001H195.7C194.8 92.8001 194 92.0002 194 91.1002C194 90.2002 194.8 89.4001 195.7 89.4001H227C227.9 89.4001 228.7 90.2002 228.7 91.1002C228.7 92.0002 227.9 92.8001 227 92.8001Z" fill="#B1B1E0"/>
<path d="M214.7 98.8001H195.8C194.9 98.8001 194.1 98.0002 194.1 97.1002C194.1 96.2002 194.9 95.4001 195.8 95.4001H214.7C215.6 95.4001 216.4 96.2002 216.4 97.1002C216.4 98.0002 215.7 98.8001 214.7 98.8001Z" fill="#B1B1E0"/>
<path d="M165.399 142.9H202.599C205.399 142.9 207.699 140.6 207.699 137.8V120.7C207.699 117.9 205.399 115.6 202.599 115.6H165.399C162.599 115.6 160.299 117.9 160.299 120.7V137.8C160.299 140.6 162.599 142.9 165.399 142.9Z" fill="#DCDCFF"/>
<path d="M204.7 138.5L211.9 140.4L206.9 133L203.5 135.3L204.7 138.5Z" fill="#DCDCFF"/>
<path d="M168.8 124.7H200.1C201 124.7 201.8 123.9 201.8 123C201.8 122.1 201 121.3 200.1 121.3H168.8C167.9 121.3 167.1 122.1 167.1 123C167.1 124 167.8 124.7 168.8 124.7Z" fill="#B1B1E0"/>
<path d="M168.8 131.3H200.1C201 131.3 201.8 130.5 201.8 129.6C201.8 128.7 201 127.9 200.1 127.9H168.8C167.9 127.9 167.1 128.7 167.1 129.6C167.1 130.5 167.8 131.3 168.8 131.3Z" fill="#B1B1E0"/>
<path d="M180.999 137.2H199.899C200.799 137.2 201.599 136.4 201.599 135.5C201.599 134.6 200.799 133.8 199.899 133.8H180.999C180.099 133.8 179.299 134.6 179.299 135.5C179.299 136.5 180.099 137.2 180.999 137.2Z" fill="#B1B1E0"/>
<path d="M154.199 190.6V231.8C154.199 238.5 159.599 243.9 166.299 243.9H230.499C237.199 243.9 242.599 238.5 242.599 231.8V190.6H154.199Z" fill="#DFDFF4"/>
<path d="M184.499 91.3001C185.199 98.4001 179.999 104.7 172.899 105.4C165.799 106.1 159.499 100.9 158.799 93.8001C158.099 86.7001 163.299 80.4001 170.399 79.7001C177.499 79.0001 183.799 84.2001 184.499 91.3001Z" fill="#F21645"/>
<path d="M179.399 90.7C179.399 90.7 180.899 83.2 173.299 81.5C167.099 80.1 163.199 84.6 162.499 89.2C162.199 91.6 162.599 96.1 165.199 101.6C167.599 106.6 169.199 109.4 169.599 110.5C169.999 111.6 175.999 108.2 175.999 108.2L180.099 106.4C180.099 106.4 180.399 101 179.999 97.9C179.599 94.7 179.399 90.7 179.399 90.7Z" fill="#511C39"/>
<path d="M177.6 99.4001C177.6 99.4001 177.3 101.1 177.5 102.1C177.6 102.6 178.6 103.2 179.1 103.2C179.7 103.2 180.6 103.2 180.6 103.2C180.6 103.2 179.3 104.7 177.3 105.6C175.3 106.5 172.8 106.2 172.2 106.3C171.6 106.3 171.1 105.9 171.1 105.9C171.1 105.9 172.8 104.7 172.8 104.1C172.8 103.4 172.6 100.4 172.2 99.1001C171.8 97.8001 174.4 97.6001 174.4 97.6001L177.8 98.6001L177.6 99.4001Z" fill="#E29191"/>
<path d="M180.4 96.0001C179.1 94.7001 177.1 95.8001 176.9 97.6001C176.9 97.7001 176.9 97.7001 176.9 97.8001C176.9 99.2001 177.5 100.9 179 101C180 101 181.5 100.2 181.3 98.2001C181.2 97.5001 180.8 96.3001 180.4 96.0001ZM179.7 98.4001C179.8 99.2001 179.3 99.7001 179 99.7001C178.4 99.6001 178.1 98.8001 178.1 98.3001V98.2001C178.1 97.5001 178.9 97.1001 179.4 97.7001C179.5 97.7001 179.6 98.1001 179.7 98.4001Z" fill="#FCC12B"/>
<path d="M179.2 89.1C179.2 89.1 179.4 90.2 179.5 91C179.6 91.8 179.6 92.2 179.6 92.2C179.6 92.2 179.3 92.9 179.3 93.4C179.3 93.9 179.8 94.7 179.7 95.8C179.6 96.9 178.5 98.7 177.9 99.7C177.3 100.7 176.6 101.3 175.2 101C173.7 100.7 171.7 98.9 171.1 98.1C170.5 97.3 169.9 95.8 169.7 94.7C169.5 93.6 169.2 91.6 169.5 89.9C169.7 88.4 171.3 86.6 175.3 86.3C178.4 86 179.2 89.1 179.2 89.1Z" fill="#F4B8B8"/>
<path d="M174.799 90.7002C174.799 90.9002 174.699 91.1002 174.199 91.1002C173.699 91.1002 173.299 91.1001 172.499 91.3001C171.599 91.5001 171.199 91.8001 171.199 91.8001C171.199 91.8001 171.399 90.8002 172.799 90.5002C174.099 90.2002 174.799 90.7002 174.799 90.7002Z" fill="#5E2246"/>
<path d="M171.8 98.4002C171 96.8002 168.7 97.2002 168 98.9002C168 99.0002 167.9 99.0002 167.9 99.1002C167.5 100.4 167.8 102.2 169.3 102.7C170.2 103 171.7 102.7 172.1 100.7C172.2 100.1 172 98.9002 171.8 98.4002ZM170.4 100.6C170.3 101.5 169.6 101.7 169.2 101.5C168.6 101.2 168.5 100.4 168.7 99.8002V99.7002C168.9 98.9002 169.9 98.8002 170.2 99.6002C170.3 99.7002 170.4 100.3 170.4 100.6Z" fill="#FCC12B"/>
<path d="M174.799 92.9002C174.799 93.1002 174.799 93.3002 174.599 93.5002C174.399 93.9002 173.999 94.1002 173.699 94.2002C173.399 94.3002 173.199 94.3002 172.899 94.2002C172.699 94.2002 172.399 94.1002 172.299 93.9002C171.899 93.4002 172.299 93.1002 172.299 93.0002C172.299 92.9002 172.199 93.0002 172.199 93.0002C172.099 92.9002 172.099 92.7002 172.199 92.6002C172.299 92.5002 172.399 92.4002 172.499 92.3002C172.699 92.2002 172.999 92.2002 173.199 92.2002C173.599 92.3002 174.699 92.5002 174.799 92.9002Z" fill="white"/>
<path d="M174.9 93.0001C174.9 93.0001 174 92.6001 173.3 92.7001C172.5 92.8001 172.3 93.1001 172.3 93.1001C172.3 93.1001 171.9 93.0001 171.6 93.0001C171.3 93.0001 171 93.0001 171 93.0001C171 93.0001 171.8 92.0001 172.7 91.9001C173.6 91.8001 174.3 92.2001 174.5 92.4001C174.7 92.7001 174.9 93.0001 174.9 93.0001Z" fill="#25233A"/>
<path d="M168.1 93.8001C168.1 94.1001 168.1 94.5001 168.3 94.9001C168.4 95.2001 168.9 96.2001 169.5 96.4001C169.7 96.5001 169.9 96.5001 170.1 96.4001C170.3 96.2001 170.3 95.9001 170.3 95.6001C170.2 95.0001 170 94.0001 169.6 93.6001C169.2 93.1001 168.2 93.0001 168.1 93.8001Z" fill="#F9C0C0"/>
<path d="M170.499 90.8001C170.399 92.4001 170.6 94.1001 170.7 95.7001C170.8 97.1001 170.699 98.6001 170.399 100C170.199 100.9 169.9 101.9 169.1 102.2C169.8 100.8 169.799 99.0001 169.499 97.4001C169.199 95.8001 168.8 94.1001 168.6 92.5001C168.4 90.8001 168.7 88.3001 169.7 87.2001C171.3 85.3001 174.2 85.4001 175.2 85.8001C174.5 85.9001 172.899 86.3001 171.899 87.3001C170.999 88.1001 170.599 89.5001 170.499 90.8001Z" fill="#7A3963"/>
<path d="M178.099 97.1002C178.099 97.1002 177.599 96.3001 176.899 96.3001C176.299 96.3001 175.299 96.2001 174.899 96.4001C174.499 96.5001 173.299 97.0002 173.299 97.0002C173.299 97.0002 174.799 97.3001 176.199 97.4001C177.199 97.3001 178.099 97.1002 178.099 97.1002Z" fill="#CE0B3E"/>
<path d="M173.699 97C173.399 96.7 174.599 98.5 175.699 98.6C176.899 98.7 177.499 98.1 177.899 97.2C178.099 96.8 173.999 97.3 173.699 97Z" fill="#F21645"/>
<path d="M177.699 93.6C178.099 93.8 178.599 93.8 178.999 93.7C179.199 93.6 179.399 93.4 179.399 93.2C179.399 92.9 179.299 92.7 179.299 92.5C178.999 92.3 178.699 92.2 178.299 92.3C178.099 92.3 177.899 92.4 177.699 92.5C177.599 92.6 177.299 92.6 177.199 92.7C176.999 93 177.499 93.5 177.699 93.6Z" fill="white"/>
<path d="M179.399 92.7002C179.399 92.7002 179.099 92.5002 178.599 92.5002C177.899 92.5002 177.299 92.9002 177.299 92.9002C177.299 92.9002 177.399 92.5002 177.399 92.4002C177.599 92.1002 178.099 91.7002 179.199 91.7002C180.299 91.8002 180.499 92.4002 180.499 92.4002C180.499 92.4002 179.999 92.3002 179.799 92.4002C179.599 92.5002 179.399 92.7002 179.399 92.7002Z" fill="#25233A"/>
<path d="M179.6 90.9001C179.6 90.9001 178.9 90.3 178.2 90.3C177.5 90.3 176.8 90.6001 176.9 90.9001C176.9 91.2001 177.4 90.9001 178.3 91.0001C179.2 91.1001 179.6 91.4001 179.6 91.4001V90.9001Z" fill="#5E2246"/>
<path d="M173.499 93.3C173.499 93.6 173.199 93.9 172.899 93.9C172.599 93.9 172.299 93.6 172.299 93.3C172.299 93 172.599 92.7 172.899 92.7C173.299 92.6 173.499 92.9 173.499 93.3Z" fill="#25233A"/>
<path d="M178.499 93.0002C178.499 93.3002 178.199 93.6002 177.899 93.6002C177.599 93.6002 177.299 93.3002 177.299 93.0002C177.299 92.7002 177.599 92.4001 177.899 92.4001C178.199 92.4001 178.499 92.7002 178.499 93.0002Z" fill="#25233A"/>
<path d="M184.499 161.4C185.199 168.5 179.999 174.8 172.899 175.5C165.799 176.2 159.499 171 158.799 163.9C158.099 156.8 163.299 150.5 170.399 149.8C177.499 149.1 183.799 154.3 184.499 161.4Z" fill="#F21645"/>
<path d="M179.399 160.8C179.399 160.8 180.899 153.3 173.299 151.6C167.099 150.2 163.199 154.7 162.499 159.3C162.199 161.7 162.599 166.2 165.199 171.7C167.599 176.7 169.199 179.5 169.599 180.6C169.999 181.7 175.999 178.3 175.999 178.3L180.099 176.5C180.099 176.5 180.399 171.1 179.999 168C179.599 164.9 179.399 160.8 179.399 160.8Z" fill="#511C39"/>
<path d="M177.6 169.5C177.6 169.5 177.3 171.2 177.5 172.2C177.6 172.7 178.6 173.3 179.1 173.3C179.7 173.3 180.6 173.3 180.6 173.3C180.6 173.3 179.3 174.8 177.3 175.7C175.3 176.6 172.8 176.3 172.2 176.4C171.6 176.4 171.1 176 171.1 176C171.1 176 172.8 174.8 172.8 174.2C172.8 173.5 172.6 170.5 172.2 169.2C171.8 167.9 174.4 167.7 174.4 167.7L177.8 168.7L177.6 169.5Z" fill="#E29191"/>
<path d="M180.4 166C179.1 164.7 177.1 165.8 176.9 167.6C176.9 167.7 176.9 167.7 176.9 167.8C176.9 169.2 177.5 170.9 179 171C180 171 181.5 170.2 181.3 168.2C181.2 167.6 180.8 166.4 180.4 166ZM179.7 168.5C179.8 169.3 179.3 169.8 179 169.8C178.4 169.7 178.1 168.9 178.1 168.4V168.3C178.1 167.6 178.9 167.2 179.4 167.8C179.5 167.8 179.6 168.2 179.7 168.5Z" fill="#FCC12B"/>
<path d="M179.2 159.2C179.2 159.2 179.4 160.3 179.5 161.1C179.6 161.9 179.6 162.3 179.6 162.3C179.6 162.3 179.3 163 179.3 163.5C179.3 164 179.8 164.8 179.7 165.9C179.6 167 178.5 168.8 177.9 169.8C177.3 170.8 176.6 171.4 175.2 171.1C173.7 170.8 171.7 169 171.1 168.2C170.5 167.4 169.9 165.9 169.7 164.8C169.5 163.7 169.2 161.7 169.5 160C169.7 158.5 171.3 156.7 175.3 156.4C178.4 156.1 179.2 159.2 179.2 159.2Z" fill="#F4B8B8"/>
<path d="M174.799 160.8C174.799 161 174.699 161.2 174.199 161.2C173.699 161.2 173.299 161.2 172.499 161.4C171.599 161.6 171.199 161.9 171.199 161.9C171.199 161.9 171.399 160.9 172.799 160.6C174.099 160.3 174.799 160.8 174.799 160.8Z" fill="#5E2246"/>
<path d="M171.8 168.5C171 166.9 168.7 167.3 168 169C168 169.1 167.9 169.1 167.9 169.2C167.5 170.5 167.8 172.3 169.3 172.8C170.2 173.1 171.7 172.8 172.1 170.8C172.2 170.2 172 169 171.8 168.5ZM170.4 170.7C170.3 171.6 169.6 171.8 169.2 171.6C168.6 171.3 168.5 170.5 168.7 169.9V169.8C168.9 169 169.9 168.9 170.2 169.7C170.3 169.8 170.4 170.4 170.4 170.7Z" fill="#FCC12B"/>
<path d="M174.799 163C174.799 163.2 174.799 163.4 174.599 163.6C174.399 164 173.999 164.2 173.699 164.3C173.399 164.4 173.199 164.4 172.899 164.3C172.699 164.3 172.399 164.2 172.299 164C171.899 163.5 172.299 163.2 172.299 163.1C172.299 163 172.199 163.1 172.199 163.1C172.099 163 172.099 162.8 172.199 162.7C172.299 162.6 172.399 162.5 172.499 162.4C172.699 162.3 172.999 162.3 173.199 162.3C173.599 162.4 174.699 162.6 174.799 163Z" fill="white"/>
<path d="M174.9 163.1C174.9 163.1 174 162.7 173.3 162.8C172.5 162.9 172.3 163.2 172.3 163.2C172.3 163.2 171.9 163.1 171.6 163.1C171.3 163.1 171 163.1 171 163.1C171 163.1 171.8 162.1 172.7 162C173.6 161.9 174.3 162.3 174.5 162.5C174.7 162.8 174.9 163.1 174.9 163.1Z" fill="#25233A"/>
<path d="M168.1 163.9C168.1 164.2 168.1 164.6 168.3 165C168.4 165.3 168.9 166.3 169.5 166.5C169.7 166.6 169.9 166.6 170.1 166.5C170.3 166.3 170.3 166 170.3 165.7C170.2 165.1 170 164.1 169.6 163.7C169.2 163.2 168.2 163.1 168.1 163.9Z" fill="#F9C0C0"/>
<path d="M170.499 160.9C170.399 162.5 170.6 164.2 170.7 165.8C170.8 167.2 170.699 168.7 170.399 170.1C170.199 171 169.9 172 169.1 172.3C169.8 170.9 169.799 169.1 169.499 167.5C169.199 165.9 168.8 164.2 168.6 162.6C168.4 161 168.7 158.4 169.7 157.3C171.3 155.4 174.2 155.5 175.2 155.9C174.5 156 172.899 156.4 171.899 157.4C170.999 158.2 170.599 159.5 170.499 160.9Z" fill="#7A3963"/>
<path d="M178.099 167.2C178.099 167.2 177.599 166.4 176.899 166.4C176.199 166.4 175.299 166.3 174.899 166.5C174.499 166.6 173.299 167.1 173.299 167.1C173.299 167.1 174.799 167.4 176.199 167.5C177.199 167.4 178.099 167.2 178.099 167.2Z" fill="#CE0B3E"/>
<path d="M173.699 167.1C173.399 166.8 174.599 168.6 175.699 168.7C176.899 168.8 177.499 168.2 177.899 167.3C178.099 166.8 173.999 167.4 173.699 167.1Z" fill="#F21645"/>
<path d="M177.699 163.7C178.099 163.9 178.599 163.9 178.999 163.8C179.199 163.7 179.399 163.5 179.399 163.3C179.399 163 179.299 162.8 179.299 162.6C178.999 162.4 178.699 162.3 178.299 162.4C178.099 162.4 177.899 162.5 177.699 162.6C177.599 162.7 177.299 162.7 177.199 162.8C176.999 163.1 177.499 163.6 177.699 163.7Z" fill="white"/>
<path d="M179.399 162.8C179.399 162.8 179.099 162.6 178.599 162.6C177.899 162.6 177.299 163 177.299 163C177.299 163 177.399 162.6 177.399 162.5C177.599 162.2 178.099 161.8 179.199 161.8C180.299 161.9 180.499 162.5 180.499 162.5C180.499 162.5 179.999 162.4 179.799 162.5C179.599 162.6 179.399 162.8 179.399 162.8Z" fill="#25233A"/>
<path d="M179.6 161C179.6 161 178.9 160.4 178.2 160.4C177.5 160.4 176.8 160.7 176.9 161C176.9 161.3 177.4 161 178.3 161.1C179.2 161.2 179.6 161.5 179.6 161.5V161Z" fill="#5E2246"/>
<path d="M173.499 163.3C173.499 163.6 173.199 163.9 172.899 163.9C172.599 163.9 172.299 163.6 172.299 163.3C172.299 163 172.599 162.7 172.899 162.7C173.299 162.7 173.499 163 173.499 163.3Z" fill="#25233A"/>
<path d="M178.499 163.1C178.499 163.4 178.199 163.7 177.899 163.7C177.599 163.7 177.299 163.4 177.299 163.1C177.299 162.8 177.599 162.5 177.899 162.5C178.199 162.5 178.499 162.8 178.499 163.1Z" fill="#25233A"/>
<path d="M197.9 163.8C197.9 165.2 196.8 166.3 195.4 166.3C194 166.3 192.9 165.2 192.9 163.8C192.9 162.4 194 161.3 195.4 161.3C196.8 161.3 197.9 162.4 197.9 163.8Z" fill="#B1B1E0"/>
<path d="M206 163.8C206 165.2 204.9 166.3 203.5 166.3C202.1 166.3 201 165.2 201 163.8C201 162.4 202.1 161.3 203.5 161.3C204.9 161.3 206 162.4 206 163.8Z" fill="#BABAE8"/>
<path d="M213.701 163.8C213.701 165.2 212.601 166.3 211.201 166.3C209.801 166.3 208.701 165.2 208.701 163.8C208.701 162.4 209.801 161.3 211.201 161.3C212.601 161.3 213.701 162.4 213.701 163.8Z" fill="#C8C8ED"/>
<path d="M233.9 206.3H163.5C159.8 206.3 156.9 203.3 156.9 199.7C156.9 196 159.9 193.1 163.5 193.1H233.9C237.6 193.1 240.5 196.1 240.5 199.7C240.5 203.3 237.6 206.3 233.9 206.3Z" fill="white"/>
<path d="M161.101 202.8L160.701 202.5C159.701 201.7 159.601 200.3 160.401 199.3L163.201 195.9C164.001 194.9 165.401 194.8 166.401 195.6L166.801 195.9C167.801 196.7 167.901 198.1 167.101 199.1L164.301 202.5C163.501 203.5 162.101 203.7 161.101 202.8Z" fill="#DFDFF4"/>
<path d="M234.9 203.5H232.7C231.8 203.5 231.1 202.8 231.1 201.9V197.6C231.1 196.7 231.8 196 232.7 196H234.9C235.8 196 236.5 196.7 236.5 197.6V201.9C236.5 202.8 235.8 203.5 234.9 203.5Z" fill="#DFDFF4"/>
<path d="M223.901 203.1C221.901 203.1 220.201 201.4 220.201 199.4C220.201 197.4 221.901 195.7 223.901 195.7C225.901 195.7 227.601 197.4 227.601 199.4C227.601 201.4 225.901 203.1 223.901 203.1Z" fill="#DFDFF4"/>
<path d="M162.4 218.7H160C158.9 218.7 158 217.8 158 216.7V211.8C158 210.7 158.9 209.8 160 209.8H162.4C163.5 209.8 164.4 210.7 164.4 211.8V216.7C164.4 217.8 163.5 218.7 162.4 218.7Z" fill="white"/>
<path d="M179.101 218.7H176.701C175.601 218.7 174.701 217.8 174.701 216.7V211.8C174.701 210.7 175.601 209.8 176.701 209.8H179.101C180.201 209.8 181.101 210.7 181.101 211.8V216.7C181.101 217.8 180.201 218.7 179.101 218.7Z" fill="white"/>
<path d="M170.701 218.7H168.301C167.201 218.7 166.301 217.8 166.301 216.7V211.8C166.301 210.7 167.201 209.8 168.301 209.8H170.701C171.801 209.8 172.701 210.7 172.701 211.8V216.7C172.801 217.8 171.901 218.7 170.701 218.7Z" fill="white"/>
<path d="M187.101 218.7H184.701C183.601 218.7 182.701 217.8 182.701 216.7V211.8C182.701 210.7 183.601 209.8 184.701 209.8H187.101C188.201 209.8 189.101 210.7 189.101 211.8V216.7C189.101 217.8 188.201 218.7 187.101 218.7Z" fill="white"/>
<path d="M203.8 218.7H201.4C200.3 218.7 199.4 217.8 199.4 216.7V211.8C199.4 210.7 200.3 209.8 201.4 209.8H203.8C204.9 209.8 205.8 210.7 205.8 211.8V216.7C205.9 217.8 204.9 218.7 203.8 218.7Z" fill="white"/>
<path d="M195.5 218.7H193.1C192 218.7 191.1 217.8 191.1 216.7V211.8C191.1 210.7 192 209.8 193.1 209.8H195.5C196.6 209.8 197.5 210.7 197.5 211.8V216.7C197.5 217.8 196.6 218.7 195.5 218.7Z" fill="white"/>
<path d="M212.3 218.7H209.9C208.8 218.7 207.9 217.8 207.9 216.7V211.8C207.9 210.7 208.8 209.8 209.9 209.8H212.3C213.4 209.8 214.3 210.7 214.3 211.8V216.7C214.3 217.8 213.4 218.7 212.3 218.7Z" fill="white"/>
<path d="M220.3 218.7H217.9C216.8 218.7 215.9 217.8 215.9 216.7V211.8C215.9 210.7 216.8 209.8 217.9 209.8H220.3C221.4 209.8 222.3 210.7 222.3 211.8V216.7C222.3 217.8 221.4 218.7 220.3 218.7Z" fill="white"/>
<path d="M237 218.7H234.6C233.5 218.7 232.6 217.8 232.6 216.7V211.8C232.6 210.7 233.5 209.8 234.6 209.8H237C238.1 209.8 239 210.7 239 211.8V216.7C239 217.8 238.1 218.7 237 218.7Z" fill="white"/>
<path d="M228.601 218.7H226.201C225.101 218.7 224.201 217.8 224.201 216.7V211.8C224.201 210.7 225.101 209.8 226.201 209.8H228.601C229.701 209.8 230.601 210.7 230.601 211.8V216.7C230.701 217.8 229.801 218.7 228.601 218.7Z" fill="white"/>
<path d="M162.4 229.4H160C158.9 229.4 158 228.5 158 227.4V222.5C158 221.4 158.9 220.5 160 220.5H162.4C163.5 220.5 164.4 221.4 164.4 222.5V227.4C164.4 228.5 163.5 229.4 162.4 229.4Z" fill="#BABAE8"/>
<path d="M179.101 229.4H176.701C175.601 229.4 174.701 228.5 174.701 227.4V222.5C174.701 221.4 175.601 220.5 176.701 220.5H179.101C180.201 220.5 181.101 221.4 181.101 222.5V227.4C181.101 228.5 180.201 229.4 179.101 229.4Z" fill="white"/>
<path d="M170.701 229.4H168.301C167.201 229.4 166.301 228.5 166.301 227.4V222.5C166.301 221.4 167.201 220.5 168.301 220.5H170.701C171.801 220.5 172.701 221.4 172.701 222.5V227.4C172.801 228.5 171.901 229.4 170.701 229.4Z" fill="white"/>
<path d="M187.101 229.4H184.701C183.601 229.4 182.701 228.5 182.701 227.4V222.5C182.701 221.4 183.601 220.5 184.701 220.5H187.101C188.201 220.5 189.101 221.4 189.101 222.5V227.4C189.101 228.5 188.201 229.4 187.101 229.4Z" fill="white"/>
<path d="M203.8 229.4H201.4C200.3 229.4 199.4 228.5 199.4 227.4V222.5C199.4 221.4 200.3 220.5 201.4 220.5H203.8C204.9 220.5 205.8 221.4 205.8 222.5V227.4C205.9 228.5 204.9 229.4 203.8 229.4Z" fill="white"/>
<path d="M195.5 229.4H193.1C192 229.4 191.1 228.5 191.1 227.4V222.5C191.1 221.4 192 220.5 193.1 220.5H195.5C196.6 220.5 197.5 221.4 197.5 222.5V227.4C197.5 228.5 196.6 229.4 195.5 229.4Z" fill="white"/>
<path d="M212.3 229.4H209.9C208.8 229.4 207.9 228.5 207.9 227.4V222.5C207.9 221.4 208.8 220.5 209.9 220.5H212.3C213.4 220.5 214.3 221.4 214.3 222.5V227.4C214.3 228.5 213.4 229.4 212.3 229.4Z" fill="white"/>
<path d="M220.3 229.4H217.9C216.8 229.4 215.9 228.5 215.9 227.4V222.5C215.9 221.4 216.8 220.5 217.9 220.5H220.3C221.4 220.5 222.3 221.4 222.3 222.5V227.4C222.3 228.5 221.4 229.4 220.3 229.4Z" fill="white"/>
<path d="M237 229.4H234.6C233.5 229.4 232.6 228.5 232.6 227.4V222.5C232.6 221.4 233.5 220.5 234.6 220.5H237C238.1 220.5 239 221.4 239 222.5V227.4C239 228.5 238.1 229.4 237 229.4Z" fill="#BABAE8"/>
<path d="M228.601 229.4H226.201C225.101 229.4 224.201 228.5 224.201 227.4V222.5C224.201 221.4 225.101 220.5 226.201 220.5H228.601C229.701 220.5 230.601 221.4 230.601 222.5V227.4C230.701 228.5 229.801 229.4 228.601 229.4Z" fill="white"/>
<path d="M162.4 240H160C158.9 240 158 239.1 158 238V233.1C158 232 158.9 231.1 160 231.1H162.4C163.5 231.1 164.4 232 164.4 233.1V238C164.4 239.1 163.5 240 162.4 240Z" fill="#BABAE8"/>
<path d="M179.101 240H176.701C175.601 240 174.701 239.1 174.701 238V233.1C174.701 232 175.601 231.1 176.701 231.1H179.101C180.201 231.1 181.101 232 181.101 233.1V238C181.101 239.1 180.201 240 179.101 240Z" fill="white"/>
<path d="M170.701 240H168.301C167.201 240 166.301 239.1 166.301 238V233.1C166.301 232 167.201 231.1 168.301 231.1H170.701C171.801 231.1 172.701 232 172.701 233.1V238C172.801 239.1 171.901 240 170.701 240Z" fill="#BABAE8"/>
<path d="M187.101 240H184.701C183.601 240 182.701 239.1 182.701 238V233.1C182.701 232 183.601 231.1 184.701 231.1H187.101C188.201 231.1 189.101 232 189.101 233.1V238C189.101 239.1 188.201 240 187.101 240Z" fill="white"/>
<path d="M203.8 240H201.4C200.3 240 199.4 239.1 199.4 238V233.1C199.4 232 200.3 231.1 201.4 231.1H203.8C204.9 231.1 205.8 232 205.8 233.1V238C205.9 239.1 204.9 240 203.8 240Z" fill="white"/>
<path d="M195.5 240H193.1C192 240 191.1 239.1 191.1 238V233.1C191.1 232 192 231.1 193.1 231.1H195.5C196.6 231.1 197.5 232 197.5 233.1V238C197.5 239.1 196.6 240 195.5 240Z" fill="white"/>
<path d="M212.3 240H184.6C183.5 240 182.6 239.1 182.6 238V233.2C182.6 232.1 183.5 231.2 184.6 231.2H212.3C213.4 231.2 214.3 232.1 214.3 233.2V238C214.3 239.1 213.4 240 212.3 240Z" fill="white"/>
<path d="M220.3 240H217.9C216.8 240 215.9 239.1 215.9 238V233.1C215.9 232 216.8 231.1 217.9 231.1H220.3C221.4 231.1 222.3 232 222.3 233.1V238C222.3 239.1 221.4 240 220.3 240Z" fill="white"/>
<path d="M236.2 240H229.3C227.7 240 226.5 238.7 226.5 237.2V234C226.5 232.4 227.8 231.2 229.3 231.2H236.2C237.8 231.2 239 232.5 239 234V237.2C239 238.7 237.8 240 236.2 240Z" fill="#BABAE8"/>
<path d="M228.601 240H226.201C225.101 240 224.201 239.1 224.201 238V233.1C224.201 232 225.101 231.1 226.201 231.1H228.601C229.701 231.1 230.601 232 230.601 233.1V238C230.701 239.1 229.801 240 228.601 240Z" fill="#BABAE8"/>
<path d="M227.9 142C227.9 142 227.5 139.3 227.9 137.3C228.3 135.3 229.1 133.2 229.1 133.2C229.1 133.2 226.4 129.9 225 129.7C223.6 129.4 222.4 130.7 221.4 132.3C220.5 133.9 219.4 137.5 219.4 137.5C219.4 137.5 217.8 139.8 219.3 141.3C220.7 142.9 224.7 143.1 225.3 143C226.3 142.8 227.9 142 227.9 142Z" fill="#E29191"/>
<path d="M226.4 138.5C226.4 138.5 221.9 142 220.6 141.8C219.3 141.6 218.6 140.1 218.6 139.7C218.6 139.3 219.4 137.1 219.4 137.1L224.7 138L226.4 138.5Z" fill="#D17474"/>
<path d="M227.801 136.7C227.801 136.7 227.201 138.6 225.901 139.2C224.501 139.9 221.601 141 221.601 141C221.601 141 220.801 141.1 219.801 140.3C218.801 139.5 219.101 136.1 218.601 134.5C218.201 133.1 219.201 131.7 219.501 131C219.701 130.2 219.201 128.5 219.601 127.5C219.901 126.5 221.001 123.4 221.001 123.4C221.001 123.4 224.801 120.8 228.101 123.1C231.401 125.4 232.401 126.1 232.001 128.5C231.601 130.9 229.101 134.9 229.101 134.9L227.801 136.7Z" fill="#F4B8B8"/>
<path d="M220.8 131.4C220.6 132 219.8 133.2 219.8 133.4C219.9 133.7 221.2 133.9 221.3 134C221.3 134.1 220.7 135.5 220.7 135.8C220.7 136 221.3 138.1 221.2 138.2C221.1 138.3 220.3 138.3 220.2 138.4C219.6 138.7 219.3 139.5 219.5 140C218.7 139.5 218.6 136 218.4 135.3C217.7 133.1 218.3 132.3 218.5 131.9C219.1 130.2 219.2 128.6 219.4 127.1C219.5 126.2 221.2 127.1 221.6 127.6C222.1 128.4 221.1 130.6 220.8 131.4Z" fill="#E29191"/>
<path d="M234.8 126.2C235 125.2 234.8 124 234.2 123.1C233.5 122.1 232.3 121.2 231.5 120.6C229.1 119 226.1 118.7 223.3 119.2C222.6 119.3 221.5 119.3 221.1 119.3C221.1 119.7 221.1 120.6 221 121C220.3 120.8 219.7 120.6 219.1 120.2C219.1 121.4 219.5 122.6 220 123.6C220.1 123.8 220.3 124 220.3 124.2C220.4 124.3 220.5 124.2 220.5 124.4C220.5 124.7 220.9 123.8 222.1 123.5C223.3 123.2 223.8 123.2 224.8 123.5C224.8 123.4 224.8 123.4 224.6 123.1C224.8 123.1 225.9 123.3 227.6 124.1C228.4 124.5 229.4 125.2 229.9 126C230.4 126.9 230.2 129.3 230.1 130.4C230 130.9 229.8 131.4 229.7 131.8C229.4 132.6 228.9 134.1 229 134.5C229.4 134.2 229.8 133.6 230.1 133.1C230.5 132.5 228.9 135.6 229.4 135.1C230 134.6 233.3 130.7 233.8 130C234.3 129.3 234.7 128.3 234.8 127.9C234.9 127.8 235.2 126.7 234.8 126.2Z" fill="#2F253F"/>
<path d="M221.201 127.6C221.001 127.6 220.801 127.5 220.701 127.4C220.301 127.1 219.801 126.9 219.201 127C219.201 126.9 219.201 126.8 219.201 126.7V126.6L219.301 126.5C219.601 126.3 219.901 126.2 220.201 126.2C220.501 126.2 220.801 126.4 221.101 126.5C221.501 126.7 222.001 127.6 221.201 127.6Z" fill="#2F253F"/>
<path d="M223.701 136C223.701 136 222.201 135.7 221.401 135.6C220.701 135.5 219.601 135.2 219.401 135.1H219.201C219.201 135.1 219.501 136 219.601 136.3C219.801 136.6 220.201 137.2 220.901 137.5C221.601 137.8 222.301 137.6 222.801 137.3C223.101 137 223.701 136 223.701 136Z" fill="white"/>
<path d="M231.501 133.4C231.401 133.9 231.101 134.4 230.801 134.8C230.401 135.2 229.501 136 228.901 136.3C228.601 136.4 227.901 136.6 227.701 135.7C227.601 135.2 227.901 135.1 228.201 134.8C228.501 134.4 228.701 134.1 229.001 133.6C229.201 133.2 229.501 132.6 229.901 132.3C230.701 131.7 231.601 132.8 231.501 133.4Z" fill="#F4B8B8"/>
<path d="M228.901 133.9C228.601 133.8 228.201 133.4 228.201 133.2C228.201 132.9 228.301 132.7 228.401 132.4C228.801 131.6 229.201 130.7 229.401 129.8C229.601 129.2 229.701 128.8 229.801 128.1C229.901 127.3 229.801 125.7 229.401 125.3C229.901 126 230.501 127.1 230.801 127.9C231.101 128.7 230.701 130.3 230.401 131.1C230.301 131.3 230.201 131.5 230.101 131.7C229.801 132 229.801 132.3 229.601 132.6C229.601 132.8 228.901 133.9 228.901 133.9Z" fill="#2F253F"/>
<path d="M228.9 135.1C228.9 135.2 228.9 135.3 228.9 135.3C228.9 135.3 228.9 135.4 229 135.4H229.1C229.6 135.3 230.1 135 230.4 134.6C230.6 134.4 230.7 134.1 230.7 133.9C230.7 133.6 230.7 133.4 230.5 133.2C230.4 133.1 230.2 133 230.1 133.1C229.9 133.2 229.8 133.5 229.9 133.7C230 133.8 230.2 134.2 229.9 134.4C229.7 134.5 229.8 134.2 229.6 134.3C229.1 134.6 228.9 134.8 228.9 135.1Z" fill="#E29191"/>
<path d="M226.5 130.6C226.5 130.6 225.5 129.8 224.8 129.9C224.1 129.9 223.8 130 223.8 130L223.5 128.2C223.5 128.2 224.9 127.7 225.7 128.1C226.5 128.5 227.5 129.3 227.6 129.4C227.7 129.5 227.4 130.4 227.1 130.6C226.8 130.7 226.5 130.6 226.5 130.6Z" fill="#E09999"/>
<path d="M227.6 129.8C227.6 129.8 226.6 129.1 225.7 128.9C224.8 128.7 224 128.8 223.7 128.5C223.3 127.9 223.9 127.7 224.7 127.7C225.5 127.7 226.3 128 226.8 128.4C227.3 128.8 227.7 129.6 227.7 129.6L227.6 129.8Z" fill="#2F253F"/>
<path d="M225.601 131.4C225.401 131.4 225.201 131.4 225.001 131.4C224.301 131.3 223.801 130.9 223.801 130.8C223.701 130.6 223.901 130.5 224.001 130.4C224.301 130.2 224.601 130.2 224.901 130.2C225.201 130.2 225.501 130.4 225.801 130.5C226.001 130.6 226.601 130.8 226.601 131.1C226.501 131.3 225.801 131.4 225.601 131.4Z" fill="white"/>
<path d="M220.501 130.3C220.301 130.3 220.001 130.2 219.801 130.2C219.301 130 219.101 129.2 219.201 129.1C219.401 128.9 219.501 128.9 219.701 128.9C220.001 128.9 220.201 129.1 220.401 129.2C220.601 129.3 221.101 129.7 221.001 129.9C221.101 130.3 220.601 130.3 220.501 130.3Z" fill="white"/>
<path d="M225.901 130.8C225.901 131.1 225.601 131.4 225.301 131.4C225.001 131.4 224.701 131.1 224.701 130.8C224.701 130.5 225.001 130.2 225.301 130.2C225.701 130.2 225.901 130.5 225.901 130.8Z" fill="#2F253F"/>
<path d="M221.001 129.7C221.001 130 220.701 130.2 220.401 130.2C220.101 130.2 219.801 130 219.801 129.7C219.801 129.4 220.101 129.2 220.401 129.2C220.701 129.2 221.001 129.4 221.001 129.7Z" fill="#2F253F"/>
<path d="M223.701 130.4C223.701 130.2 224.001 130 224.201 129.9C224.601 129.7 225.101 129.5 225.501 129.7C225.801 129.8 226.101 130.1 226.301 130.4C226.501 130.6 226.601 130.8 226.801 131C226.201 130.9 226.001 130.6 225.501 130.3C225.201 130.2 225.001 130.2 224.701 130.2C224.601 130.2 223.701 130.4 223.701 130.4Z" fill="#5B415B"/>
<path d="M218.701 128.8C219.001 128.8 219.201 128.7 219.501 128.6C219.801 128.6 220.201 128.5 220.501 128.7C221.101 129.2 221.201 129.9 221.201 129.9C221.201 129.9 220.701 129.4 220.501 129.3C220.101 129.1 219.801 129.1 219.501 129.2C219.201 129.3 219.301 129.3 219.201 129.3C219.001 129.2 218.701 129 218.701 128.8Z" fill="#5B415B"/>
<path d="M337.101 86.3C337.101 86.3 330.801 96.6 323.001 99.3C314.801 102.1 312.401 97.3001 311.901 96.5001C311.601 96.0001 311.001 94.4001 311.001 94.4001L309.501 93.1001C309.501 93.1001 309.201 103.1 319.401 103.5C329.601 103.9 339.601 87.3 339.601 87.3L337.101 86.3Z" fill="#3D4687"/>
</svg>
