<svg width="51" height="51" viewBox="0 0 51 51" fill="none" xmlns="http://www.w3.org/2000/svg">
<circle cx="25.5" cy="25.5" r="25.5" fill="white"/>
<path d="M35.0776 18H16.7048C16.013 18 15.4521 18.5165 15.4521 19.1539V32.7179C15.4521 33.3552 16.013 33.8717 16.7048 33.8717H18.4586V36.8462C18.4586 37.2764 18.7185 37.6709 19.1328 37.8696C19.3148 37.9569 19.5134 38 19.7112 38C19.9637 38 20.2151 37.9297 20.4297 37.7914L22.9683 36.1545L24.221 35.3468L25.4737 34.5391L26.5088 33.8716H35.0776C35.7694 33.8716 36.3303 33.3551 36.3303 32.7178V25.6923V24.5384V23.3846V19.1539C36.3303 18.5165 35.7694 18 35.0776 18ZM30.0668 29.5385H29.3027H21.7156C21.0238 29.5385 20.4629 29.0218 20.4629 28.3847C20.4629 27.7474 21.0238 27.2308 21.7156 27.2308H30.0668C30.5686 27.2308 31.0003 27.5032 31.2002 27.8956C31.2759 28.0443 31.3195 28.2096 31.3195 28.3847C31.3196 29.0218 30.7587 29.5385 30.0668 29.5385ZM30.0668 24.923H21.7156C21.0238 24.923 20.4629 24.4064 20.4629 23.7692C20.4629 23.1319 21.0238 22.6153 21.7156 22.6153H30.0668C30.7587 22.6153 31.3195 23.132 31.3195 23.7692C31.3196 24.4064 30.7587 24.923 30.0668 24.923Z" fill="#725CEB"/>
</svg>
