<svg width="1913" height="1913" viewBox="0 0 1913 1913" fill="none" xmlns="http://www.w3.org/2000/svg">
<path fill-rule="evenodd" clip-rule="evenodd" d="M1046.32 337.801C996.725 288.205 916.313 288.205 866.717 337.801L337.801 866.717C288.204 916.314 288.204 996.726 337.801 1046.32L866.717 1575.24C916.313 1624.83 996.725 1624.83 1046.32 1575.24L1575.24 1046.32C1624.83 996.726 1624.83 916.314 1575.24 866.717L1046.32 337.801ZM654.585 125.669C821.339 -41.0845 1091.7 -41.0844 1258.45 125.669L1787.37 654.585C1954.12 821.339 1954.12 1091.7 1787.37 1258.45L1258.45 1787.37C1091.7 1954.12 821.339 1954.12 654.585 1787.37L125.669 1258.45C-41.085 1091.7 -41.085 821.339 125.669 654.585L654.585 125.669Z" fill="#CFC9F1" fill-opacity="0.17"/>
</svg>
