<svg width="880" height="603" viewBox="0 0 880 603" fill="none" xmlns="http://www.w3.org/2000/svg">
<path d="M871.799 390.9C877.199 371.8 880.499 351.9 878.499 332.2C876.599 313.3 869.899 295.2 868.199 276.3C865.899 250.4 873.099 224.4 871.199 198.5C866.599 133.9 807.099 84.8001 744.699 62.3001C707.099 48.7001 667.099 37.3001 627.599 30.6001C548.799 17.3001 486.999 5.30012 408.999 23.0001C330.499 40.8001 330.699 63.6001 297.499 75.1001C235.099 96.8001 187.999 87.2001 127.599 98.1001C83.8987 106 35.1986 142.2 19.4986 182.7C11.1986 204.1 8.59865 258.8 11.4986 281.5C18.9986 339.8 31.0986 363.6 66.0986 411.2C121.199 485.9 225.599 531.7 280.599 548.9C384.099 581.2 429.899 600 538.499 602.2C575.999 603 682.499 586.5 717.199 571.7C757.899 554.4 786.299 530.5 814.699 496.8C849.699 455.2 859.199 436 871.799 390.9Z" fill="#70D6F2"/>
<g opacity="0.34">
<g opacity="0.34">
<path opacity="0.34" d="M691.1 142.3C690.3 124.2 676.4 107 656.8 99.8001C637.2 92.6001 612.9 95.7001 596.7 107.5C593.6 88.3001 575.8 71.3001 553.5 66.6001C531.3 61.8001 506.1 69.5001 492.5 85.2001C490.7 87.3001 488.9 89.7001 486 90.7001C482.2 92.0001 477.9 90.4001 474.1 89.1001C455.9 82.9001 434.4 84.0001 417.2 92.1001C413.7 93.7001 394.9 103.9 394.9 107.4C394.9 114.5 376.4 111.2 363.3 113.5C342.7 117.1 324.8 124.4 330.9 128C356.7 143.1 480.2 139.3 511.4 136.8C516.8 136.4 522.5 135.9 527.5 137.7C533.6 139.9 537.5 145 541.9 149.3C553.7 160.7 571.4 166.8 589.2 168.5C607 170.1 624.9 167.7 642.3 164.2C652.1 162.2 662.1 159.9 672.1 160.7C678.2 161.2 684.1 162.8 690 163.9C714.1 168.7 741.3 166.7 763.6 157.2C753.8 153.5 746.3 147.2 736.9 143.1C732.5 140.9 690.7 135 691.1 142.3Z" fill="white"/>
</g>
</g>
<g opacity="0.43">
<g opacity="0.43">
<path opacity="0.43" d="M804.199 325.5C803.399 307.4 790.699 290.2 772.599 283C754.599 275.8 732.199 278.9 717.299 290.7C714.399 271.5 697.999 254.5 677.599 249.8C657.199 245 633.899 252.7 621.499 268.4C619.799 270.5 618.099 272.9 615.499 273.9C611.999 275.2 608.099 273.6 604.499 272.3C587.699 266.1 567.899 267.2 552.099 275.3C548.899 276.9 545.799 278.9 543.799 281.7C537.799 290.4 545.799 301.8 555.099 307.7C578.799 322.8 610.099 322.3 638.799 319.8C643.799 319.4 648.999 318.9 653.599 320.7C659.299 322.9 662.799 328 666.799 332.3C677.699 343.7 693.999 349.8 710.399 351.5C726.799 353.1 743.299 350.7 759.299 347.2C768.299 345.2 777.499 342.9 786.799 343.7C792.399 344.2 797.799 345.8 803.299 346.9C825.499 351.7 850.599 349.7 871.099 340.2C862.099 336.5 855.199 330.2 846.499 326.1C842.399 324.1 803.899 318.3 804.199 325.5Z" fill="white"/>
</g>
</g>
<g opacity="0.34">
<g opacity="0.34">
<path opacity="0.34" d="M332.801 342.2C320.701 314.9 295.601 292.5 266.001 288.3C236.401 284.1 203.901 300.8 193.901 328.9C183.901 315.7 165.901 309.1 149.801 312.8C133.701 316.4 120.201 330.1 116.801 346.3C102.801 345.8 88.3006 345.4 75.1006 350.1C61.9006 354.8 50.0006 366 48.7006 379.9C48.3006 383.6 48.8006 387.4 50.7006 390.6C56.7006 400.2 91.6006 394.3 102.901 394.1C160.501 393.3 225.101 399.6 260.001 402C274.501 403 454.001 390.9 529.401 380.4C531.501 372.8 526.301 364.7 519.401 360.9C488.401 343.9 453.801 365.7 423.601 346C409.201 336.6 399.901 328.9 381.401 327.7C377.501 327.5 329.001 333.5 332.801 342.2Z" fill="white"/>
</g>
</g>
<path d="M467.5 80.8001L429.6 35.5001C429.6 35.5001 423.7 29.5001 418.9 30.8001C414.1 32.1001 376.5 52.4001 363.6 60.8001C350.7 69.1001 343.2 74.5001 343.4 76.2001C343.6 78.0001 377.8 80.0001 409.5 82.5001C441.2 85.0001 467.5 86.8001 468.7 86.2001C469.9 85.7001 467.5 80.8001 467.5 80.8001Z" fill="white"/>
<g opacity="0.62">
<g opacity="0.62">
<path opacity="0.62" d="M110.399 141.6C112.099 142.9 112.299 151.5 112.799 155.8C113.399 160.2 113.799 164.6 113.799 164.6C113.799 164.6 123.099 171.7 126.699 174.6C130.299 177.5 133.899 181.4 132.999 182.4C132.099 183.4 85.0992 199 77.0992 201.7C69.0992 204.4 63.6992 204.7 63.6992 202.2C63.6992 199.8 105.399 141.3 105.399 141.3C105.399 141.3 107.899 139.5 108.799 139.8C109.799 140.2 110.399 141.6 110.399 141.6Z" fill="white"/>
</g>
</g>
<g opacity="0.49">
<g opacity="0.49">
<path opacity="0.49" d="M780.9 200.3C780.3 201.7 783.7 207.2 785.1 210.2C786.5 213.2 788 216.2 788 216.2C788 216.2 784.7 224.1 783.5 227.3C782.3 230.5 781.5 234.3 782.5 234.6C783.5 234.9 821.4 227.3 827.9 226C834.4 224.8 838.1 222.9 837.1 221.4C836.1 219.9 784.1 198.4 784.1 198.4C784.1 198.4 781.7 198.2 781.2 198.7C780.7 199.3 780.9 200.3 780.9 200.3Z" fill="white"/>
</g>
</g>
<path d="M335.999 310.4C335.999 310.4 330.699 357.2 304.899 387.2C279.099 417.2 251.599 422.7 251.599 422.7C251.599 422.7 238.699 413.6 226.199 405.7C213.799 397.8 203.199 391.3 203.199 391.3C203.199 391.3 237.599 379.8 261.699 342.4C276.199 319.9 284.499 295.4 284.499 295.4C284.499 295.4 294.999 302.5 309.699 307.1C325.399 311.8 335.999 310.4 335.999 310.4Z" fill="#BAD180"/>
<path d="M329.1 317.2C329.1 317.2 323.7 356.3 301.7 382C279.7 407.7 253.4 417.7 253.4 417.7C253.4 417.7 244.3 411 233.8 404.2C223.2 397.4 212.9 392.1 212.9 392.1C212.9 392.1 245.5 374.6 266 342.6C278.4 323.3 286.3 300.9 286.3 300.9C286.3 300.9 294.4 308.4 306.9 312.3C320.2 316.4 329.1 317.2 329.1 317.2Z" fill="#818D5A"/>
<path d="M311.199 322C306.699 318.8 301.899 316 296.899 313.6C294.199 319.2 289.399 323.8 283.699 326.4C282.699 326.8 281.699 327.2 280.999 327.9C280.199 328.6 279.799 329.7 279.299 330.6C270.399 350.6 255.599 369.8 237.099 381.9C237.799 387.6 236.599 391.6 233.699 396.6C238.299 400.9 243.799 404.4 249.699 406.7C254.199 399.3 260.399 396.4 268.999 395C270.799 394.7 275.099 395.1 275.099 395.1C275.099 395.1 281.599 391.2 283.099 390C291.799 383.2 294.899 379.3 300.999 371.7C306.099 365.4 314.399 346.7 314.399 346.7C314.399 346.7 309.699 330.8 311.199 322Z" fill="#BAD180"/>
<path d="M276.5 348C272.3 347.6 267.7 349.2 264.8 352.6C263.7 353.9 262.9 355.4 262.6 357.1C262.2 359.4 262.9 361.8 263.8 363.9C267.7 372.5 276.7 378.1 285.8 377.6C288.5 377.4 291.4 376.7 293.3 374.6C303.5 363.4 285.4 348.7 276.5 348Z" fill="#818D5A"/>
<path d="M288.4 339.1C288.2 341.6 290.3 343.8 292.8 344.8C294.1 345.3 295.7 345.5 297.1 345.1C299.2 344.3 300.4 341.9 299.9 339.8C299.4 337.7 297.5 336 295.3 335.4C293.7 334.9 291.9 334.9 290.5 335.7C289.1 336.5 288.4 338.4 289.1 339.7" fill="#99A46F"/>
<path d="M255.3 381.2C254.6 383 256.2 385.2 258.3 386.6C259.5 387.4 260.9 387.9 262.3 387.9C264.5 387.9 266.1 386.4 266.1 384.7C266 383 264.5 381.3 262.6 380.2C261.2 379.4 259.5 378.9 258 379.1C256.5 379.3 255.4 380.5 255.8 381.7" fill="#96C170"/>
<path d="M64.2996 326.7C64.2996 326.7 34.1996 323.1 17.5996 299C0.999609 275 0.599609 248.5 0.599609 248.5C0.599609 248.5 8.09961 235.6 14.7996 223.4C21.4996 211.1 26.9996 200.6 26.9996 200.6C26.9996 200.6 30.4996 233.6 52.1996 255.7C65.1996 269 80.3996 276.3 80.3996 276.3C80.3996 276.3 74.4996 286.7 69.6996 301.1C64.6996 316.5 64.2996 326.7 64.2996 326.7Z" fill="#BAD180"/>
<path d="M60.6992 320.2C60.6992 320.2 35.5992 316.2 21.3992 295.7C7.09922 275.2 3.69922 250.1 3.69922 250.1C3.69922 250.1 9.19922 241.1 14.8992 230.6C20.5992 220.1 25.2992 209.9 25.2992 209.9C25.2992 209.9 32.8992 240.9 51.4992 259.8C62.6992 271.2 76.4992 278.1 76.4992 278.1C76.4992 278.1 70.5992 286.2 66.5992 298.5C62.1992 311.6 60.6992 320.2 60.6992 320.2Z" fill="#818D5A"/>
<path d="M59.6004 303C62.2004 298.5 64.7004 293.8 66.8004 288.9C63.4004 286.4 61.0004 282 60.0004 276.5C59.8004 275.6 59.7004 274.6 59.3004 273.9C58.9004 273.2 58.3004 272.8 57.7004 272.4C45.6004 264.4 34.8004 250.6 29.1004 233.1C25.3004 233.9 22.8004 232.9 19.9004 230.3C16.5004 234.9 13.6004 240.3 11.4004 246.2C15.7004 250.3 16.9004 256.2 16.8004 264.6C16.8004 266.4 16.0004 270.6 16.0004 270.6C16.0004 270.6 17.8004 276.7 18.4004 278.2C21.8004 286.4 24.1004 289.3 28.3004 295C31.8004 299.5 43.0004 307 43.0004 307C43.0004 307 54.1004 301.9 59.6004 303Z" fill="#BAD180"/>
<path d="M46.7004 270.2C47.4004 266.1 47.0004 261.7 45.1004 259C44.4004 258 43.5004 257.2 42.4004 257C40.9004 256.7 39.3004 257.4 37.8004 258.4C31.7004 262.4 26.9004 271.3 26.2004 280.2C26.0004 282.8 26.1004 285.6 27.3004 287.4C33.4004 296.9 45.2004 278.8 46.7004 270.2Z" fill="#818D5A"/>
<path d="M51.0988 281.4C49.4988 281.3 47.7989 283.4 46.8989 285.8C46.3989 287.1 46.0988 288.6 46.1988 289.9C46.3988 292 47.8989 293 49.3989 292.4C50.7989 291.8 52.1989 289.9 52.8989 287.8C53.3989 286.3 53.5989 284.5 53.2989 283.2C52.8989 281.9 51.7989 281.2 50.7989 282" fill="#99A46F"/>
<path d="M27.5 250.7C26.4 250.1 24.8 251.7 23.6 253.8C23 255 22.4 256.4 22.2 257.8C21.9 260 22.7 261.5 23.9 261.4C25 261.3 26.3 259.8 27.3 257.9C28 256.5 28.5 254.8 28.6 253.4C28.6 251.9 28 250.9 27.1 251.4" fill="#96C170"/>
<path d="M821.1 376.1C821.1 376.1 782.6 358.1 766.6 329.7C750.6 301.3 756.6 278.9 756.6 278.9C756.6 278.9 769.5 271.8 781.2 264.8C792.9 257.8 802.6 251.7 802.6 251.7C802.6 251.7 799.2 281.1 822.3 310.4C836.2 328 854.2 341.6 854.2 341.6C854.2 341.6 843.9 347.4 834.3 357.1C824 367.6 821.1 376.1 821.1 376.1Z" fill="#BAD180"/>
<path d="M817.9 368.8C817.9 368.8 786.1 353 772.3 328.8C758.6 304.5 760.2 281.8 760.2 281.8C760.2 281.8 769.6 277 779.6 271C789.6 265 798.2 258.8 798.2 258.8C798.2 258.8 800.7 288.6 820.5 313.6C832.4 328.7 848.8 341.4 848.8 341.4C848.8 341.4 839.1 345.3 830.9 353.5C822 362.4 817.9 368.8 817.9 368.8Z" fill="#818D5A"/>
<path d="M820.6 353.8C825.1 351.4 829.4 348.6 833.5 345.5C829.7 341.8 827.5 336.8 827.5 331.7C827.5 330.9 827.5 330 827.2 329.2C826.9 328.4 826.2 327.7 825.5 327.1C811.6 314.4 800.8 297.5 797.5 279.9C792.3 278.7 789.3 276.6 786.1 273C780.5 275.2 775.4 278.3 771.1 282.1C775.7 287.7 775.9 293.2 773.7 300.2C773.2 301.7 771.2 304.8 771.2 304.8C771.2 304.8 772.1 310.8 772.5 312.3C775 320.9 777.2 324.4 781.4 331.3C784.9 337.1 797.9 348.9 797.9 348.9C797.9 348.9 813.6 350.2 820.6 353.8Z" fill="#BAD180"/>
<path d="M811.6 320C813.6 316.9 814 313 812.2 309.8C811.5 308.6 810.5 307.5 809.2 306.8C807.3 305.8 805 305.6 802.8 305.7C793.8 306.1 785.5 311.2 782.4 318.2C781.5 320.3 781 322.7 782.1 324.8C787.8 335.7 807.5 326.4 811.6 320Z" fill="#818D5A"/>
<path d="M814.7 331.6C812.6 330.7 809.9 331.7 808.1 333.2C807.1 334.1 806.3 335.2 806.2 336.3C806 338.1 807.7 339.7 809.8 340C811.8 340.2 814 339.3 815.4 337.9C816.4 336.9 817.2 335.5 817 334.2C816.8 332.9 815.5 331.8 814 332" fill="#99A46F"/>
<path d="M791.099 294C789.799 293 787.299 293.5 785.299 294.7C784.199 295.4 783.099 296.3 782.599 297.3C781.699 299 782.399 300.6 783.899 301.1C785.399 301.6 787.499 301 789.199 299.8C790.399 299 791.499 297.8 791.899 296.6C792.299 295.4 791.699 294.2 790.499 294.2" fill="#96C170"/>
<path d="M740.899 480.3C740.899 480.3 761.499 467.2 770.099 446.4C778.699 425.6 775.499 409.3 775.499 409.3C775.499 409.3 768.599 404.1 762.299 399C755.999 393.9 750.799 389.5 750.799 389.5C750.799 389.5 752.599 411 740.299 432.4C732.899 445.3 723.199 455.2 723.199 455.2C723.199 455.2 728.699 459.5 733.899 466.6C739.399 474.1 740.899 480.3 740.899 480.3Z" fill="#A6B767"/>
<path d="M742.699 475C742.699 475 759.699 463.5 767.099 445.8C774.499 428.1 773.599 411.4 773.599 411.4C773.599 411.4 768.599 407.9 763.199 403.5C757.899 399.1 753.199 394.6 753.199 394.6C753.199 394.6 751.899 416.4 741.299 434.7C734.899 445.7 726.199 455 726.199 455C726.199 455 731.399 457.8 735.799 463.9C740.399 470.3 742.699 475 742.699 475Z" fill="#818D5A"/>
<path d="M741.199 464C738.799 462.2 736.499 460.2 734.299 458C736.299 455.3 737.499 451.6 737.499 447.9C737.499 447.3 737.499 446.6 737.699 446.1C737.899 445.5 738.299 445 738.599 444.6C745.999 435.3 751.899 423 753.599 410.1C756.399 409.2 757.999 407.7 759.699 405C762.699 406.6 765.399 408.9 767.699 411.6C765.199 415.7 765.099 419.7 766.299 424.8C766.499 425.9 767.599 428.2 767.599 428.2C767.599 428.2 767.099 432.6 766.899 433.7C765.499 440 764.399 442.5 762.099 447.6C760.199 451.8 753.299 460.4 753.299 460.4C753.299 460.4 744.899 461.4 741.199 464Z" fill="#A6B767"/>
<path d="M745.999 439.3C744.999 437 744.699 434.2 745.699 431.9C746.099 431 746.599 430.2 747.299 429.7C748.299 429 749.499 428.8 750.699 428.9C755.499 429.2 759.999 432.9 761.599 438C762.099 439.5 762.299 441.3 761.799 442.8C758.799 450.8 748.199 444 745.999 439.3Z" fill="#818D5A"/>
<path d="M744.401 447.8C745.501 447.2 747.001 447.8 747.901 449C748.401 449.6 748.801 450.4 748.901 451.3C749.001 452.6 748.101 453.8 747.001 454C745.901 454.2 744.701 453.5 744.001 452.4C743.401 451.6 743.101 450.7 743.201 449.7C743.301 448.8 744.001 447.9 744.801 448.1" fill="#99A46F"/>
<path d="M757 420.4C757.7 419.6 759 420 760.1 420.9C760.7 421.4 761.3 422.1 761.6 422.8C762.1 424 761.7 425.2 760.9 425.6C760.1 425.9 759 425.5 758.1 424.7C757.4 424.1 756.8 423.3 756.6 422.4C756.4 421.5 756.7 420.7 757.4 420.6" fill="#96C170"/>
<path d="M106.299 430.4C106.299 430.4 133.699 419.4 145.099 402.1C156.499 384.8 152.199 371.1 152.199 371.1C152.199 371.1 142.999 366.8 134.699 362.5C126.399 358.2 119.399 354.5 119.399 354.5C119.399 354.5 121.799 372.4 105.399 390.3C95.4992 401.1 82.6992 409.3 82.6992 409.3C82.6992 409.3 89.9992 412.8 96.8992 418.8C104.199 425.2 106.299 430.4 106.299 430.4Z" fill="#A6B767"/>
<path d="M108.6 426C108.6 426 131.3 416.4 141 401.6C150.8 386.8 149.6 372.9 149.6 372.9C149.6 372.9 142.9 370 135.8 366.3C128.7 362.7 122.6 358.9 122.6 358.9C122.6 358.9 120.8 377.1 106.7 392.3C98.1996 401.5 86.5996 409.2 86.5996 409.2C86.5996 409.2 93.4996 411.6 99.2996 416.6C105.6 422 108.6 426 108.6 426Z" fill="#818D5A"/>
<path d="M106.6 416.8C103.4 415.3 100.3 413.6 97.4004 411.8C100.1 409.5 101.6 406.5 101.7 403.4C101.7 402.9 101.7 402.3 101.9 401.9C102.1 401.4 102.6 401 103.1 400.6C113 392.9 120.7 382.5 123 371.8C126.7 371.1 128.8 369.8 131.1 367.6C135.1 368.9 138.7 370.8 141.8 373.1C138.5 376.5 138.4 379.9 139.9 384.1C140.2 385 141.7 386.9 141.7 386.9C141.7 386.9 141.1 390.6 140.7 391.5C138.9 396.7 137.3 398.9 134.4 403.1C131.9 406.6 122.7 413.8 122.7 413.8C122.7 413.8 111.6 414.6 106.6 416.8Z" fill="#A6B767"/>
<path d="M112.999 396.2C111.599 394.3 111.299 392 112.599 390C113.099 389.3 113.799 388.6 114.799 388.2C116.099 387.6 117.799 387.5 119.399 387.5C125.799 387.7 131.699 390.8 133.899 395.1C134.599 396.4 134.899 397.8 134.099 399.1C129.999 405.8 115.899 400.1 112.999 396.2Z" fill="#818D5A"/>
<path d="M110.799 403.2C112.299 402.7 114.199 403.2 115.499 404.2C116.199 404.7 116.799 405.4 116.799 406.1C116.899 407.2 115.699 408.2 114.299 408.3C112.899 408.4 111.299 407.9 110.299 407C109.599 406.4 108.999 405.5 109.199 404.8C109.299 404 110.199 403.3 111.299 403.4" fill="#99A46F"/>
<path d="M127.6 380.4C128.5 379.8 130.3 380.1 131.8 380.8C132.6 381.2 133.4 381.8 133.7 382.4C134.3 383.4 133.8 384.4 132.8 384.7C131.7 385 130.2 384.6 129 383.9C128.1 383.4 127.3 382.7 127.1 382C126.8 381.3 127.2 380.5 128.1 380.5" fill="#96C170"/>
<g opacity="0.65">
<g opacity="0.65">
<path opacity="0.65" d="M265.5 532.9C265.5 532.9 240.3 524.3 229.9 510.8C219.5 497.3 223.3 486.6 223.3 486.6C223.3 486.6 231.7 483.2 239.4 479.9C247 476.6 253.4 473.7 253.4 473.7C253.4 473.7 251.2 487.7 266.3 501.7C275.4 510.1 287.1 516.6 287.1 516.6C287.1 516.6 280.4 519.4 274.1 524C267.4 528.9 265.5 532.9 265.5 532.9Z" fill="#A6B767"/>
<path opacity="0.65" d="M263.401 529.4C263.401 529.4 242.601 521.9 233.601 510.3C224.601 498.8 225.701 487.9 225.701 487.9C225.701 487.9 231.801 485.6 238.301 482.8C244.801 480 250.401 477 250.401 477C250.401 477 252.001 491.2 265.001 503.1C272.801 510.3 283.501 516.3 283.501 516.3C283.501 516.3 277.201 518.1 271.801 522.1C266.101 526.4 263.401 529.4 263.401 529.4Z" fill="#818D5A"/>
<path opacity="0.65" d="M265.2 522.3C268.2 521.1 271 519.8 273.6 518.4C271.1 516.6 269.7 514.3 269.7 511.8C269.7 511.4 269.7 511 269.5 510.6C269.3 510.2 268.8 509.9 268.4 509.6C259.4 503.6 252.2 495.5 250.1 487.1C246.7 486.5 244.7 485.5 242.7 483.8C239.1 484.8 235.7 486.3 232.9 488.1C235.9 490.8 236 493.4 234.6 496.7C234.3 497.4 233 498.9 233 498.9C233 498.9 233.6 501.8 233.9 502.5C235.6 506.6 237 508.3 239.7 511.5C242 514.2 250.5 519.9 250.5 519.9C250.5 519.9 260.6 520.5 265.2 522.3Z" fill="#A6B767"/>
<path opacity="0.65" d="M259.301 506.2C260.601 504.7 260.901 502.9 259.701 501.4C259.201 500.8 258.601 500.3 257.701 500C256.501 499.5 255.001 499.4 253.501 499.5C247.601 499.7 242.201 502.1 240.201 505.5C239.601 506.5 239.301 507.6 240.001 508.6C243.701 513.7 256.601 509.2 259.301 506.2Z" fill="#818D5A"/>
<path opacity="0.65" d="M261.301 511.7C259.901 511.3 258.101 511.7 257.001 512.5C256.401 512.9 255.801 513.4 255.801 514C255.701 514.9 256.801 515.6 258.101 515.8C259.401 515.9 260.801 515.5 261.801 514.8C262.501 514.3 262.901 513.7 262.801 513C262.701 512.4 261.801 511.9 260.901 511.9" fill="#99A46F"/>
<path opacity="0.65" d="M245.9 493.8C245 493.3 243.4 493.5 242.1 494.1C241.4 494.4 240.7 494.9 240.3 495.4C239.7 496.2 240.2 497 241.2 497.2C242.2 497.4 243.5 497.1 244.7 496.6C245.5 496.2 246.2 495.7 246.5 495.1C246.8 494.5 246.4 494 245.6 494" fill="#96C170"/>
</g>
</g>
<g opacity="0.83">
<g opacity="0.83">
<path opacity="0.83" d="M740 168.4C740 168.4 749 138.9 767.9 124.6C786.7 110.3 803.3 112.3 803.3 112.3C803.3 112.3 809.7 120.9 815.9 128.6C822.1 136.3 827.4 142.7 827.4 142.7C827.4 142.7 806 143.2 787.2 162.7C775.9 174.4 768 188.7 768 188.7C768 188.7 762.8 181.9 754.8 176C746.3 169.7 740 168.4 740 168.4Z" fill="#BAD180"/>
<path opacity="0.83" d="M744.9 165.4C744.9 165.4 753 141 769.1 128.7C785.1 116.4 801.7 115.3 801.7 115.3C801.7 115.3 806.1 121.5 811.4 128.1C816.7 134.7 822 140.2 822 140.2C822 140.2 800.9 145 784.9 161.7C775.3 171.8 767.8 184.8 767.8 184.8C767.8 184.8 764.1 178.2 757.3 173.2C749.9 167.7 744.9 165.4 744.9 165.4Z" fill="#818D5A"/>
<path opacity="0.83" d="M755.9 165.9C758.1 168.9 760.5 171.7 763.1 174.3C765.4 171.2 768.7 169.2 772.4 168.6C773 168.5 773.6 168.5 774.2 168.1C774.8 167.8 775.1 167.2 775.5 166.7C783.2 155.5 794.3 146 806.6 141.9C806.9 138.1 808.1 135.7 810.4 133C808.3 129.2 805.5 125.9 802.4 123.1C798.8 127 794.9 127.7 789.7 126.8C788.6 126.6 786.2 125.5 786.2 125.5C786.2 125.5 781.9 126.7 780.9 127.2C775 129.9 772.7 131.8 768.2 135.5C764.4 138.6 757.2 149.1 757.2 149.1C757.2 149.1 757.9 160.4 755.9 165.9Z" fill="#BAD180"/>
<path opacity="0.83" d="M779.3 156C781.7 157.1 784.5 157 786.7 155.4C787.5 154.8 788.2 153.9 788.6 152.9C789.1 151.5 789.1 149.8 788.8 148.2C787.6 141.8 783.1 136.3 777.8 134.8C776.2 134.3 774.4 134.3 773.1 135.2C765.6 140.5 774.3 153.7 779.3 156Z" fill="#818D5A"/>
<path opacity="0.83" d="M771.301 159.4C771.701 157.8 770.801 155.9 769.501 154.8C768.801 154.2 767.901 153.7 767.101 153.8C765.801 153.9 764.801 155.2 764.801 156.7C764.801 158.2 765.701 159.6 766.901 160.5C767.701 161.1 768.801 161.5 769.701 161.3C770.601 161 771.301 160 771.001 159" fill="#99A46F"/>
<path opacity="0.83" d="M795.899 138.7C796.499 137.7 795.899 135.9 794.799 134.6C794.199 133.9 793.399 133.2 792.599 132.9C791.299 132.4 790.199 133.1 789.999 134.2C789.799 135.3 790.499 136.8 791.499 137.9C792.199 138.7 793.199 139.4 794.099 139.5C794.999 139.7 795.799 139.1 795.699 138.2" fill="#96C170"/>
</g>
</g>
<path d="M440.699 49.7002L363.199 71.0002L452.199 60.1002L440.699 49.7002Z" fill="#CFEBF9"/>
<path d="M440.7 49.7002L439.9 61.3002L452.2 60.1002L453.2 50.5002L440.7 49.7002Z" fill="#70D6F2"/>
<path d="M532.899 602.2C612.599 605.7 680.399 585.3 740.999 556.7C719.499 461.7 631.699 390.6 526.599 390.6C421.599 390.6 333.799 461.7 312.199 556.7C372.899 585.3 451.299 598.6 532.899 602.2Z" fill="#4CBFF2"/>
<path d="M623.3 406.7C623.3 406.7 693 466 709 493.6C725.7 522.6 736.7 562.9 736.7 562.9C739.2 561.3 730.6 564.2 742.4 558.6C725.6 484.4 668.3 424.7 594 402.2L623.3 406.7Z" fill="#8FE7FF"/>
<path d="M633.6 443.3C639.9 448.8 650.6 455.8 648.9 463.1C644.7 481.5 611.4 483.6 601.6 481C579.2 474.9 589.9 478.5 571.1 479.1C535.8 480.2 502.1 475.2 465.8 478.6C458 479.3 429.7 481.7 426.1 467.4C423.5 456.7 441.4 443 447.9 438.8C468.6 425.4 493.4 424.8 520.6 424.8C560.7 424.7 603.9 417.5 633.6 443.3Z" fill="#4296E2"/>
<path d="M601.3 499.8C605.4 510.3 600.2 508.9 593.9 514C587.6 519.1 579 520.4 570.9 520.6C563.7 520.8 556.4 520.2 549.3 518.9C544.8 518.1 539.7 517.1 536.1 519.9C534.4 521.2 533.4 523.1 532.1 524.7C524.6 535 506.3 532.7 493.7 534.3C482.1 535.7 480.6 542.4 471.1 538.3C466 530.6 476.9 495.6 486 477.1C488.4 472.2 485.2 473.2 489.8 470.3C494 467.6 499.1 466.9 504.1 466.4C519.1 464.7 534.1 463.7 549.1 463.3C562 463 580.3 458.8 590.7 466.3L601.3 499.8Z" fill="#4296E2"/>
<path d="M687.3 518.6C683.5 520 679.9 522.3 675.8 522.6C673.3 522.8 670.8 522.1 668.2 521.9C659.9 521 651.3 524.3 645.7 530.6C643.9 532.6 642.3 535 639.8 536.1C636.6 537.6 632.9 536.5 629.4 535.9C616.8 533.5 603.2 537.2 593.5 545.5C591.3 547.4 589 549.7 586.1 550.2C581.4 550.9 576.8 546.8 572.3 548.2C570.4 548.8 568.8 550.4 566.8 550.2C564.9 550 563.5 548.2 562.3 546.7C555.8 538.2 541.9 531.9 539.9 531.9C537.1 531.9 529.3 532.5 526.6 533C523.2 533.6 519.8 534.6 516.7 536.2C513.8 537.7 515.4 544.6 512.7 546.6C510.1 548.5 513.1 557.8 510.5 559.6C504.5 563.7 495.4 560.5 488.3 559.9C486.4 565.2 478.6 573.8 483.6 576.3C486 577.5 494.2 571.3 495.2 574.3C495.4 574.8 494 584 495.7 585C497.8 586.3 500.1 587.3 502.6 587.7C505 587.3 506.4 576.1 508.5 575C510.9 573.7 513.1 572.1 515.4 570.5C516.6 569.6 517.9 568.8 519.1 568C521.9 566.3 529.2 557.4 530.5 557.4C533.8 557.4 535.5 562.4 538.1 564.5C538.8 565.1 535.4 569.6 533.6 570.5C532.1 571.2 523.3 570.6 518.7 573.3C516 574.9 518.3 578.7 517.5 581C517.3 581.5 534.1 584.1 528 586.1C521.9 588.1 504.2 587.2 500.5 591.9C496.2 593 491.4 590.1 486 589.5C475.7 588.3 463.4 585.9 456.1 593.2C471.4 599.5 480.3 599.2 499.3 601C511.6 602.2 541 603.1 553.4 602.7C570.1 602.2 592.2 601.6 608.5 598.2C624.9 594.8 630.8 594 647.2 590.6C659.6 588 678.7 583.3 691.3 579.8C705.4 575.9 716.2 571.3 728.4 565.5C720.8 556.6 712.2 540.5 710.5 530.4C709.6 525 712 522.1 706.4 518.5C701.7 515.1 692.6 516.6 687.3 518.6Z" fill="#2C9B9B"/>
<path d="M604.7 526C605.4 525.2 606.5 524.8 607.6 524.5C612.5 523 625.6 517.4 633.4 519.2C633.8 517.6 632.5 515.6 630.9 515.1C629.3 514.6 616.2 516.4 614.6 516.8C609.4 517.9 604.2 518.5 598.9 518.6C598.1 518.6 597.2 518.7 596.8 519.3C596 520.5 597.6 521.8 598.4 523C600 525.5 598 529.9 600.7 531.2C601.3 531.5 602 531.5 602.5 532C603.9 533.1 600.9 536.3 601.5 537.9C606.2 534.5 601.7 529.5 604.7 526Z" fill="#34A0A5"/>
<path d="M423.8 566.4C425.5 565.9 427.3 565.4 428.4 564.1C429.3 563.1 439.1 563.2 439.4 561.9C442 550.9 435 538.4 437.6 527.4C436.2 527.3 434.9 527.3 433.5 527.2C433.1 522.6 432.6 517.8 430.4 513.7C428.2 509.6 426.3 510.4 421.7 511.2C417.7 511.9 416.1 511.9 412.3 510.4C410.3 509.6 398.5 502.8 397.1 501.3C392 495.9 391.4 502.7 384 503.7C376.6 504.7 362.1 499.4 360 500.5C358.3 501.4 356.6 498.4 354.7 498.5C352.6 498.5 350.9 500 349.1 501.1C345.1 503.6 340.1 504.5 335.5 503.4C326.6 516.6 320.3 531.6 317.1 547.1C325.1 546.7 333.1 546.3 341.1 545.9C342.7 545.8 344.4 545.8 345.9 546.5C348 547.6 348.9 549.9 350.2 551.8C353.8 557.2 361 560 367.3 558.2L364.2 571.1C369.8 575.1 375.9 578.3 382.3 580.9C390.3 584 391.2 577.1 396.7 573.8C403.8 569.7 415.8 568.7 423.8 566.4Z" fill="#2C9B9B"/>
<path d="M432.198 570.3C430.598 570.4 428.998 570.6 427.398 570.7C427.698 573.2 429.198 575.5 430.898 577.4C432.598 579.3 434.698 581.2 437.198 581.2C439.398 581.3 441.598 579.9 442.398 577.8C439.998 576.2 437.498 574.5 434.598 574.1C433.498 573.9 432.398 573.9 431.498 573.2C430.598 572.5 430.898 570.8 431.998 570.7C431.698 570.5 431.398 570.3 431.098 570.1" fill="#34A0A5"/>
<g opacity="0.2">
<g opacity="0.2">
<path opacity="0.2" d="M671.299 583.5C694.099 580.3 715.699 574 735.599 564.1C719.299 488.6 662.199 424.8 590.199 402.1C629.299 446.3 658.299 508.3 671.299 583.5Z" fill="#387AA3"/>
</g>
</g>
<path d="M433.3 410.1C433.3 410.1 378.8 437.4 346 491.2C328.6 519.8 318.3 560.5 318.3 560.5C315.8 558.9 324.4 561.8 312.6 556.2C329.4 482 386.6 422.4 461 399.8L433.3 410.1Z" fill="#C5F0FF"/>
<path d="M722.699 144.2C722.699 144.2 735.999 125.3 737.999 119.8C739.899 114.2 739.099 112 734.899 106.7C730.699 101.4 725.699 98.4 725.699 98.4C725.699 98.4 721.499 92.8 718.499 92C715.399 91.2 709.599 93.1 709.599 93.1C709.599 93.1 707.599 87.5 706.299 85.7C705.099 83.8 702.399 82.8 699.099 83.2C695.799 83.6 685.699 83 683.599 83C681.499 83 678.399 82.8 678.199 84.9C677.999 87 680.299 91.9 686.699 92.3C693.099 92.7 697.899 91.3 698.899 93.3C699.899 95.4 701.199 98.7 701.199 98.7C701.199 98.7 697.299 103 695.199 105.7C693.099 108.4 684.899 108.4 684.899 108.4C684.899 108.4 685.399 119.6 690.499 128.5C695.699 137.4 700.599 142.3 700.599 142.3L715.599 142.7L722.699 144.2Z" fill="#F2C2C2"/>
<path d="M708.399 130.3C709.199 131 710.099 131.7 711.099 131.8C712.299 131.9 713.599 129.9 714.599 129.1C719.799 125.1 724.099 121.4 727.399 115.8C724.699 114.3 725.599 111.1 722.899 109.6C722.499 109.3 718.299 110.8 717.799 110.8C716.899 110.8 716.199 111.6 715.499 112.3C712.899 114.8 710.199 112.8 706.599 112.2C703.199 111.7 691.799 110.7 695.299 117.6C698.099 122.8 704.099 126.6 708.399 130.3Z" fill="#E59C9C"/>
<path d="M615.498 378.7L599.598 350.8L521.598 345.7L482.998 350.5L463.898 371.1L507.598 420.6L564.098 435.1L612.298 392.6L615.498 378.7Z" fill="#3434AD"/>
<path d="M708.999 340.8C708.999 340.8 669.399 397.7 654.099 415.4C638.899 433.2 629.999 452.8 602.699 464.9C575.399 477 548.8 470.6 539.9 468.7C531 466.8 514.499 463.6 502.499 464.9C490.399 466.2 454.299 471.2 421.899 428.1C389.499 385 360.999 331 359.099 317.1C357.199 303.1 375.599 300 384.499 303.8C393.399 307.6 448.599 354.5 448.599 354.5L490.499 386.2L559.599 409.7L629.4 362.8L699.799 322.8L710.599 334.2L708.999 340.8Z" fill="#3434AD"/>
<path d="M464.798 189.7C464.798 189.7 451.198 214.9 442.798 230.8C434.398 246.7 429.198 259.3 427.398 263.5C425.498 267.7 414.298 288.7 401.198 280.8C388.098 272.9 382.698 266.2 387.398 253.6C392.098 241 437.198 163.4 443.798 153.6C450.298 143.8 455.998 141 455.998 141L471.398 159.2L464.798 189.7Z" fill="#F2AFAF"/>
<path d="M619.399 108.5C619.399 108.5 621.199 175.4 614.799 183.1C608.499 190.8 587.999 208.8 569.399 208.4C550.699 208 517.299 194 515.899 181.3C514.499 168.6 518.399 119.7 518.399 119.7L525.399 74.6001L553.599 49.3L604.999 83.1001L615.199 96.8L619.399 108.5Z" fill="#935B28"/>
<path d="M628.898 183.4C628.898 183.4 590.598 159.1 580.898 154.8C571.198 150.5 548.498 142.9 531.798 136.5C515.098 130 498.898 129.5 484.898 131.6C470.898 133.8 473.598 162.9 473.598 162.9L485.998 201.7L477.398 244.3L491.998 307.4L544.298 318.2L587.498 262.6L603.698 230.8L604.198 200.6L628.898 183.4Z" fill="#F2C2C2"/>
<path d="M601.598 173.2C601.598 173.2 600.798 202.6 604.098 213.6C607.498 224.5 612.098 235.8 610.898 243.3C607.898 261.6 598.698 272.5 592.998 277.7C590.698 279.8 588.198 285.7 588.898 296.2C589.498 305.9 591.598 316.3 598.698 331.2C604.598 343.4 606.098 347.5 607.698 353.8C609.398 360.1 609.998 363 609.998 363C609.998 363 567.098 357.5 538.098 357.5C509.098 357.5 466.998 367.2 466.998 367.2L458.598 347.4C458.598 347.4 477.298 309.9 479.398 291.4C481.498 272.9 476.298 264.7 476.298 264.7C476.298 264.7 464.298 251.6 467.098 233.2C469.398 218.7 476.998 200.2 476.998 200.2C476.998 200.2 476.998 194.7 472.998 194.3C468.298 193.8 462.998 195 462.998 195C462.998 195 465.098 177.5 461.398 164.4C457.598 151.4 450.998 142.6 450.998 142.6C450.998 142.6 464.898 132.5 475.398 131.2C485.898 129.9 492.598 129.1 500.598 129.5L516.598 130.3C516.598 130.3 484.098 212.5 516.598 222C542.898 229.7 567.998 232.9 577.798 207.1C585.298 187.4 584.998 156.6 584.998 156.6C584.998 156.6 593.098 159.6 595.598 161.5C597.998 163.4 601.598 173.2 601.598 173.2Z" fill="#F21D1D"/>
<path d="M584.3 114.6C584.3 114.6 578.8 123.5 575.2 135.2C573.5 140.6 573 147.2 573 150.2C573.1 153.7 581 154.5 581 154.5C589.3 156.6 574.4 166.7 567.1 169.8C557.3 173.9 554.6 174.8 549.4 175.5C538.5 177 528.4 161.5 528.4 161.5L522.1 142.1C522.1 142.1 529.6 134.9 531.1 123.5C532.6 112.2 532.6 96.7 532.6 96.7L578.4 116.5L584.3 114.6Z" fill="#E29C9C"/>
<path d="M578.499 449.4C578.499 449.4 583.899 463.3 587.199 474.2C590.599 485.1 594.899 505.7 594.899 505.7C594.899 505.7 594.099 517.3 588.299 518.5C582.399 519.6 578.599 512.6 578.599 512.6C578.599 512.6 574.299 515.1 571.399 514.9C568.499 514.6 567.099 512.4 567.099 512.4C567.099 512.4 563.499 515.8 561.499 515.2C559.499 514.6 557.899 513.5 557.899 513.5C557.899 513.5 554.099 517.5 552.699 516.6C551.299 515.8 549.499 514.1 549.499 514.1C549.499 514.1 545.399 514.1 545.699 506.8C545.899 499.5 550.199 486.8 551.099 473.8C551.999 460.8 546.599 449.3 546.599 449.3L571.899 439.1L578.499 449.4Z" fill="#E5A8A8"/>
<path d="M679.998 245.6C679.998 245.6 659.198 219.3 648.298 202.2C637.398 185.1 622.098 159.9 616.498 159C610.798 158.1 607.998 186 607.498 194.5C606.998 203 624.999 231.5 636.399 246.6C647.799 261.8 667.198 293 678.098 296.4C688.998 299.7 697.098 299.2 700.798 295C704.598 290.7 706.499 286 707.399 283.2C708.299 280.4 711.698 265.7 714.498 234.9C717.298 204.1 719.698 179.9 721.598 164.8C723.498 149.6 725.399 139.7 725.399 139.7L700.298 140.2C700.298 140.2 695.398 178.3 688.698 205.2C683.398 226.1 679.998 245.6 679.998 245.6Z" fill="#F2C2C2"/>
<path d="M273.199 128.3L278.899 159.1L174.599 247.4L147.699 258.4L227.299 150.8L259.199 134.9L273.199 128.3Z" fill="#BFE2EF"/>
<path d="M141.499 267.3L366.599 192C366.599 192 384.099 189.3 373.899 181.2C363.699 173 297.699 138.5 297.699 138.5L149.399 252.8L273.099 128.4L225.599 107.6C225.599 107.6 216.999 101.3 209.899 115.2C202.299 130.2 136.499 256.4 134.899 260.8C133.299 265.2 134.599 267.1 135.799 267.7C137.199 268.4 141.499 267.3 141.499 267.3Z" fill="white"/>
<path d="M598.598 22.0999C598.598 22.0999 614.998 41.8999 612.298 60.7999C609.698 79.7999 599.998 102.2 597.298 106.2C594.698 110.2 580.998 122.5 562.898 125.6C544.798 128.7 539.498 124.4 534.298 116.9C529.098 109.5 525.898 98.0999 525.898 98.0999C525.898 98.0999 514.698 60.2999 536.998 36.4999C559.298 12.6999 582.398 13.7999 587.698 15.2999C592.998 16.7999 598.598 22.0999 598.598 22.0999Z" fill="#F2C2C2"/>
<path d="M561.299 49.4999C561.299 49.4999 563.199 53.8999 562.999 57.4999C562.799 60.9999 561.999 63.0999 560.499 66.0999C558.999 69.0999 552.599 78.1999 550.699 80.1999C548.799 82.1999 552.599 83.7999 552.599 83.7999C552.599 83.7999 548.999 88.0999 547.399 89.1999C545.699 90.2999 543.899 92.4999 543.899 92.4999C543.899 92.4999 546.699 101.2 547.999 104C549.299 106.8 545.199 108.4 543.599 111.4C541.899 114.4 542.099 119.7 542.899 121C543.599 122.3 543.999 125.7 543.999 125.7C543.999 125.7 536.199 121.8 532.099 112.9C528.999 106 525.699 96.5999 525.699 96.5999L529.599 64.6999L535.199 46.8999L541.899 38.8999L552.099 44.8999L558.599 47.1999L561.299 49.4999Z" fill="#E09D9D"/>
<path d="M560.3 82.4999C560 81.8999 555.7 80.4999 554.7 80.0999C554.5 79.9999 551.4 81.1999 549.8 81.1999C549.2 81.7999 549.7 82.9999 550.2 83.6999C550.7 84.3999 551.8 84.7999 552.6 85.1999C556 86.9999 559.2 88.1999 563 88.7999C564.6 88.9999 565.4 87.8999 565.6 86.4999C565.8 85.1999 565.8 85.8999 564.7 85.7999C563.6 85.7999 563.4 86.1999 562.4 85.3999C561.3 84.4999 560.9 83.5999 560.3 82.4999Z" fill="#CE7676"/>
<path d="M557.699 60C557.699 60 551.199 60.9 546.499 58.5C541.699 56.1 540.299 50.1 540.299 50.1C540.299 50.1 541.699 48.9 544.799 49.5C547.799 50.1 552.899 51.1 554.299 53.1C555.499 55.1 557.699 60 557.699 60Z" fill="white"/>
<path d="M552 54.9001C552 57.2001 550.1 59.1001 547.8 59.1001C545.5 59.1001 543.6 57.2001 543.6 54.9001C543.6 52.6001 545.5 50.7001 547.8 50.7001C550.1 50.6001 552 52.5001 552 54.9001Z" fill="#38687F"/>
<path d="M575.998 441.6C575.998 441.6 526.398 392.6 489.498 360.5C452.698 328.4 412.798 292.5 391.398 285.4C370.898 278.6 357.898 295.6 357.898 306.7C357.898 317.8 364.298 330.1 374.898 342.9C385.398 355.8 420.298 389 468.398 419.3C493.698 435.3 549.398 457.6 549.398 457.6L575.998 441.6Z" fill="#5757CE"/>
<path d="M569.899 94.1001C569.899 94.1001 574.099 101.1 575.199 103.5C576.299 105.9 568.999 109.4 568.999 109.4C568.999 109.4 569.599 105.2 569.099 102.9C568.499 100.6 569.899 94.1001 569.899 94.1001Z" fill="#E29A9A"/>
<path d="M567.599 103.3C567.599 103.3 561.799 107 555.299 105.4C548.799 103.8 545.999 100.9 544.199 98.1001C542.299 95.3001 541.799 92.3 541.799 92.3L554.199 97.4L563.499 100.1L567.599 103.3Z" fill="white"/>
<path d="M572.599 102.6C572.599 102.6 565.499 99.0999 560.499 95.5999C556.199 92.5999 551.799 91.0999 547.199 90.6999C542.799 90.1999 538.699 90.4999 538.699 90.4999C538.699 90.4999 543.299 93.6999 552.299 97.2999C560.699 100.6 563.399 103.1 566.499 103.6C569.599 103.9 572.599 102.6 572.599 102.6Z" fill="#CE2828"/>
<path d="M568.2 104.3C568.2 104.3 561.6 110.4 555.8 110.7C550.4 111 546 108.8 544.2 105.7C542.4 102.6 541.6 98.6999 541.1 96.2999C540.6 93.7999 540.7 90.3999 540.7 90.3999C540.7 90.3999 544.3 101.5 552.2 103.9C560.1 106.2 567.5 102.5 567.5 102.5L570 103L568.2 104.3Z" fill="#E24444"/>
<path d="M562.999 104.4C562.999 104.4 554.799 102 550.699 100.1C546.599 98.2001 543.199 96.1001 543.199 96.1001C543.199 96.1001 545.799 101.9 551.799 104.3C556.299 106.2 562.999 104.4 562.999 104.4Z" fill="#3A1414"/>
<path d="M586.299 96.3999C585.799 96.6999 585.199 97 584.899 97.5C584.599 97.9 584.099 98.4999 584.399 98.8999C588.299 105.3 599.399 107.1 603.699 102.3C607.999 97.4 597.699 99.8 600.099 93.8C601.099 91.2 602.099 88.6 603.099 86.1C604.999 81 606.899 75.7 607.199 70.2C606.799 72.7 605.199 74.8 604.099 77.1C602.899 79.8 601.299 82.4 599.599 84.7C595.999 89.4 591.499 93.3999 586.299 96.3999Z" fill="#EDA6A6"/>
<path d="M578.798 124C578.798 124 558.398 138.8 550.798 139.7C543.198 140.6 537.798 128.6 536.298 125.9C533.898 121.5 531.898 111 531.898 111.9C531.898 111.9 538.298 125.9 552.098 125.6C562.698 125.3 582.298 117.1 582.298 117.1L578.798 124Z" fill="#C47272"/>
<path d="M597.298 265.8C597.298 265.8 576.698 268.5 556.498 266.6C536.298 264.7 524.398 262.4 504.598 264C484.798 265.5 474.898 261.4 474.898 261.4C474.898 261.4 481.198 275 481.598 281.8C481.998 288.6 515.998 299.6 543.798 301.5C571.498 303.4 589.698 274.3 589.698 274.3L597.298 265.8Z" fill="#D11C1C"/>
<path d="M550.999 49.6C549.199 48.9 546.199 48.5 544.399 48C542.599 47.5 540.699 46.7 539.399 45C538.899 46.7 539.699 48.7 540.999 49.7C542.199 50.8 543.598 50.9 545.098 51.4C547.398 52.2 549.699 53.1 551.799 54.4C553.999 55.7 556.299 58.7 557.799 60.2C557.999 55.8 554.199 50.7 550.999 49.6Z" fill="#141433"/>
<path d="M549.698 54.0001C549.698 55.3001 548.598 56.4001 547.298 56.4001C545.998 56.4001 544.898 55.3001 544.898 54.0001C544.898 52.7001 545.998 51.6001 547.298 51.6001C548.598 51.6001 549.698 52.7001 549.698 54.0001Z" fill="#141433"/>
<path d="M572.998 61.9C572.198 64.6 572.398 67.6 573.998 69.9C574.198 70.1 574.398 70.4 574.698 70.5C574.998 70.6 575.298 70.4 575.498 70.4C577.298 69.8 579.198 71 580.898 71.8C584.698 73.7 588.998 74.3 593.298 74.4C595.698 74.4 598.198 74.3 600.398 73.3C602.598 72.3 604.398 70.2 604.498 67.7C604.598 65.5 603.098 63.4 601.498 61.8C597.998 58.3 593.198 56 588.198 55.6C586.298 55.4 584.298 55.5 582.398 55.2C580.998 55 579.398 54.2 577.998 54.4C575.398 54.6 573.698 59.6 572.998 61.9Z" fill="#E8A6A6"/>
<path d="M595.498 73.7C595.498 73.7 589.398 67.3 585.598 65.4C581.798 63.5 578.098 63.9 576.898 64.2C575.698 64.4 573.898 65.4 573.898 65.4C573.898 65.4 576.598 69.6 580.598 71.6C586.298 74.4 595.498 73.7 595.498 73.7Z" fill="white"/>
<path d="M586.198 68.1C586.098 70.4 584.198 72.2 581.998 72.2C579.698 72.1 577.998 70.1 578.098 67.8C578.198 65.5 580.098 63.7 582.298 63.7C584.598 63.8 586.298 65.8 586.198 68.1Z" fill="#38687F"/>
<path d="M604.699 68.2C604.699 68.2 597.399 60.3 590.199 57.3C583.199 54.4 576.199 53.8 576.199 53.8C576.199 53.8 577.999 51.4 581.699 51.4C585.399 51.3 591.599 53.1 594.699 54.8C603.899 59.9 604.699 68.2 604.699 68.2Z" fill="#935B28"/>
<path d="M586.499 63.1001C592.599 64.6001 595.899 71.2001 601.099 71.9001C600.299 72.9001 597.699 73.8001 596.399 74.1001C595.099 74.4001 591.399 70.8001 590.399 69.9001C587.999 67.7001 585.899 66.3001 582.899 65.7001C581.599 65.4001 575.599 64.7001 573.799 65.3001C574.099 62.9001 580.299 61.6001 586.499 63.1001Z" fill="#141433"/>
<path d="M583.999 67.5001C583.999 68.8001 582.899 69.9001 581.599 69.9001C580.299 69.9001 579.199 68.8001 579.199 67.5001C579.199 66.2001 580.299 65.1001 581.599 65.1001C582.899 65.1001 583.999 66.2001 583.999 67.5001Z" fill="#141433"/>
<path d="M586.998 70.3C586.998 71.1 586.298 71.8 585.498 71.8C584.698 71.8 583.998 71.1 583.998 70.3C583.998 69.5 584.698 68.8 585.498 68.8C586.298 68.8 586.998 69.5 586.998 70.3Z" fill="white"/>
<path d="M553.1 57.2C553.1 58 552.4 58.7 551.6 58.7C550.8 58.7 550.1 58 550.1 57.2C550.1 56.4 550.8 55.7 551.6 55.7C552.4 55.7 553.1 56.3 553.1 57.2Z" fill="white"/>
<path d="M579.899 67.7001C579.899 68.0001 579.599 68.3001 579.299 68.3001C578.999 68.3001 578.699 68.0001 578.699 67.7001C578.699 67.4001 578.999 67.1001 579.299 67.1001C579.699 67.1001 579.899 67.3001 579.899 67.7001Z" fill="white"/>
<path d="M546.3 53.9C546.3 54.2 546 54.5 545.7 54.5C545.4 54.5 545.1 54.2 545.1 53.9C545.1 53.6 545.4 53.3 545.7 53.3C546.1 53.3 546.3 53.6 546.3 53.9Z" fill="white"/>
<path d="M545.299 173.7C544.199 173.3 542.999 172.7 541.799 172.8C542.399 175.4 543.699 177.9 545.299 179.9C545.799 180.5 546.399 181.1 547.199 181.2C547.699 181.2 548.299 181 548.799 180.8C550.899 179.7 552.599 178.1 553.899 176.1C555.399 173.6 553.999 173.1 552.199 173.4C549.699 173.7 548.099 174.7 545.299 173.7Z" fill="#D18686"/>
<path d="M584.699 153.8C584.699 153.8 577.299 161.7 570.199 165.6C563.099 169.4 557.799 173.4 557.799 173.4C557.799 173.4 574.499 167.8 582.199 165.3C589.899 162.8 598.499 157 598.499 157L587.699 150.6L584.699 153.8Z" fill="#D18686"/>
<path d="M515.099 152.2C515.099 152.2 522.499 160.1 529.599 164C536.699 167.8 539.699 172.8 539.699 172.8C539.699 172.8 525.399 166.2 517.699 163.7C509.999 161.2 507.299 154.9 507.299 154.9L512.299 149L515.099 152.2Z" fill="#D18686"/>
<path d="M586.199 19C586.199 19 569.599 16 558.699 23.4C546.199 32 535.099 55.7 531.499 65.4C527.999 75.1 528.499 87.2 528.499 101.2C528.499 114.7 531.499 131.5 533.599 143.3C535.699 155.1 536.599 161.7 525.899 171.3C517.799 178.5 516.399 181.8 515.099 186.9C513.799 192.2 527.299 203.9 528.399 212.5C530.199 226.3 523.499 232.3 517.699 237.4C514.299 240.3 496.599 245.5 496.599 245.5C496.599 245.5 505.599 229.5 504.399 221.9C503.199 214.3 495.599 212.6 493.899 200.6C492.099 188.6 495.999 180.9 500.699 175.9C505.399 170.9 505.699 154.8 501.399 144.5C497.699 135.7 491.199 131.3 501.599 118.3C509.399 108.6 514.599 94.3 515.499 86.4C516.399 78.5 522.999 16.9 556.099 4C581.499 -5.9 594.899 6.7 594.899 6.7L586.199 19Z" fill="#935E2E"/>
<path d="M698.699 90.2999L686.299 79.4999C685.999 79.1999 685.599 79.1999 685.299 79.3999L627.299 110C627.099 110.1 626.299 110.5 626.099 110.6C622.799 112.1 621.699 114.3 626.599 114.8C632.299 115.3 713.799 113.6 719.199 112.5C724.599 111.4 713.599 104.3 708.699 98.7999C704.099 93.5999 699.299 90.6999 698.799 90.2999C698.799 90.2999 698.699 90.2999 698.699 90.2999Z" fill="white"/>
<path d="M562.298 55.4C561.898 52.6 560.998 50.8 558.498 49.5C559.598 52.5 559.898 55.6 559.298 58.8C558.698 61.9 557.498 64.9 556.298 67.8C555.898 69.3 554.198 73.6 552.998 76.8C555.698 73.9 557.798 70.9 559.798 67.3C561.698 63.7 562.898 59.5 562.298 55.4Z" fill="#DB8282"/>
<path d="M584.298 19.1C584.298 19.1 570.098 22.7 562.898 28.2C555.698 33.7 550.998 41.1 550.998 41.1L543.998 41.5C543.998 41.5 548.998 31.2 560.498 24.9C571.998 18.6 582.698 18.5 582.698 18.5L584.298 19.1Z" fill="#E8A6A6"/>
<path d="M562.199 52.2001C562.199 52.2001 556.599 45.7001 551.799 43.6001C546.999 41.5001 540.199 40.1001 540.199 40.1001C540.199 40.1001 546.699 37.9001 552.999 40.1001C557.699 41.8001 560.599 44.9001 561.999 47.0001C562.399 47.6001 562.699 48.7001 562.599 49.4001L562.199 52.2001Z" fill="#935B28"/>
<path d="M512.098 156.7C508.998 162.4 504.598 167.3 500.898 172.7C497.298 178.1 494.298 184.4 494.698 190.9C495.398 201.1 503.898 208.7 511.698 215.2C507.498 205 505.398 193.5 508.898 183.1C511.998 173.8 519.098 166.3 522.798 157.3C526.798 147.5 526.498 136 521.998 126.4C519.098 120.3 514.798 114.9 513.798 108.1C512.398 116.4 515.698 123.2 516.698 131.2C517.898 139.8 516.298 148.9 512.098 156.7Z" fill="#AA6D3F"/>
<path d="M698.1 88.1001L629.6 111.2L708.4 96.3001L698.5 91.0001L698.1 88.1001Z" fill="#BED9ED"/>
<path d="M686.799 92.2C693.199 92.6 700.9 92.3 701.9 94.3L707.999 97.6L707.599 87.7C707.199 86.8 706.8 86 706.4 85.5C705.2 83.6 702.499 82.6 699.199 83C695.899 83.4 685.799 82.8 683.699 82.8C681.599 82.8 678.499 82.6 678.299 84.7C678.099 86.9 680.299 91.8 686.799 92.2Z" fill="#F2C2C2"/>
<path d="M701.299 104.2C698.799 108.1 699.299 113.2 697.199 117.3C699.099 118.7 701.799 117.5 703.599 116C705.399 114.5 704.899 115.1 705.899 113C708.099 115.5 717.499 111.9 720.699 112.5C725.999 113.6 726.799 118.9 728.599 124C731.699 120.5 732.199 115.2 730.599 110.8C728.399 105 721.899 99.9 716.599 96.9C711.399 93.9 704.699 98.9 701.299 104.2Z" fill="#F2C2C2"/>
<path d="M714.799 104.4C713.599 104.9 712.299 105.4 711.199 106.2C709.399 107.6 706.799 110.8 705.799 112.8C705.499 110.4 707.699 106.9 709.199 105C710.599 103.1 712.599 101.7 714.799 100.7C721.899 97.3999 722.299 94.5999 722.499 94.4999C722.999 94.1999 725.099 98.1999 726.599 98.7999C729.999 100.1 731.799 103.7 733.099 106.9C731.899 104.2 730.799 101.6 727.699 100.8C723.599 99.7999 718.599 102.9 714.799 104.4Z" fill="#EA8C8C"/>
<path d="M708.8 96.7C708.6 96.9 708.4 97.1 708.1 97.1C708 97.1 707.7 97.9 707.5 97.9C704.5 96 702.1 93.2 698.6 92.8C695.4 92.4 689 92.6 685.8 92.1C682.4 91.6 680.5 90.3 679.6 87C685.6 89.8 694.4 88.6 700.9 90.3C702.9 90.9 704.9 91.6 707 92.1C708.9 92.6 710.8 92.3 712.6 92.6C712 94.1 709.9 95.6 708.8 96.7Z" fill="#EA8C8C"/>
<path d="M721.099 112.4C723.299 113.3 725.099 116.6 725.099 116.6C725.799 113.9 713.499 127.2 711.599 132.1C713.899 131.2 717.599 126 719.499 124.5C723.199 121.5 727.899 118.1 730.599 116.2C730.999 115.9 731.299 115.5 731.299 115C731.299 114.5 730.899 114.1 730.399 113.8C728.099 112 725.799 110.2 723.499 108.4C723.199 108.2 722.899 107.9 722.499 107.9C722.199 107.9 721.899 108.3 721.599 108.3C718.399 108.8 712.899 112 707.799 112.3C707.899 113.1 708.899 113.9 710.399 113.8C712.199 113.9 719.999 112 721.099 112.4Z" fill="#D37A7A"/>
<path d="M691.299 131.4C691.299 131.4 701.699 143 704.599 144.6C707.399 146.2 708.199 156.5 702.499 178.8C699.899 189.3 680.199 239.7 680.199 239.7C680.199 239.7 693.499 182.9 694.799 169.7C696.099 156.6 697.999 149.7 696.499 145.4C694.999 141 691.299 131.4 691.299 131.4Z" fill="#EF9C9C"/>
<path d="M560.399 79.7001C559.299 79.8001 558.299 79.6001 557.299 79.0001C556.799 78.7001 556.299 78.3001 556.099 77.7001C555.899 77.1001 555.999 76.4001 556.499 76.1001C556.699 76.0001 556.799 75.9001 556.999 75.9001C558.299 75.6001 559.799 76.2001 560.699 77.1001C561.599 78.0001 562.099 79.6001 560.399 79.7001Z" fill="#FFDEDE"/>
<path d="M585.998 61.3C587.898 61.3 589.298 61.2 591.098 61.8C594.198 62.7 595.598 64.1999 596.198 65.3999C596.798 66.5999 596.998 68 597.098 69.3C597.098 68.9 595.598 67.2999 595.298 66.8999C594.498 65.9999 593.598 65.0999 592.598 64.3999C590.598 62.9999 588.398 61.9 585.998 61.3Z" fill="#C67171"/>
<path d="M546.299 47.4C547.999 46.9 550.499 46.9 552.299 47.3C553.599 47.6 554.399 48.6 554.599 49C555.299 50.2 555.999 51.7 555.999 53.1C554.699 51.8 554.099 50.5 552.499 49.6C550.099 48.2 548.299 47.6 546.299 47.4Z" fill="#C67171"/>
<path d="M537.498 93.2C539.198 92.3 540.898 91.5 542.598 90.6C542.698 90.5 542.798 90.5 542.898 90.4C542.998 90.3 542.898 90.1 542.898 90C542.698 89.4 542.498 87.4 541.898 87.1C541.298 86.9 540.098 88 539.698 88.4C538.998 89.1 538.498 89.8 538.098 90.7C537.998 91 537.598 93.1 537.498 93.2Z" fill="#CE7676"/>
<path d="M586.398 18.8C586.398 18.8 573.598 18.2 561.498 24.9C549.498 31.6 543.698 45.6 540.698 51.9C537.698 58.2 533.698 62.2 531.398 70.8C527.498 85.6 536.198 117.5 540.298 134.2C542.598 143.7 542.598 147.9 540.798 154.8C538.798 162.5 528.998 169.3 528.998 169.3C528.998 169.3 539.598 152.4 529.498 127.6C522.698 110.8 515.098 75.2 520.298 58.8C525.498 42.4 531.898 27.7 558.998 19.4C571.698 15.5 586.698 17.6 586.698 17.6L586.398 18.8Z" fill="#703F1D"/>
<path d="M552.6 164C558.6 161 564.5 158.1 570.5 155.1C571 154.8 571.5 154.6 571.9 154.1C572.5 153.4 572.6 152.5 572.6 151.6C572.9 147.4 573.4 143.1 574.2 138.9C574.8 135.7 576.3 131.8 576.1 128.6C572.1 130.1 568.7 138.5 566.6 142C562 149.4 557.4 156.7 552.6 164Z" fill="#F2AFAF"/>
<path d="M477.098 200.2C477.098 200.2 480.698 195.8 482.098 186.8C483.498 177.8 479.198 162 479.198 162C479.198 162 478.098 178.5 474.198 180C470.198 181.4 464.098 177.5 464.098 177.5L462.998 194.9C462.998 194.9 468.498 194.9 471.198 194.9C476.498 194.9 477.098 200.2 477.098 200.2Z" fill="#D61E1E"/>
<path d="M564.299 289.7C564.299 289.7 583.599 312.7 591.299 327.6C598.299 341.1 602.799 358.8 602.799 358.8L607.799 351.1C607.799 351.1 595.799 320.4 592.699 312.9C589.499 305.4 587.499 291.7 589.099 285.8C590.699 279.8 595.699 274.2 598.999 270.7C601.499 268.1 604.799 260.8 604.799 260.8L589.499 270.7L564.299 289.7Z" fill="#D11C1C"/>
<path d="M462.999 194.9L464.099 177.5C464.099 177.5 440.699 208.8 429.699 227.6C418.699 246.4 410.799 254.4 410.799 254.4C410.799 254.4 416.299 255.6 421.499 258.8C426.899 262.1 429.899 267.3 429.899 267.3C429.899 267.3 432.499 252.4 438.399 239C444.299 225.5 462.999 194.9 462.999 194.9Z" fill="#E09D9D"/>
<path d="M677.098 253.5C677.098 253.5 671.298 269.1 670.898 275.8C670.498 282.5 671.298 294.1 671.298 294.1C671.298 294.1 652.998 268.7 642.298 254.4C631.598 240.1 626.398 231.6 626.398 231.6C626.398 231.6 615.298 210.1 623.798 202.5C632.398 194.9 635.798 191 635.798 191L675.698 246.8L677.098 253.5Z" fill="#F2AFAF"/>
<path d="M679.998 245.6L674.598 261.4C674.598 261.4 655.998 233.7 650.298 219.7C644.598 205.7 635.898 189.8 635.898 189.8L638.198 186C638.198 186 658.498 218 665.698 226.3C672.898 234.7 679.998 245.6 679.998 245.6Z" fill="#E28D8D"/>
<path d="M722.699 144.2C722.699 144.2 718.799 158.8 717.899 164.3C716.999 169.8 710.699 217 708.999 240.8C707.299 264.6 702.199 287.1 702.199 287.1C702.199 287.1 709.399 277.3 712.799 248.4C716.199 219.5 719.599 173.2 719.599 173.2L722.699 144.2Z" fill="#FFDEDE"/>
<path d="M543.499 434C543.499 434 472.999 397.7 440.199 376.2C407.499 354.7 390.599 326.1 383.999 322C377.399 317.9 361.499 299 361.999 295.4C362.499 291.8 357.399 318.4 379.399 345.5C401.399 372.6 459.699 413 478.099 422.7C496.499 432.4 528.199 446.3 528.199 446.3L543.499 434Z" fill="#4A4ABC"/>
<path d="M423.798 260.2C423.798 260.2 458.398 297.7 474.798 315C491.198 332.3 502.298 346.8 502.298 346.8C502.298 346.8 491.698 350 486.998 352.8C482.298 355.6 481.298 363.2 481.298 363.2C481.298 363.2 465.198 339.7 437.498 318.1C419.798 304.2 385.298 286.4 382.498 275.7C379.698 264.9 387.098 254.1 388.498 253.6C389.898 253.1 399.698 251.7 412.098 254.8C414.898 255.5 423.798 260.2 423.798 260.2Z" fill="#F2C2C2"/>
<path d="M489.598 330.9C495.298 334.9 507.598 350.5 511.398 360.1C515.198 369.7 520.898 379 521.498 385.5C521.998 392 522.198 407.4 521.898 410.8C521.698 413.7 520.498 423.4 520.098 426.2C519.998 426.7 519.498 427.1 518.998 426.9C518.098 426.7 516.798 426.3 515.898 424.1C513.798 419.1 513.898 409.8 513.898 409.8C513.898 409.8 509.498 420.3 508.098 423.7C506.698 427.1 505.898 433.4 503.398 432.5C500.598 431.6 501.098 426.3 501.598 423.2C502.098 420.1 503.498 408.3 503.498 408.3C503.498 408.3 497.898 420.4 496.498 422.5C495.098 424.6 492.298 427.8 491.098 425.5C489.098 421.7 495.398 405.1 495.398 405.1C495.398 405.1 487.098 416.1 486.098 415.7C483.498 414.4 487.598 405.1 488.698 397.9C489.798 390.6 489.598 388.9 489.598 388.9C489.598 388.9 480.798 377.6 479.198 368.7C477.598 359.9 479.298 344.5 477.398 342.7C475.498 340.9 463.398 327.9 463.398 327.9L488.698 332.4C488.598 332.2 487.198 329.2 489.598 330.9Z" fill="#F2C2C2"/>
<path d="M389.299 282.7C398.799 290.4 421.099 299 439.799 311.8C458.499 324.6 475.699 341 478.199 345.9C480.699 350.8 480.799 366.9 480.799 366.9C480.799 366.9 477.699 356.7 463.399 342.6C448.299 327.7 395.099 294.9 386.699 286.5C378.299 278.1 382.499 270.9 382.499 270.9C382.499 270.9 385.299 279.5 389.299 282.7Z" fill="#E09D9D"/>
<path d="M495.399 405.3C495.399 405.3 489.099 421.9 491.099 425.7C492.299 428 495.199 424.8 496.499 422.7C497.899 420.6 503.499 408.5 503.499 408.5C503.499 408.5 502.099 420.3 501.599 423.4C501.099 426.5 500.599 431.7 503.399 432.7C505.899 433.6 506.799 427.2 508.099 423.9C509.499 420.5 513.899 410 513.899 410C513.899 410 513.799 419.3 515.899 424.3C516.799 426.5 518.099 426.8 518.999 427.1C519.499 427.2 520.099 426.9 520.099 426.4C520.499 423.5 521.699 413.8 521.899 411C521.999 409.2 522.199 402.9 522.199 396.4C513.099 394.9 498.199 392.2 489.599 389.3C489.599 390 489.599 392.3 488.699 398.1C487.599 405.4 483.599 414.7 486.099 415.9C487.099 416.3 495.399 405.3 495.399 405.3Z" fill="#E09D9D"/>
<path d="M482.399 351.2C482.399 351.2 483.399 363.8 487.999 372.3C492.599 380.8 495.799 393.8 495.799 393.8L491.399 394.2C491.399 394.2 482.899 385.2 480.299 373.7C477.799 362.2 477.799 351.8 477.799 351.8L477.999 343.6L482.399 351.2Z" fill="#E09D9D"/>
<path d="M497.999 383.5C497.999 383.5 497.499 396.4 495.499 401.2C493.499 406 490.799 411.4 490.799 411.4C490.799 411.4 498.999 404.2 499.999 400.8C501.299 396.7 497.999 383.5 497.999 383.5Z" fill="#C47272"/>
<path d="M503.6 410.2C505.6 407 507.3 403.8 508.9 400.4C509.5 399.1 510.1 397.8 510.3 396.4C510.5 394.6 510.1 392.8 509.6 391.1C509.1 389.1 508.5 387.2 507.8 385.2C507.7 389 508.2 392.2 507.5 395.9C506.6 400.8 505.1 405.5 503.6 410.2Z" fill="#C47272"/>
<path d="M514.399 409.4C513.999 410.7 513.599 412 513.699 413.4C513.699 414.9 514.199 416.4 514.699 417.8C515.399 419.6 516.099 421.5 517.399 423C517.699 417.6 517.999 412.2 518.199 406.8C518.299 404.2 518.499 401.5 518.599 398.9C518.699 397.1 519.399 394.2 518.699 392.5C517.199 393.6 516.999 396.8 516.799 398.5C516.199 402.1 515.399 405.8 514.399 409.4Z" fill="#C47272"/>
<path d="M502.498 350.5C502.498 350.5 454.798 298.5 444.598 285.6C434.598 272.9 429.998 267.3 429.998 267.3C429.998 267.3 479.598 318.8 488.698 327.9C497.798 337 504.898 345.7 507.998 353.2C510.698 359.8 519.898 378.5 521.298 381.9C522.598 385.3 522.098 397.3 522.098 397.3C522.098 397.3 519.298 387.9 516.698 380.6C514.198 373.7 502.498 350.5 502.498 350.5Z" fill="#FFDEDE"/>
<path d="M542.999 469.9L528.599 480.7C528.599 480.7 527.199 508.6 528.299 513.9C529.399 519.2 529.099 524.7 526.599 528.3C524.099 531.9 518.599 532.1 516.099 532.1C513.599 532.1 510.199 533.9 507.299 533C504.399 532.1 501.099 530.8 501.099 530.8C501.099 530.8 497.499 535.3 494.599 534.8C491.699 534.4 489.499 534 489.499 534C489.499 534 485.999 537.4 480.899 537.2C474.299 536.8 475.299 524.2 477.399 518.4C479.599 512.6 488.899 482.4 490.999 473.5C493.099 464.6 503.999 453.9 503.999 453.9L531.199 439.6L542.999 469.9Z" fill="#F2C2C2"/>
<path d="M542.098 471.6C542.098 471.6 613.998 419.2 641.098 401.9C668.198 384.6 699.298 357.5 709.098 340.8C718.898 324.1 716.798 303.2 700.598 293.4C681.198 281.7 647.598 310.9 637.198 321.2C626.798 331.6 575.398 385.1 557.598 402.9C539.698 420.8 524.198 441.5 524.198 441.5C524.198 441.5 523.498 455.9 531.198 463.9C537.398 470.6 542.098 471.6 542.098 471.6Z" fill="#5757CE"/>
<path d="M708.598 314.8C708.598 314.8 701.498 332.3 691.598 339.4C681.698 346.5 674.098 348.2 674.098 348.2C674.098 348.2 658.198 375 649.498 381.1C640.698 387.1 601.298 415.1 585.998 425.5C570.698 435.9 533.398 467.1 533.398 467.1L542.098 471.6C542.098 471.6 615.198 421.1 641.098 401.9C666.998 382.7 698.198 358.6 705.898 346.6C713.598 334.6 714.898 322.7 714.898 318.1C714.898 313.5 708.998 305.5 708.998 305.5L708.598 314.8Z" fill="#4A4ABC"/>
<path d="M708.998 305.5C708.998 305.5 698.698 293.2 678.498 303.8C658.298 314.4 631.798 335.1 610.098 358.7C588.398 382.3 524.998 447.2 524.998 447.2L524.398 442.8C524.398 442.8 620.098 331.7 641.598 314.6C663.198 297.5 678.498 286.6 694.198 290.7C709.698 294.9 708.998 305.5 708.998 305.5Z" fill="#7878F4"/>
<path d="M522.499 468.3C519.899 466.2 519.199 466.3 516.599 464.2C524.099 480.7 524.499 499.8 524.699 518.1C524.699 520 524.699 521.9 523.899 523.6C523.199 525.1 521.799 526.2 520.499 527.1C519.199 527.9 517.799 528.7 516.299 528.6C514.799 528.5 513.299 527.3 513.199 525.7C512.199 526.9 511.599 528.4 511.599 530C508.899 530.2 506.299 530.4 503.599 530.6C503.699 529.1 503.299 527.5 502.499 526.2C499.499 530.7 498.299 534.1 493.299 532.6C492.699 529 491.199 524.2 491.299 520.6C490.299 522.6 484.799 531.2 482.999 532.5C481.299 533.8 478.499 533.5 477.499 531.6C476.899 530.3 477.099 528.8 477.399 527.4C481.499 507.5 491.499 488.9 492.499 468.6C487.599 487.8 483.199 501 476.299 519.4C474.799 523.5 472.699 534.5 475.299 537.9C476.799 539.8 479.299 540.6 481.599 540.5C483.899 540.4 486.199 539.5 488.399 538.5C491.299 537.2 494.099 535.9 496.799 534.4C497.699 533.9 498.499 533.5 499.499 533.2C501.699 532.5 503.999 532.9 506.299 533.1C513.599 533.9 521.499 533.5 527.799 528.6C529.299 512.3 530.099 499.4 528.799 483C528.699 482 528.699 481 529.099 480.2C529.499 479.5 537.199 473.6 540.699 471.8C536.399 470.6 530.599 464.6 530.599 464.6C530.599 464.6 523.199 468.8 522.499 468.3Z" fill="#E09D9D"/>
<path d="M578.9 461.1C580.3 464.3 581.8 467.6 582.7 471C583.8 475.3 584 479.7 584.3 484.2L585.2 502.8C585.2 503.7 585.3 504.7 584.7 505.4C584.1 506.2 583 506.3 582 506.3C571.7 506.8 561.4 506.1 551.2 504.2C550.7 504.1 550.1 504 549.8 503.6C549.3 503 549.3 502.1 549.4 501.3L553.8 468.3L546.3 496C545.2 500.1 544.1 504.4 545 508.5C545.9 512.6 549.5 516.5 553.6 516C554.7 515.9 555.9 516.1 556.9 515.8C558.5 515.3 560.9 515.5 562.5 515.2C566 514.5 568.7 514.4 572.3 514.3C574.6 514.3 577 513.4 579 514.5C581 515.7 580.8 516.4 582.8 517.5C590.2 521.8 595.5 512.7 595.4 509.1C594.8 487.8 584 468.8 578 448.4C576.3 448.7 576 449.9 574.3 450.1C577.3 451.9 577.6 458.2 578.9 461.1Z" fill="#CE8989"/>
<path d="M550.399 487.6C549.899 481.4 553.199 473 552.699 466.7C552.699 466.4 552.699 466.1 552.799 465.8C552.999 465.4 570.599 454.1 577.399 448C575.899 449.3 579.199 459.6 578.399 461.9C577.499 464.3 574.099 465.7 572.199 467.2C565.499 472.4 555.699 480.9 550.399 487.6Z" fill="#CE8989"/>
<path d="M506.799 467.4C500.699 469.3 493.699 476.6 489.299 483.1C490.199 472.7 490.499 470.6 496.199 461.9C498.199 458.8 504.299 453.1 505.299 452.6C512.799 448.2 518.899 446.7 525.299 442.4C524.699 449.3 526.299 459.7 531.599 464.2C529.399 465.6 523.399 467.3 523.399 467.3C523.399 467.3 519.599 466.6 518.099 464C519.299 468.3 521.999 473.7 522.199 478.2C518.899 474 511.299 466 506.799 467.4Z" fill="#F2AFAF"/>
<path d="M585.199 18.2999C585.199 18.2999 591.499 21.2999 596.999 27.9999C601.699 33.8999 605.499 42.9999 606.399 49.9999C608.299 65.0999 602.599 81.6999 598.799 94.1999C594.999 106.7 574.599 118.7 575.899 139.1C576.999 155.6 600.399 173.8 585.999 197.5C579.099 208.9 577.399 219 580.799 226.6C584.199 234.2 600.399 232.7 604.499 240.8C607.299 246.3 604.499 250.5 602.399 256.8C600.699 261.7 594.699 269.9 594.699 269.9C594.699 269.9 614.699 263.1 621.499 256C628.299 248.8 629.899 239 626.499 230.5C621.899 218.9 619.099 209.5 624.399 203.5C629.699 197.5 639.199 193.3 643.299 169.9C647.499 146.5 636.799 125.3 633.799 109C630.799 92.7999 663.799 56.6999 620.799 14.2999C608.099 1.79991 592.499 6.79991 592.499 6.79991L585.199 18.2999Z" fill="#935E2E"/>
<path d="M604.598 187C613.598 185.8 619.398 176.9 622.898 168.4C623.298 167.4 623.698 166.4 624.498 165.6C625.398 164.8 626.598 164.4 627.798 164.1C631.798 163 635.898 161.8 639.898 160.7C640.998 160.4 643.898 159.3 643.898 159.3C643.898 159.3 646.298 144.7 637.598 126.1C637.498 132 636.898 137.6 633.398 141C629.898 144.4 624.798 145.8 619.898 145.9C613.298 146 607.298 143.6 603.398 138.2C612.198 153.8 615.198 171.2 604.598 187Z" fill="#AA6D3F"/>
<path d="M596.799 6.5C596.799 6.5 594.499 11.8 591.599 15.7C590.799 16.7 588.999 18.6 588.999 18.6L583.799 17.7L594.099 6L596.399 6.3" fill="#B77D48"/>
<path d="M606.9 63.5C604.9 81.4 595.7 97.5 586.1 112.7C580.4 121.8 574.2 131.8 576.1 142.4C578 153.1 585.2 160.8 589.1 170.9C591.4 177 591.5 183.9 589.3 190.1C587.1 196.4 584.3 200.1 581.3 206.1C578.3 212.1 577.6 221.2 581.3 226.7C586.8 234.8 600.1 234.2 605.5 242.4C609 247.7 607.7 254.8 605.5 260.8C608.4 259.7 610.3 257 611.8 254.3C614.8 249 617.3 243.3 617.9 237.3C618.5 231.3 616.9 224.8 612.6 220.5C607.1 214.9 597.7 213.3 594.4 206.1C591 198.7 596.4 190.5 600.5 183.4C604.3 177 607.5 170.6 608 163.2C608.6 155.8 603.2 146.4 594 134.2C589.5 128.2 593.8 118.3 598.5 112.5C603.2 106.7 609.9 100.8 614.7 95C626.3 81.2 624.4 59.7 615.6 44C607.8 30 598.7 20.4 585.7 16.7C599.1 30.3 609.4 40.7 606.9 63.5Z" fill="#703F1D"/>
</svg>
