<svg width="1913" height="1913" viewBox="0 0 1913 1913" fill="none" xmlns="http://www.w3.org/2000/svg">
<path fill-rule="evenodd" clip-rule="evenodd" d="M125.671 654.586L654.587 125.67C821.341 -41.0834 1091.7 -41.0835 1258.46 125.67L1787.37 654.586C1954.13 821.34 1954.13 1091.7 1787.37 1258.46L1258.46 1787.37C1091.7 1954.13 821.341 1954.13 654.587 1787.37L125.671 1258.46C-41.0829 1091.7 -41.0831 821.34 125.671 654.586ZM337.803 866.718C288.206 916.315 288.206 996.727 337.803 1046.32L866.719 1575.24C916.315 1624.84 996.727 1624.84 1046.32 1575.24L1575.24 1046.32C1624.84 996.727 1624.84 916.315 1575.24 866.718L1046.32 337.802C996.727 288.206 916.315 288.206 866.719 337.802L337.803 866.718Z" fill="#CFC9F1" fill-opacity="0.17"/>
</svg>
